<svg id="bubles" xmlns="http://www.w3.org/2000/svg" viewBox="0 0 1920 80"><defs><style>.cls-1{fill:none;}.cls-2,.cls-3,.cls-4,.cls-5{fill:#ebedef;}.cls-3{opacity:0.5;}.cls-4{opacity:0.3;}.cls-5{opacity:0.2;}</style></defs><path class="cls-1" d="M1885.77,13.72a72.13,72.13,0,0,1,12.51,9c.83.1,1.66.22,2.49.34A123.49,123.49,0,0,1,1920,.76V0h-35.33a43.42,43.42,0,0,1,1.25,10.33C1885.92,11.47,1885.86,12.6,1885.77,13.72Z"/><path class="cls-1" d="M0,16.73V42.81a100.27,100.27,0,0,1,16.29-9.38A16.71,16.71,0,0,1,0,16.73Z"/><path class="cls-1" d="M1298.61,28.05a153.7,153.7,0,0,1,65.24-14.44,155.3,155.3,0,0,1,25.22,2.07,43.31,43.31,0,0,1,6-15.68H1293.26a50.24,50.24,0,0,1,5.6,23.1C1298.86,24.77,1298.77,26.42,1298.61,28.05Z"/><path class="cls-1" d="M33.46,16.73a16.68,16.68,0,0,1-5.3,12.19,100.27,100.27,0,0,1,49.76-2.34,83.67,83.67,0,0,1,21.67-2.85l.88,0a23.13,23.13,0,0,1,43.15-3.56A36.33,36.33,0,0,1,151.73,0h-135A16.73,16.73,0,0,1,33.46,16.73Z"/><path class="cls-1" d="M259.51,32.92a105.62,105.62,0,0,1,21.57-8.59c0-.41-.06-.81-.06-1.23A19.73,19.73,0,0,1,320.37,21,106.59,106.59,0,0,1,340,24.89,50.19,50.19,0,0,1,349.64,0H208.3a36.42,36.42,0,0,1,8.21,22A115,115,0,0,1,259.51,32.92Z"/><path class="cls-1" d="M16.73,0H0V16.73A16.73,16.73,0,0,1,16.73,0Z"/><path class="cls-1" d="M1012.64,33.46a43.18,43.18,0,0,1-.9,8.79,117.94,117.94,0,0,1,40.63-8.12,89.22,89.22,0,0,1,51.48-16.26,90.24,90.24,0,0,1,16.55,1.53,83.37,83.37,0,0,1,45.24,13.93,50.28,50.28,0,0,1,30.48-10.23c.6,0,1.2,0,1.79,0v0a50.24,50.24,0,0,1,5.6-23.1H996.69A43,43,0,0,1,1012.64,33.46Z"/><path class="cls-1" d="M1489.82,6a60.53,60.53,0,0,1,50.79,27.57q4.35,1.89,8.48,4.17l.34-.29a19.91,19.91,0,1,1,32.85-20.17,107.11,107.11,0,0,1,61-4.74A72.16,72.16,0,0,1,1706.69,20a19.71,19.71,0,0,1,36.59,8.57,99.46,99.46,0,0,1,33.11,17q4.9-1.47,10-2.55a72.41,72.41,0,0,1,14.69-19.23,43.34,43.34,0,0,1-2.13-13.45A43.93,43.93,0,0,1,1800.16,0H1468.77a43.2,43.2,0,0,1,4.11,8.42A60.73,60.73,0,0,1,1489.82,6Z"/><path class="cls-1" d="M146.81,38.32a38.61,38.61,0,0,1-1.44-3.66,22.54,22.54,0,0,1-.6,2.32C145.46,37.42,146.14,37.86,146.81,38.32Z"/><path class="cls-1" d="M467.62,2.1a71.43,71.43,0,0,1,59.62,32,88.34,88.34,0,0,1,83.52-7.82,83.87,83.87,0,0,1,55.19-4A19.91,19.91,0,0,1,704,27.27a105.29,105.29,0,0,1,68,31.29,23.14,23.14,0,0,1,32.72-12.28,19.91,19.91,0,1,1,34.07-20,123.34,123.34,0,0,1,54.62-12.68,125.25,125.25,0,0,1,14.44.85,23.11,23.11,0,0,1,26.32-5.57A43.26,43.26,0,0,1,942.43,0H430.72a50.91,50.91,0,0,1,5.49,9.36A71.26,71.26,0,0,1,467.62,2.1Z"/><path class="cls-2" d="M1786.36,43q-5.05,1.08-10,2.55,3.3,2.58,6.38,5.42A70.51,70.51,0,0,1,1786.36,43Z"/><path class="cls-2" d="M1715.11,24.5a99.9,99.9,0,0,1,28.17,4A19.71,19.71,0,0,0,1706.69,20a72.45,72.45,0,0,1,6.29,4.56Z"/><path class="cls-2" d="M145.37,34.66a36.51,36.51,0,0,1-1.88-11.56c0-1,0-2,.13-2.91a23.13,23.13,0,0,0-43.15,3.56A83.34,83.34,0,0,1,144.77,37,22.54,22.54,0,0,0,145.37,34.66Z"/><path class="cls-2" d="M16.29,33.43a100.76,100.76,0,0,1,11.87-4.51,16.73,16.73,0,1,0-11.87,4.51Z"/><path class="cls-2" d="M838.8,26.29a19.92,19.92,0,1,0-34.07,20,22.12,22.12,0,0,1,2.9,1.88A124.09,124.09,0,0,1,838.8,26.29Z"/><path class="cls-2" d="M696.7,27q3.69,0,7.32.26A19.91,19.91,0,0,0,666,22.34a83.13,83.13,0,0,1,15.28,5.8A106.7,106.7,0,0,1,696.7,27Z"/><path class="cls-3" d="M179.07,59.6a35.59,35.59,0,0,1-5-.46A23,23,0,0,1,178,61.49C178.33,60.86,178.69,60.22,179.07,59.6Z"/><path class="cls-3" d="M215.38,32.27A61.69,61.69,0,0,1,255.84,35c1.21-.7,2.44-1.39,3.67-2a115,115,0,0,0-43-11c0,.38,0,.75,0,1.13A36.92,36.92,0,0,1,215.38,32.27Z"/><polygon class="cls-3" points="166.41 56.99 166.4 56.99 166.4 56.99 166.41 56.99"/><path class="cls-2" d="M255.84,35a61.69,61.69,0,0,0-40.46-2.69A36.55,36.55,0,0,1,180,59.63l-.94,0c-.38.62-.74,1.26-1.1,1.89A23.08,23.08,0,0,1,187.24,80h26.57A107.22,107.22,0,0,1,255.84,35Z"/><path class="cls-3" d="M255.84,35a61.69,61.69,0,0,0-40.46-2.69A36.55,36.55,0,0,1,180,59.63l-.94,0c-.38.62-.74,1.26-1.1,1.89A23.08,23.08,0,0,1,187.24,80h26.57A107.22,107.22,0,0,1,255.84,35Z"/><path class="cls-3" d="M1549.09,37.74q-4.12-2.28-8.48-4.17a60.4,60.4,0,0,1,4.42,8C1546.35,40.29,1547.71,39,1549.09,37.74Z"/><path class="cls-3" d="M1900.77,23c-.83-.12-1.66-.24-2.49-.34.57.51,1.13,1,1.69,1.56C1900.23,23.83,1900.5,23.42,1900.77,23Z"/><path class="cls-3" d="M664.49,32c-.06-.64-.1-1.29-.1-1.95A19.89,19.89,0,0,1,666,22.34a83.87,83.87,0,0,0-55.19,4,88.22,88.22,0,0,1,27.38,18.39A105.5,105.5,0,0,1,664.49,32Z"/><path class="cls-2" d="M664.49,32a105.78,105.78,0,0,1,16.74-3.87A83.13,83.13,0,0,0,666,22.34a19.89,19.89,0,0,0-1.56,7.72C664.39,30.72,664.43,31.37,664.49,32Z"/><path class="cls-3" d="M664.49,32a105.78,105.78,0,0,1,16.74-3.87A83.13,83.13,0,0,0,666,22.34a19.89,19.89,0,0,0-1.56,7.72C664.39,30.72,664.43,31.37,664.49,32Z"/><path class="cls-3" d="M30.63,60A83.85,83.85,0,0,1,77.92,26.58a100.27,100.27,0,0,0-49.76,2.34,16.64,16.64,0,0,1-11.43,4.54c-.15,0-.29,0-.44,0A100.27,100.27,0,0,0,0,42.81V70.29A167.94,167.94,0,0,1,30.63,60Z"/><path class="cls-2" d="M16.73,33.46a16.64,16.64,0,0,0,11.43-4.54,100.76,100.76,0,0,0-11.87,4.51C16.44,33.44,16.58,33.46,16.73,33.46Z"/><path class="cls-3" d="M16.73,33.46a16.64,16.64,0,0,0,11.43-4.54,100.76,100.76,0,0,0-11.87,4.51C16.44,33.44,16.58,33.46,16.73,33.46Z"/><path class="cls-3" d="M1731.88,48a71.54,71.54,0,0,1,5.9,16.3,133.53,133.53,0,0,1,38.61-18.71,99.46,99.46,0,0,0-33.11-17c0,.51.08,1,.08,1.52A19.72,19.72,0,0,1,1731.88,48Z"/><path class="cls-2" d="M1738.75,69.19c6.14,3.34,12.11,7,17.9,10.81h21.53c0-1.15-.09-2.3-.09-3.46A72,72,0,0,1,1782.77,51q-3.07-2.83-6.38-5.42a133.53,133.53,0,0,0-38.61,18.71C1738.16,65.89,1738.49,67.52,1738.75,69.19Z"/><path class="cls-3" d="M1738.75,69.19c6.14,3.34,12.11,7,17.9,10.81h21.53c0-1.15-.09-2.3-.09-3.46A72,72,0,0,1,1782.77,51q-3.07-2.83-6.38-5.42a133.53,133.53,0,0,0-38.61,18.71C1738.16,65.89,1738.49,67.52,1738.75,69.19Z"/><path class="cls-2" d="M1713,24.53A72.51,72.51,0,0,1,1731.88,48a19.72,19.72,0,0,0,11.48-17.91c0-.51,0-1-.08-1.52a99.9,99.9,0,0,0-28.17-4Z"/><path class="cls-3" d="M1713,24.53A72.51,72.51,0,0,1,1731.88,48a19.72,19.72,0,0,0,11.48-17.91c0-.51,0-1-.08-1.52a99.9,99.9,0,0,0-28.17-4Z"/><path class="cls-3" d="M792.83,65.22A123.68,123.68,0,0,1,807,48.76a19.84,19.84,0,0,1-2.28-2.48A23.14,23.14,0,0,0,772,58.56l.71.72A152.21,152.21,0,0,1,792.83,65.22Z"/><path class="cls-2" d="M807,48.76c.21-.2.41-.41.62-.6a22.12,22.12,0,0,0-2.9-1.88A19.84,19.84,0,0,0,807,48.76Z"/><path class="cls-3" d="M807,48.76c.21-.2.41-.41.62-.6a22.12,22.12,0,0,0-2.9-1.88A19.84,19.84,0,0,0,807,48.76Z"/><path class="cls-3" d="M700.64,41.47A84.57,84.57,0,0,1,714.27,57.6a155.18,155.18,0,0,1,57.56,1.49l.18-.53a105.29,105.29,0,0,0-68-31.29,19.47,19.47,0,0,1-3.38,14.2Z"/><path class="cls-2" d="M681.23,28.14a83.87,83.87,0,0,1,19.41,13.33A19.47,19.47,0,0,0,704,27.27Q700.39,27,696.7,27A106.7,106.7,0,0,0,681.23,28.14Z"/><path class="cls-3" d="M681.23,28.14a83.87,83.87,0,0,1,19.41,13.33A19.47,19.47,0,0,0,704,27.27Q700.39,27,696.7,27A106.7,106.7,0,0,0,681.23,28.14Z"/><path class="cls-3" d="M714.27,57.6a84.57,84.57,0,0,0-13.63-16.13A19.91,19.91,0,0,1,664.49,32a105.5,105.5,0,0,0-26.35,12.7,88.11,88.11,0,0,1,21.14,33.13A153.31,153.31,0,0,1,714.27,57.6Z"/><path class="cls-3" d="M714.27,57.6a84.57,84.57,0,0,0-13.63-16.13A19.91,19.91,0,0,1,664.49,32a105.5,105.5,0,0,0-26.35,12.7,88.11,88.11,0,0,1,21.14,33.13A153.31,153.31,0,0,1,714.27,57.6Z"/><path class="cls-2" d="M684.32,50a19.88,19.88,0,0,0,16.32-8.52,83.87,83.87,0,0,0-19.41-13.33A105.78,105.78,0,0,0,664.49,32,19.93,19.93,0,0,0,684.32,50Z"/><path class="cls-3" d="M684.32,50a19.88,19.88,0,0,0,16.32-8.52,83.87,83.87,0,0,0-19.41-13.33A105.78,105.78,0,0,0,664.49,32,19.93,19.93,0,0,0,684.32,50Z"/><path class="cls-3" d="M684.32,50a19.88,19.88,0,0,0,16.32-8.52,83.87,83.87,0,0,0-19.41-13.33A105.78,105.78,0,0,0,664.49,32,19.93,19.93,0,0,0,684.32,50Z"/><path class="cls-3" d="M772.72,59.28l-.71-.72-.18.53Z"/><path class="cls-3" d="M772.72,59.28l-.71-.72-.18.53Z"/><path class="cls-3" d="M820.47,54a19.79,19.79,0,0,1-9-2.14A23.16,23.16,0,0,1,815,75.54c2.51,1.42,5,2.9,7.4,4.46H827a128.4,128.4,0,0,1,27.45-14.59c-.07-.76-.11-1.52-.11-2.29a23.12,23.12,0,0,1,45.38-6.23h.85a128.54,128.54,0,0,1,37,5.42,43.56,43.56,0,0,1-6.7-9.9,23.11,23.11,0,0,1-23-37.94,125.25,125.25,0,0,0-14.44-.85A123.34,123.34,0,0,0,838.8,26.29,19.93,19.93,0,0,1,820.47,54Z"/><path class="cls-2" d="M877.42,40A23.12,23.12,0,0,0,854.3,63.12c0,.77,0,1.53.11,2.29a128.32,128.32,0,0,1,45.27-8.52A23.12,23.12,0,0,0,877.42,40Z"/><path class="cls-3" d="M877.42,40A23.12,23.12,0,0,0,854.3,63.12c0,.77,0,1.53.11,2.29a128.32,128.32,0,0,1,45.27-8.52A23.12,23.12,0,0,0,877.42,40Z"/><path class="cls-2" d="M811.52,51.88A19.92,19.92,0,0,0,838.8,26.29a124.09,124.09,0,0,0-31.17,21.87A23.2,23.2,0,0,1,811.52,51.88Z"/><path class="cls-3" d="M811.52,51.88A19.92,19.92,0,0,0,838.8,26.29a124.09,124.09,0,0,0-31.17,21.87A23.2,23.2,0,0,1,811.52,51.88Z"/><path class="cls-3" d="M816.81,66.6a23.06,23.06,0,0,0-5.29-14.72A20.16,20.16,0,0,1,807,48.76a123.68,123.68,0,0,0-14.18,16.46A153.39,153.39,0,0,1,815,75.54,23.12,23.12,0,0,0,816.81,66.6Z"/><path class="cls-3" d="M816.81,66.6a23.06,23.06,0,0,0-5.29-14.72A20.16,20.16,0,0,1,807,48.76a123.68,123.68,0,0,0-14.18,16.46A153.39,153.39,0,0,1,815,75.54,23.12,23.12,0,0,0,816.81,66.6Z"/><path class="cls-2" d="M807.63,48.16c-.21.19-.41.4-.62.6a20.16,20.16,0,0,0,4.51,3.12A23.2,23.2,0,0,0,807.63,48.16Z"/><path class="cls-3" d="M807.63,48.16c-.21.19-.41.4-.62.6a20.16,20.16,0,0,0,4.51,3.12A23.2,23.2,0,0,0,807.63,48.16Z"/><path class="cls-3" d="M807.63,48.16c-.21.19-.41.4-.62.6a20.16,20.16,0,0,0,4.51,3.12A23.2,23.2,0,0,0,807.63,48.16Z"/><path class="cls-3" d="M1070.51,35.11a83.35,83.35,0,0,1,48.84-15.73l1.05,0a90.24,90.24,0,0,0-16.55-1.53,89.22,89.22,0,0,0-51.48,16.26q1.31,0,2.61,0A120.45,120.45,0,0,1,1070.51,35.11Z"/><path class="cls-3" d="M309.54,50.52a23,23,0,0,1,16.12,6.56,133.71,133.71,0,0,1,17-9.82,50.52,50.52,0,0,1-3-17.2,49.16,49.16,0,0,1,.27-5.17A106.59,106.59,0,0,0,320.37,21a20.2,20.2,0,0,1,.11,2.07,19.72,19.72,0,0,1-39.4,1.23,105.62,105.62,0,0,0-21.57,8.59,115.88,115.88,0,0,1,33.75,24.3A23.06,23.06,0,0,1,309.54,50.52Z"/><path class="cls-2" d="M342.71,47.26a133.71,133.71,0,0,0-17,9.82A23,23,0,0,1,331.76,80h44.12l.87-1.28A50.58,50.58,0,0,1,342.71,47.26Z"/><path class="cls-3" d="M342.71,47.26a133.71,133.71,0,0,0-17,9.82A23,23,0,0,1,331.76,80h44.12l.87-1.28A50.58,50.58,0,0,1,342.71,47.26Z"/><path class="cls-3" d="M287.75,65.92a23.19,23.19,0,0,1,5.51-8.7,115.88,115.88,0,0,0-33.75-24.3c-1.23.65-2.46,1.34-3.67,2A61.91,61.91,0,0,1,287.75,65.92Z"/><path class="cls-3" d="M287.75,65.92a23.19,23.19,0,0,1,5.51-8.7,115.88,115.88,0,0,0-33.75-24.3c-1.23.65-2.46,1.34-3.67,2A61.91,61.91,0,0,1,287.75,65.92Z"/><path class="cls-2" d="M287.75,65.92a61.91,61.91,0,0,0-31.91-31,107.22,107.22,0,0,0-42,45h73.5a23.37,23.37,0,0,1-.89-6.36A22.93,22.93,0,0,1,287.75,65.92Z"/><path class="cls-3" d="M287.75,65.92a61.91,61.91,0,0,0-31.91-31,107.22,107.22,0,0,0-42,45h73.5a23.37,23.37,0,0,1-.89-6.36A22.93,22.93,0,0,1,287.75,65.92Z"/><path class="cls-3" d="M287.75,65.92a61.91,61.91,0,0,0-31.91-31,107.22,107.22,0,0,0-42,45h73.5a23.37,23.37,0,0,1-.89-6.36A22.93,22.93,0,0,1,287.75,65.92Z"/><path class="cls-2" d="M376.75,78.72,375.88,80h6.95A50.83,50.83,0,0,1,376.75,78.72Z"/><path class="cls-3" d="M376.75,78.72,375.88,80h6.95A50.83,50.83,0,0,1,376.75,78.72Z"/><path class="cls-3" d="M376.75,78.72,375.88,80h6.95A50.83,50.83,0,0,1,376.75,78.72Z"/><path class="cls-3" d="M1563.23,43a19.86,19.86,0,0,1-8.51-1.93,99.15,99.15,0,0,1,9,6.51,239.79,239.79,0,0,1,43.68-7,72.4,72.4,0,0,1,35.9-28,107.11,107.11,0,0,0-61,4.74,19.61,19.61,0,0,1,.87,5.82A19.92,19.92,0,0,1,1563.23,43Z"/><path class="cls-3" d="M1549.43,37.45l-.34.29,2,1.13A18.82,18.82,0,0,1,1549.43,37.45Z"/><path class="cls-3" d="M1548.65,52.05q7.42-2.44,15-4.44a99.15,99.15,0,0,0-9-6.51,20.09,20.09,0,0,1-3.63-2.23l-2-1.13c-1.38,1.26-2.74,2.55-4.06,3.88A59.8,59.8,0,0,1,1548.65,52.05Z"/><path class="cls-3" d="M1548.65,52.05q7.42-2.44,15-4.44a99.15,99.15,0,0,0-9-6.51,20.09,20.09,0,0,1-3.63-2.23l-2-1.13c-1.38,1.26-2.74,2.55-4.06,3.88A59.8,59.8,0,0,1,1548.65,52.05Z"/><path class="cls-4" d="M99.59,30.06a23.12,23.12,0,0,1,.88-6.31l-.88,0a83.67,83.67,0,0,0-21.67,2.85,98.77,98.77,0,0,1,22,7.34A23.38,23.38,0,0,1,99.59,30.06Z"/><path class="cls-4" d="M140.19,45.18c2.41-1.82,4.89-3.56,7.44-5.19-.29-.55-.56-1.11-.82-1.67-.67-.46-1.35-.9-2-1.34A22.83,22.83,0,0,1,140.19,45.18Z"/><path class="cls-2" d="M99.92,33.92a99,99,0,0,1,13.81,7.89,23.13,23.13,0,0,1,24.91,4.56l1.55-1.19a22.83,22.83,0,0,0,4.58-8.2,83.34,83.34,0,0,0-44.3-13.23,23.12,23.12,0,0,0-.88,6.31A23.38,23.38,0,0,0,99.92,33.92Z"/><path class="cls-4" d="M99.92,33.92a99,99,0,0,1,13.81,7.89,23.13,23.13,0,0,1,24.91,4.56l1.55-1.19a22.83,22.83,0,0,0,4.58-8.2,83.34,83.34,0,0,0-44.3-13.23,23.12,23.12,0,0,0-.88,6.31A23.38,23.38,0,0,0,99.92,33.92Z"/><path class="cls-3" d="M145.83,63.12a24.64,24.64,0,0,1-.2,3,23.07,23.07,0,0,1,18.49-9.24,21.48,21.48,0,0,1,2.28.12h0a36.59,36.59,0,0,1-18.77-17c-2.55,1.63-5,3.37-7.44,5.19q-.63.74-1.32,1.41A23.06,23.06,0,0,1,145.83,63.12Z"/><path class="cls-4" d="M145.83,63.12a24.64,24.64,0,0,1-.2,3,23.07,23.07,0,0,1,18.49-9.24,21.48,21.48,0,0,1,2.28.12h0a36.59,36.59,0,0,1-18.77-17c-2.55,1.63-5,3.37-7.44,5.19q-.63.74-1.32,1.41A23.06,23.06,0,0,1,145.83,63.12Z"/><path class="cls-2" d="M140.19,45.18l-1.55,1.19.23.22Q139.56,45.92,140.19,45.18Z"/><path class="cls-3" d="M140.19,45.18l-1.55,1.19.23.22Q139.56,45.92,140.19,45.18Z"/><path class="cls-4" d="M140.19,45.18l-1.55,1.19.23.22Q139.56,45.92,140.19,45.18Z"/><path class="cls-3" d="M100.06,58.47a23.06,23.06,0,0,1,6.49-11.88,23,23,0,0,1-6.63-12.67,98.77,98.77,0,0,0-22-7.34A83.85,83.85,0,0,0,30.63,60a170.13,170.13,0,0,1,69.43-1.5Z"/><path class="cls-4" d="M100.06,58.47a23.06,23.06,0,0,1,6.49-11.88,23,23,0,0,1-6.63-12.67,98.77,98.77,0,0,0-22-7.34A83.85,83.85,0,0,0,30.63,60a170.13,170.13,0,0,1,69.43-1.5Z"/><path class="cls-2" d="M99.92,33.92a23,23,0,0,0,6.63,12.67,23.13,23.13,0,0,1,7.18-4.78A99,99,0,0,0,99.92,33.92Z"/><path class="cls-3" d="M99.92,33.92a23,23,0,0,0,6.63,12.67,23.13,23.13,0,0,1,7.18-4.78A99,99,0,0,0,99.92,33.92Z"/><path class="cls-4" d="M99.92,33.92a23,23,0,0,0,6.63,12.67,23.13,23.13,0,0,1,7.18-4.78A99,99,0,0,0,99.92,33.92Z"/><path class="cls-3" d="M127.11,52.76c.67.65,1.33,1.31,2,2q2.34-2.3,4.82-4.46A22.76,22.76,0,0,1,127.11,52.76Z"/><path class="cls-4" d="M127.11,52.76c.67.65,1.33,1.31,2,2q2.34-2.3,4.82-4.46A22.76,22.76,0,0,1,127.11,52.76Z"/><path class="cls-2" d="M133.92,50.28c1.54-1.34,3.11-2.65,4.72-3.91a23.13,23.13,0,0,0-24.91-4.56,99.85,99.85,0,0,1,13.38,10.95A22.76,22.76,0,0,0,133.92,50.28Z"/><path class="cls-3" d="M133.92,50.28c1.54-1.34,3.11-2.65,4.72-3.91a23.13,23.13,0,0,0-24.91-4.56,99.85,99.85,0,0,1,13.38,10.95A22.76,22.76,0,0,0,133.92,50.28Z"/><path class="cls-4" d="M133.92,50.28c1.54-1.34,3.11-2.65,4.72-3.91a23.13,23.13,0,0,0-24.91-4.56,99.85,99.85,0,0,1,13.38,10.95A22.76,22.76,0,0,0,133.92,50.28Z"/><path class="cls-3" d="M145.63,66.12a24.64,24.64,0,0,0,.2-3,23.06,23.06,0,0,0-7-16.53,23,23,0,0,1-5,3.69q-2.47,2.16-4.82,4.46A99.77,99.77,0,0,1,142.46,71.9,22.86,22.86,0,0,1,145.63,66.12Z"/><path class="cls-3" d="M145.63,66.12a24.64,24.64,0,0,0,.2-3,23.06,23.06,0,0,0-7-16.53,23,23,0,0,1-5,3.69q-2.47,2.16-4.82,4.46A99.77,99.77,0,0,1,142.46,71.9,22.86,22.86,0,0,1,145.63,66.12Z"/><path class="cls-4" d="M145.63,66.12a24.64,24.64,0,0,0,.2-3,23.06,23.06,0,0,0-7-16.53,23,23,0,0,1-5,3.69q-2.47,2.16-4.82,4.46A99.77,99.77,0,0,1,142.46,71.9,22.86,22.86,0,0,1,145.63,66.12Z"/><path class="cls-2" d="M138.87,46.59l-.23-.22c-1.61,1.26-3.18,2.57-4.72,3.91A23,23,0,0,0,138.87,46.59Z"/><path class="cls-3" d="M138.87,46.59l-.23-.22c-1.61,1.26-3.18,2.57-4.72,3.91A23,23,0,0,0,138.87,46.59Z"/><path class="cls-3" d="M138.87,46.59l-.23-.22c-1.61,1.26-3.18,2.57-4.72,3.91A23,23,0,0,0,138.87,46.59Z"/><path class="cls-4" d="M138.87,46.59l-.23-.22c-1.61,1.26-3.18,2.57-4.72,3.91A23,23,0,0,0,138.87,46.59Z"/><path class="cls-3" d="M129.1,54.74c-.66-.67-1.32-1.33-2-2a23.53,23.53,0,0,1-4.4.42,23,23,0,0,1-16.16-6.59,23.06,23.06,0,0,0-6.49,11.88,169.09,169.09,0,0,1,20.76,5.26A115.38,115.38,0,0,1,129.1,54.74Z"/><path class="cls-3" d="M129.1,54.74c-.66-.67-1.32-1.33-2-2a23.53,23.53,0,0,1-4.4.42,23,23,0,0,1-16.16-6.59,23.06,23.06,0,0,0-6.49,11.88,169.09,169.09,0,0,1,20.76,5.26A115.38,115.38,0,0,1,129.1,54.74Z"/><path class="cls-4" d="M129.1,54.74c-.66-.67-1.32-1.33-2-2a23.53,23.53,0,0,1-4.4.42,23,23,0,0,1-16.16-6.59,23.06,23.06,0,0,0-6.49,11.88,169.09,169.09,0,0,1,20.76,5.26A115.38,115.38,0,0,1,129.1,54.74Z"/><path class="cls-2" d="M127.11,52.76a99.85,99.85,0,0,0-13.38-10.95,23.13,23.13,0,0,0-7.18,4.78,23,23,0,0,0,16.16,6.59A23.53,23.53,0,0,0,127.11,52.76Z"/><path class="cls-3" d="M127.11,52.76a99.85,99.85,0,0,0-13.38-10.95,23.13,23.13,0,0,0-7.18,4.78,23,23,0,0,0,16.16,6.59A23.53,23.53,0,0,0,127.11,52.76Z"/><path class="cls-3" d="M127.11,52.76a99.85,99.85,0,0,0-13.38-10.95,23.13,23.13,0,0,0-7.18,4.78,23,23,0,0,0,16.16,6.59A23.53,23.53,0,0,0,127.11,52.76Z"/><path class="cls-4" d="M127.11,52.76a99.85,99.85,0,0,0-13.38-10.95,23.13,23.13,0,0,0-7.18,4.78,23,23,0,0,0,16.16,6.59A23.53,23.53,0,0,0,127.11,52.76Z"/><path class="cls-3" d="M129.1,54.74a115.38,115.38,0,0,0-8.28,9,168,168,0,0,1,21.49,8.6l.15-.43A99.77,99.77,0,0,0,129.1,54.74Z"/><path class="cls-3" d="M129.1,54.74a115.38,115.38,0,0,0-8.28,9,168,168,0,0,1,21.49,8.6l.15-.43A99.77,99.77,0,0,0,129.1,54.74Z"/><path class="cls-3" d="M129.1,54.74a115.38,115.38,0,0,0-8.28,9,168,168,0,0,1,21.49,8.6l.15-.43A99.77,99.77,0,0,0,129.1,54.74Z"/><path class="cls-4" d="M129.1,54.74a115.38,115.38,0,0,0-8.28,9,168,168,0,0,1,21.49,8.6l.15-.43A99.77,99.77,0,0,0,129.1,54.74Z"/><path class="cls-4" d="M440.63,30.92q3.89-1.26,7.87-2.27a19.92,19.92,0,1,1,39.05-5.55,20.39,20.39,0,0,1-.11,2.08,123,123,0,0,1,39.31,9.29l.49-.33a71.52,71.52,0,0,0-91-24.78,50.21,50.21,0,0,1,4.44,20.7C440.65,30.35,440.64,30.63,440.63,30.92Z"/><path class="cls-3" d="M495,73a88.49,88.49,0,0,1,31.72-38.54,123,123,0,0,0-39.31-9.29,19.92,19.92,0,0,1-38.94,3.47q-4,1-7.87,2.27a50.87,50.87,0,0,1-.94,9A133.71,133.71,0,0,1,495,73Z"/><path class="cls-4" d="M495,73a88.49,88.49,0,0,1,31.72-38.54,123,123,0,0,0-39.31-9.29,19.92,19.92,0,0,1-38.94,3.47q-4,1-7.87,2.27a50.87,50.87,0,0,1-.94,9A133.71,133.71,0,0,1,495,73Z"/><path class="cls-2" d="M439.69,39.88A50.52,50.52,0,0,1,404.5,78.46l.77,1.54h87.14q1.17-3.57,2.62-7A133.71,133.71,0,0,0,439.69,39.88Z"/><path class="cls-3" d="M439.69,39.88A50.52,50.52,0,0,1,404.5,78.46l.77,1.54h87.14q1.17-3.57,2.62-7A133.71,133.71,0,0,0,439.69,39.88Z"/><path class="cls-4" d="M439.69,39.88A50.52,50.52,0,0,1,404.5,78.46l.77,1.54h87.14q1.17-3.57,2.62-7A133.71,133.71,0,0,0,439.69,39.88Z"/><path class="cls-2" d="M397.52,80h7.75l-.77-1.54A50.08,50.08,0,0,1,397.52,80Z"/><path class="cls-3" d="M397.52,80h7.75l-.77-1.54A50.08,50.08,0,0,1,397.52,80Z"/><path class="cls-3" d="M397.52,80h7.75l-.77-1.54A50.08,50.08,0,0,1,397.52,80Z"/><path class="cls-4" d="M397.52,80h7.75l-.77-1.54A50.08,50.08,0,0,1,397.52,80Z"/><path class="cls-4" d="M1165.64,33.33A83.37,83.37,0,0,0,1120.4,19.4a89.25,89.25,0,0,1,39.95,18.53A51.59,51.59,0,0,1,1165.64,33.33Z"/><path class="cls-3" d="M1070.51,35.11a117.55,117.55,0,0,1,49.17,18.25,19.89,19.89,0,0,1,33.84-6.89,51.19,51.19,0,0,1,6.83-8.54A89.25,89.25,0,0,0,1120.4,19.4l-1.05,0A83.35,83.35,0,0,0,1070.51,35.11Z"/><path class="cls-4" d="M1070.51,35.11a117.55,117.55,0,0,1,49.17,18.25,19.89,19.89,0,0,1,33.84-6.89,51.19,51.19,0,0,1,6.83-8.54A89.25,89.25,0,0,0,1120.4,19.4l-1.05,0A83.35,83.35,0,0,0,1070.51,35.11Z"/><path class="cls-3" d="M1138.58,39.7a19.92,19.92,0,0,0-18.9,13.66,118.65,118.65,0,0,1,26,23.09c-.05-.93-.08-1.87-.08-2.81a50.24,50.24,0,0,1,7.94-27.17A19.88,19.88,0,0,0,1138.58,39.7Z"/><path class="cls-3" d="M1138.58,39.7a19.92,19.92,0,0,0-18.9,13.66,118.65,118.65,0,0,1,26,23.09c-.05-.93-.08-1.87-.08-2.81a50.24,50.24,0,0,1,7.94-27.17A19.88,19.88,0,0,0,1138.58,39.7Z"/><path class="cls-4" d="M1138.58,39.7a19.92,19.92,0,0,0-18.9,13.66,118.65,118.65,0,0,1,26,23.09c-.05-.93-.08-1.87-.08-2.81a50.24,50.24,0,0,1,7.94-27.17A19.88,19.88,0,0,0,1138.58,39.7Z"/><path class="cls-4" d="M1495,7a23.11,23.11,0,0,1,22.89,19.89,97.81,97.81,0,0,1,22.69,6.73,60.55,60.55,0,0,0-67.73-25.15,43.59,43.59,0,0,1,2.27,9.85A23.09,23.09,0,0,1,1495,7Z"/><path class="cls-2" d="M1475.38,24.56a16.7,16.7,0,0,1,4.64,3.22,99.09,99.09,0,0,1,37.9-.94,23.12,23.12,0,0,0-42.77-8.57,45.39,45.39,0,0,1,.27,4.83C1475.42,23.59,1475.4,24.08,1475.38,24.56Z"/><path class="cls-4" d="M1475.38,24.56a16.7,16.7,0,0,1,4.64,3.22,99.09,99.09,0,0,1,37.9-.94,23.12,23.12,0,0,0-42.77-8.57,45.39,45.39,0,0,1,.27,4.83C1475.42,23.59,1475.4,24.08,1475.38,24.56Z"/><path class="cls-3" d="M1470.38,56.29c.71.67,1.4,1.36,2.1,2.05a20.15,20.15,0,0,1,1.67-3A16.91,16.91,0,0,1,1470.38,56.29Z"/><path class="cls-4" d="M1470.38,56.29c.71.67,1.4,1.36,2.1,2.05a20.15,20.15,0,0,1,1.67-3A16.91,16.91,0,0,1,1470.38,56.29Z"/><path class="cls-3" d="M1518.15,30.06a23.11,23.11,0,0,1-14.54,21.47,19.91,19.91,0,0,1,6.91,15.07c0,.63,0,1.25-.1,1.87q10.18-5.48,20.94-10A107.2,107.2,0,0,1,1545,41.62a60.4,60.4,0,0,0-4.42-8,97.81,97.81,0,0,0-22.69-6.73A22.92,22.92,0,0,1,1518.15,30.06Z"/><path class="cls-4" d="M1518.15,30.06a23.11,23.11,0,0,1-14.54,21.47,19.91,19.91,0,0,1,6.91,15.07c0,.63,0,1.25-.1,1.87q10.18-5.48,20.94-10A107.2,107.2,0,0,1,1545,41.62a60.4,60.4,0,0,0-4.42-8,97.81,97.81,0,0,0-22.69-6.73A22.92,22.92,0,0,1,1518.15,30.06Z"/><path class="cls-2" d="M1480,27.78a16.65,16.65,0,0,1,2.57,20.58,19.9,19.9,0,0,1,21,3.17,23.08,23.08,0,0,0,14.31-24.69,99.09,99.09,0,0,0-37.9.94Z"/><path class="cls-3" d="M1480,27.78a16.65,16.65,0,0,1,2.57,20.58,19.9,19.9,0,0,1,21,3.17,23.08,23.08,0,0,0,14.31-24.69,99.09,99.09,0,0,0-37.9.94Z"/><path class="cls-4" d="M1480,27.78a16.65,16.65,0,0,1,2.57,20.58,19.9,19.9,0,0,1,21,3.17,23.08,23.08,0,0,0,14.31-24.69,99.09,99.09,0,0,0-37.9.94Z"/><path class="cls-2" d="M1475.38,24.56A43.49,43.49,0,0,1,1475,29q2.48-.69,5-1.24A16.7,16.7,0,0,0,1475.38,24.56Z"/><path class="cls-3" d="M1475.38,24.56A43.49,43.49,0,0,1,1475,29q2.48-.69,5-1.24A16.7,16.7,0,0,0,1475.38,24.56Z"/><path class="cls-4" d="M1475.38,24.56A43.49,43.49,0,0,1,1475,29q2.48-.69,5-1.24A16.7,16.7,0,0,0,1475.38,24.56Z"/><path class="cls-3" d="M1481.57,48.85a23.09,23.09,0,0,1-8.51-11.61A43.51,43.51,0,0,1,1465,51.37q2.76,2.4,5.41,4.92a16.91,16.91,0,0,0,3.77-.93A20,20,0,0,1,1481.57,48.85Z"/><path class="cls-3" d="M1481.57,48.85a23.09,23.09,0,0,1-8.51-11.61A43.51,43.51,0,0,1,1465,51.37q2.76,2.4,5.41,4.92a16.91,16.91,0,0,0,3.77-.93A20,20,0,0,1,1481.57,48.85Z"/><path class="cls-4" d="M1481.57,48.85a23.09,23.09,0,0,1-8.51-11.61A43.51,43.51,0,0,1,1465,51.37q2.76,2.4,5.41,4.92a16.91,16.91,0,0,0,3.77-.93A20,20,0,0,1,1481.57,48.85Z"/><path class="cls-2" d="M1481.57,48.85l1-.49A16.65,16.65,0,0,0,1480,27.78q-2.54.55-5,1.24a43.78,43.78,0,0,1-2,8.22A23.09,23.09,0,0,0,1481.57,48.85Z"/><path class="cls-3" d="M1481.57,48.85l1-.49A16.65,16.65,0,0,0,1480,27.78q-2.54.55-5,1.24a43.78,43.78,0,0,1-2,8.22A23.09,23.09,0,0,0,1481.57,48.85Z"/><path class="cls-3" d="M1481.57,48.85l1-.49A16.65,16.65,0,0,0,1480,27.78q-2.54.55-5,1.24a43.78,43.78,0,0,1-2,8.22A23.09,23.09,0,0,0,1481.57,48.85Z"/><path class="cls-4" d="M1481.57,48.85l1-.49A16.65,16.65,0,0,0,1480,27.78q-2.54.55-5,1.24a43.78,43.78,0,0,1-2,8.22A23.09,23.09,0,0,0,1481.57,48.85Z"/><path class="cls-3" d="M1482.06,49.2a16.76,16.76,0,0,1-7.91,6.16,20.15,20.15,0,0,0-1.67,3A155.1,155.1,0,0,1,1490.66,80h.52q9.33-6.19,19.24-11.53c.06-.62.1-1.24.1-1.87a19.91,19.91,0,0,0-6.91-15.07,23.13,23.13,0,0,1-21.55-2.33Z"/><path class="cls-3" d="M1482.06,49.2a16.76,16.76,0,0,1-7.91,6.16,20.15,20.15,0,0,0-1.67,3A155.1,155.1,0,0,1,1490.66,80h.52q9.33-6.19,19.24-11.53c.06-.62.1-1.24.1-1.87a19.91,19.91,0,0,0-6.91-15.07,23.13,23.13,0,0,1-21.55-2.33Z"/><path class="cls-4" d="M1482.06,49.2a16.76,16.76,0,0,1-7.91,6.16,20.15,20.15,0,0,0-1.67,3A155.1,155.1,0,0,1,1490.66,80h.52q9.33-6.19,19.24-11.53c.06-.62.1-1.24.1-1.87a19.91,19.91,0,0,0-6.91-15.07,23.13,23.13,0,0,1-21.55-2.33Z"/><path class="cls-2" d="M1482.59,48.36c-.17.29-.34.57-.53.84a23.13,23.13,0,0,0,21.55,2.33,19.9,19.9,0,0,0-21-3.17Z"/><path class="cls-3" d="M1482.59,48.36c-.17.29-.34.57-.53.84a23.13,23.13,0,0,0,21.55,2.33,19.9,19.9,0,0,0-21-3.17Z"/><path class="cls-3" d="M1482.59,48.36c-.17.29-.34.57-.53.84a23.13,23.13,0,0,0,21.55,2.33,19.9,19.9,0,0,0-21-3.17Z"/><path class="cls-4" d="M1482.59,48.36c-.17.29-.34.57-.53.84a23.13,23.13,0,0,0,21.55,2.33,19.9,19.9,0,0,0-21-3.17Z"/><path class="cls-3" d="M1474.15,55.36a16.76,16.76,0,0,0,7.91-6.16l-.49-.35A20,20,0,0,0,1474.15,55.36Z"/><path class="cls-3" d="M1474.15,55.36a16.76,16.76,0,0,0,7.91-6.16l-.49-.35A20,20,0,0,0,1474.15,55.36Z"/><path class="cls-3" d="M1474.15,55.36a16.76,16.76,0,0,0,7.91-6.16l-.49-.35A20,20,0,0,0,1474.15,55.36Z"/><path class="cls-4" d="M1474.15,55.36a16.76,16.76,0,0,0,7.91-6.16l-.49-.35A20,20,0,0,0,1474.15,55.36Z"/><path class="cls-2" d="M1482.06,49.2c.19-.27.36-.55.53-.84l-1,.49Z"/><path class="cls-3" d="M1482.06,49.2c.19-.27.36-.55.53-.84l-1,.49Z"/><path class="cls-3" d="M1482.06,49.2c.19-.27.36-.55.53-.84l-1,.49Z"/><path class="cls-3" d="M1482.06,49.2c.19-.27.36-.55.53-.84l-1,.49Z"/><path class="cls-4" d="M1482.06,49.2c.19-.27.36-.55.53-.84l-1,.49Z"/><path class="cls-3" d="M1545,41.62a107.2,107.2,0,0,0-13.67,16.87q8.49-3.54,17.29-6.44A59.8,59.8,0,0,0,1545,41.62Z"/><path class="cls-3" d="M1545,41.62a107.2,107.2,0,0,0-13.67,16.87q8.49-3.54,17.29-6.44A59.8,59.8,0,0,0,1545,41.62Z"/><path class="cls-4" d="M1545,41.62a107.2,107.2,0,0,0-13.67,16.87q8.49-3.54,17.29-6.44A59.8,59.8,0,0,0,1545,41.62Z"/><path class="cls-4" d="M1704.56,25.06a19.58,19.58,0,0,1,2.13-5.09,72.16,72.16,0,0,0-63.41-7.43,106.18,106.18,0,0,1,39.33,17.38A99.32,99.32,0,0,1,1704.56,25.06Z"/><path class="cls-2" d="M1713,24.53a72.45,72.45,0,0,0-6.29-4.56,19.58,19.58,0,0,0-2.13,5.09C1707.33,24.76,1710.14,24.59,1713,24.53Z"/><path class="cls-4" d="M1713,24.53a72.45,72.45,0,0,0-6.29-4.56,19.58,19.58,0,0,0-2.13,5.09C1707.33,24.76,1710.14,24.59,1713,24.53Z"/><path class="cls-3" d="M1707.7,55a239.46,239.46,0,0,1,26.58,11.78c1.15-.87,2.32-1.71,3.5-2.54a71.54,71.54,0,0,0-5.9-16.3,19.67,19.67,0,0,1-27.32-22.91,99.32,99.32,0,0,0-22,4.86A107.38,107.38,0,0,1,1707.7,55Z"/><path class="cls-4" d="M1707.7,55a239.46,239.46,0,0,1,26.58,11.78c1.15-.87,2.32-1.71,3.5-2.54a71.54,71.54,0,0,0-5.9-16.3,19.67,19.67,0,0,1-27.32-22.91,99.32,99.32,0,0,0-22,4.86A107.38,107.38,0,0,1,1707.7,55Z"/><path class="cls-2" d="M1738.75,69.19c-.26-1.67-.59-3.3-1-4.92-1.18.83-2.35,1.67-3.5,2.54Q1736.53,68,1738.75,69.19Z"/><path class="cls-3" d="M1738.75,69.19c-.26-1.67-.59-3.3-1-4.92-1.18.83-2.35,1.67-3.5,2.54Q1736.53,68,1738.75,69.19Z"/><path class="cls-4" d="M1738.75,69.19c-.26-1.67-.59-3.3-1-4.92-1.18.83-2.35,1.67-3.5,2.54Q1736.53,68,1738.75,69.19Z"/><path class="cls-2" d="M1723.63,49.8a19.65,19.65,0,0,0,8.25-1.83A72.51,72.51,0,0,0,1713,24.53c-2.84.06-5.65.23-8.42.53a19.65,19.65,0,0,0,19.07,24.74Z"/><path class="cls-3" d="M1723.63,49.8a19.65,19.65,0,0,0,8.25-1.83A72.51,72.51,0,0,0,1713,24.53c-2.84.06-5.65.23-8.42.53a19.65,19.65,0,0,0,19.07,24.74Z"/><path class="cls-4" d="M1723.63,49.8a19.65,19.65,0,0,0,8.25-1.83A72.51,72.51,0,0,0,1713,24.53c-2.84.06-5.65.23-8.42.53a19.65,19.65,0,0,0,19.07,24.74Z"/><path class="cls-3" d="M1607.38,40.58c5.47-.37,11-.58,16.54-.58a242,242,0,0,1,34.16,2.43,99.4,99.4,0,0,1,24.53-12.51,106.18,106.18,0,0,0-39.33-17.38A72.4,72.4,0,0,0,1607.38,40.58Z"/><path class="cls-4" d="M1607.38,40.58c5.47-.37,11-.58,16.54-.58a242,242,0,0,1,34.16,2.43,99.4,99.4,0,0,1,24.53-12.51,106.18,106.18,0,0,0-39.33-17.38A72.4,72.4,0,0,0,1607.38,40.58Z"/><path class="cls-3" d="M1682.61,29.92a99.4,99.4,0,0,0-24.53,12.51A238.64,238.64,0,0,1,1707.7,55,107.38,107.38,0,0,0,1682.61,29.92Z"/><path class="cls-3" d="M1682.61,29.92a99.4,99.4,0,0,0-24.53,12.51A238.64,238.64,0,0,1,1707.7,55,107.38,107.38,0,0,0,1682.61,29.92Z"/><path class="cls-4" d="M1682.61,29.92a99.4,99.4,0,0,0-24.53,12.51A238.64,238.64,0,0,1,1707.7,55,107.38,107.38,0,0,0,1682.61,29.92Z"/><path class="cls-4" d="M1898.28,22.68a72.13,72.13,0,0,0-12.51-9,43,43,0,0,1-1.39,8.07A115.9,115.9,0,0,1,1898.28,22.68Z"/><path class="cls-4" d="M1801.05,23.78A72.41,72.41,0,0,0,1786.36,43a134.21,134.21,0,0,1,24.32-2.95A43.41,43.41,0,0,1,1801.05,23.78Z"/><path class="cls-2" d="M1794.53,63.94a115.86,115.86,0,0,1,20.73-19.64,42.76,42.76,0,0,1-4.58-4.24A134.21,134.21,0,0,0,1786.36,43a70.51,70.51,0,0,0-3.59,8A101.1,101.1,0,0,1,1794.53,63.94Z"/><path class="cls-4" d="M1794.53,63.94a115.86,115.86,0,0,1,20.73-19.64,42.76,42.76,0,0,1-4.58-4.24A134.21,134.21,0,0,0,1786.36,43a70.51,70.51,0,0,0-3.59,8A101.1,101.1,0,0,1,1794.53,63.94Z"/><path class="cls-3" d="M1882.6,27c.41,0,.81-.07,1.23-.07a19.67,19.67,0,0,1,12,4.08q2-3.46,4.16-6.78c-.56-.53-1.12-1-1.69-1.56a115.9,115.9,0,0,0-13.9-.89A44.55,44.55,0,0,1,1882.6,27Z"/><path class="cls-4" d="M1882.6,27c.41,0,.81-.07,1.23-.07a19.67,19.67,0,0,1,12,4.08q2-3.46,4.16-6.78c-.56-.53-1.12-1-1.69-1.56a115.9,115.9,0,0,0-13.9-.89A44.55,44.55,0,0,1,1882.6,27Z"/><path class="cls-3" d="M1864.32,49.52c-.07-.5-.12-1-.16-1.52-.51.29-1,.58-1.55.86Z"/><path class="cls-4" d="M1864.32,49.52c-.07-.5-.12-1-.16-1.52-.51.29-1,.58-1.55.86Z"/><path class="cls-2" d="M1864.32,49.52l-1.71-.66a43.48,43.48,0,0,1-47.35-4.56,115.86,115.86,0,0,0-20.73,19.64,99.4,99.4,0,0,1,10,16.06h75.89a122.85,122.85,0,0,1,2.07-13.66A19.71,19.71,0,0,1,1864.32,49.52Z"/><path class="cls-3" d="M1864.32,49.52l-1.71-.66a43.48,43.48,0,0,1-47.35-4.56,115.86,115.86,0,0,0-20.73,19.64,99.4,99.4,0,0,1,10,16.06h75.89a122.85,122.85,0,0,1,2.07-13.66A19.71,19.71,0,0,1,1864.32,49.52Z"/><path class="cls-4" d="M1864.32,49.52l-1.71-.66a43.48,43.48,0,0,1-47.35-4.56,115.86,115.86,0,0,0-20.73,19.64,99.4,99.4,0,0,1,10,16.06h75.89a122.85,122.85,0,0,1,2.07-13.66A19.71,19.71,0,0,1,1864.32,49.52Z"/><path class="cls-2" d="M1794.53,63.94a101.1,101.1,0,0,0-11.76-13,72,72,0,0,0-4.68,25.56c0,1.16,0,2.31.09,3.46h5.24A115,115,0,0,1,1794.53,63.94Z"/><path class="cls-3" d="M1794.53,63.94a101.1,101.1,0,0,0-11.76-13,72,72,0,0,0-4.68,25.56c0,1.16,0,2.31.09,3.46h5.24A115,115,0,0,1,1794.53,63.94Z"/><path class="cls-4" d="M1794.53,63.94a101.1,101.1,0,0,0-11.76-13,72,72,0,0,0-4.68,25.56c0,1.16,0,2.31.09,3.46h5.24A115,115,0,0,1,1794.53,63.94Z"/><path class="cls-2" d="M1783.42,80h21.06a99.4,99.4,0,0,0-10-16.06A115,115,0,0,0,1783.42,80Z"/><path class="cls-3" d="M1783.42,80h21.06a99.4,99.4,0,0,0-10-16.06A115,115,0,0,0,1783.42,80Z"/><path class="cls-3" d="M1783.42,80h21.06a99.4,99.4,0,0,0-10-16.06A115,115,0,0,0,1783.42,80Z"/><path class="cls-4" d="M1783.42,80h21.06a99.4,99.4,0,0,0-10-16.06A115,115,0,0,0,1783.42,80Z"/><path class="cls-3" d="M1882.6,27a43.64,43.64,0,0,1-18.44,21c0,.51.09,1,.16,1.52a133.81,133.81,0,0,1,19.79,9.88A122.41,122.41,0,0,1,1895.81,31a19.67,19.67,0,0,0-12-4.08C1883.41,26.94,1883,27,1882.6,27Z"/><path class="cls-3" d="M1882.6,27a43.64,43.64,0,0,1-18.44,21c0,.51.09,1,.16,1.52a133.81,133.81,0,0,1,19.79,9.88A122.41,122.41,0,0,1,1895.81,31a19.67,19.67,0,0,0-12-4.08C1883.41,26.94,1883,27,1882.6,27Z"/><path class="cls-4" d="M1882.6,27a43.64,43.64,0,0,1-18.44,21c0,.51.09,1,.16,1.52a133.81,133.81,0,0,1,19.79,9.88A122.41,122.41,0,0,1,1895.81,31a19.67,19.67,0,0,0-12-4.08C1883.41,26.94,1883,27,1882.6,27Z"/><path class="cls-2" d="M1882.44,66.34q.74-3.51,1.67-6.94a133.81,133.81,0,0,0-19.79-9.88A19.71,19.71,0,0,0,1882.44,66.34Z"/><path class="cls-3" d="M1882.44,66.34q.74-3.51,1.67-6.94a133.81,133.81,0,0,0-19.79-9.88A19.71,19.71,0,0,0,1882.44,66.34Z"/><path class="cls-3" d="M1882.44,66.34q.74-3.51,1.67-6.94a133.81,133.81,0,0,0-19.79-9.88A19.71,19.71,0,0,0,1882.44,66.34Z"/><path class="cls-4" d="M1882.44,66.34q.74-3.51,1.67-6.94a133.81,133.81,0,0,0-19.79-9.88A19.71,19.71,0,0,0,1882.44,66.34Z"/><path class="cls-2" d="M392.47,60.05c2-2,4.15-3.91,6.33-5.76a71.06,71.06,0,0,1,9.12-20c-2.4-.12-4.81-.19-7.24-.19a134,134,0,0,0-32.45,4A106.81,106.81,0,0,1,392.47,60.05Z"/><path class="cls-5" d="M392.47,60.05c2-2,4.15-3.91,6.33-5.76a71.06,71.06,0,0,1,9.12-20c-2.4-.12-4.81-.19-7.24-.19a134,134,0,0,0-32.45,4A106.81,106.81,0,0,1,392.47,60.05Z"/><path class="cls-2" d="M398.8,54.29c-2.18,1.85-4.28,3.77-6.33,5.76q2.16,2.66,4.14,5.44A72.73,72.73,0,0,1,398.8,54.29Z"/><path class="cls-3" d="M398.8,54.29c-2.18,1.85-4.28,3.77-6.33,5.76q2.16,2.66,4.14,5.44A72.73,72.73,0,0,1,398.8,54.29Z"/><path class="cls-5" d="M398.8,54.29c-2.18,1.85-4.28,3.77-6.33,5.76q2.16,2.66,4.14,5.44A72.73,72.73,0,0,1,398.8,54.29Z"/><path class="cls-3" d="M342.71,47.26a132.79,132.79,0,0,1,25.52-9.19A106.08,106.08,0,0,0,340,24.89a49.16,49.16,0,0,0-.27,5.17A50.52,50.52,0,0,0,342.71,47.26Z"/><path class="cls-5" d="M342.71,47.26a132.79,132.79,0,0,1,25.52-9.19A106.08,106.08,0,0,0,340,24.89a49.16,49.16,0,0,0-.27,5.17A50.52,50.52,0,0,0,342.71,47.26Z"/><path class="cls-2" d="M376.75,78.72a123.76,123.76,0,0,1,15.72-18.67,106.81,106.81,0,0,0-24.24-22,132.79,132.79,0,0,0-25.52,9.19A50.58,50.58,0,0,0,376.75,78.72Z"/><path class="cls-3" d="M376.75,78.72a123.76,123.76,0,0,1,15.72-18.67,106.81,106.81,0,0,0-24.24-22,132.79,132.79,0,0,0-25.52,9.19A50.58,50.58,0,0,0,376.75,78.72Z"/><path class="cls-5" d="M376.75,78.72a123.76,123.76,0,0,1,15.72-18.67,106.81,106.81,0,0,0-24.24-22,132.79,132.79,0,0,0-25.52,9.19A50.58,50.58,0,0,0,376.75,78.72Z"/><path class="cls-2" d="M396.15,73.58a72,72,0,0,1,.46-8.09q-2-2.79-4.14-5.44a123.76,123.76,0,0,0-15.72,18.67A50.83,50.83,0,0,0,382.83,80h13.62C396.26,77.88,396.15,75.74,396.15,73.58Z"/><path class="cls-3" d="M396.15,73.58a72,72,0,0,1,.46-8.09q-2-2.79-4.14-5.44a123.76,123.76,0,0,0-15.72,18.67A50.83,50.83,0,0,0,382.83,80h13.62C396.26,77.88,396.15,75.74,396.15,73.58Z"/><path class="cls-3" d="M396.15,73.58a72,72,0,0,1,.46-8.09q-2-2.79-4.14-5.44a123.76,123.76,0,0,0-15.72,18.67A50.83,50.83,0,0,0,382.83,80h13.62C396.26,77.88,396.15,75.74,396.15,73.58Z"/><path class="cls-5" d="M396.15,73.58a72,72,0,0,1,.46-8.09q-2-2.79-4.14-5.44a123.76,123.76,0,0,0-15.72,18.67A50.83,50.83,0,0,0,382.83,80h13.62C396.26,77.88,396.15,75.74,396.15,73.58Z"/><path class="cls-4" d="M440.63,30.92c0-.29,0-.57,0-.86a50.21,50.21,0,0,0-4.44-20.7,71.81,71.81,0,0,0-28.29,24.93,134.7,134.7,0,0,1,18.43,2.28A121.81,121.81,0,0,1,440.63,30.92Z"/><path class="cls-5" d="M440.63,30.92c0-.29,0-.57,0-.86a50.21,50.21,0,0,0-4.44-20.7,71.81,71.81,0,0,0-28.29,24.93,134.7,134.7,0,0,1,18.43,2.28A121.81,121.81,0,0,1,440.63,30.92Z"/><path class="cls-2" d="M426.35,36.57a134.7,134.7,0,0,0-18.43-2.28,71.06,71.06,0,0,0-9.12,20A123.43,123.43,0,0,1,426.35,36.57Z"/><path class="cls-4" d="M426.35,36.57a134.7,134.7,0,0,0-18.43-2.28,71.06,71.06,0,0,0-9.12,20A123.43,123.43,0,0,1,426.35,36.57Z"/><path class="cls-5" d="M426.35,36.57a134.7,134.7,0,0,0-18.43-2.28,71.06,71.06,0,0,0-9.12,20A123.43,123.43,0,0,1,426.35,36.57Z"/><path class="cls-3" d="M440.63,30.92a121.81,121.81,0,0,0-14.28,5.65,131.91,131.91,0,0,1,13.34,3.31A50.87,50.87,0,0,0,440.63,30.92Z"/><path class="cls-4" d="M440.63,30.92a121.81,121.81,0,0,0-14.28,5.65,131.91,131.91,0,0,1,13.34,3.31A50.87,50.87,0,0,0,440.63,30.92Z"/><path class="cls-5" d="M440.63,30.92a121.81,121.81,0,0,0-14.28,5.65,131.91,131.91,0,0,1,13.34,3.31A50.87,50.87,0,0,0,440.63,30.92Z"/><path class="cls-2" d="M404.5,78.46a50.52,50.52,0,0,0,35.19-38.58,131.91,131.91,0,0,0-13.34-3.31A123.43,123.43,0,0,0,398.8,54.29a72.73,72.73,0,0,0-2.19,11.2A106.76,106.76,0,0,1,404.5,78.46Z"/><path class="cls-3" d="M404.5,78.46a50.52,50.52,0,0,0,35.19-38.58,131.91,131.91,0,0,0-13.34-3.31A123.43,123.43,0,0,0,398.8,54.29a72.73,72.73,0,0,0-2.19,11.2A106.76,106.76,0,0,1,404.5,78.46Z"/><path class="cls-4" d="M404.5,78.46a50.52,50.52,0,0,0,35.19-38.58,131.91,131.91,0,0,0-13.34-3.31A123.43,123.43,0,0,0,398.8,54.29a72.73,72.73,0,0,0-2.19,11.2A106.76,106.76,0,0,1,404.5,78.46Z"/><path class="cls-5" d="M404.5,78.46a50.52,50.52,0,0,0,35.19-38.58,131.91,131.91,0,0,0-13.34-3.31A123.43,123.43,0,0,0,398.8,54.29a72.73,72.73,0,0,0-2.19,11.2A106.76,106.76,0,0,1,404.5,78.46Z"/><path class="cls-2" d="M396.61,65.49a72,72,0,0,0-.46,8.09c0,2.16.11,4.3.3,6.42h1.07a50.08,50.08,0,0,0,7-1.54A106.76,106.76,0,0,0,396.61,65.49Z"/><path class="cls-3" d="M396.61,65.49a72,72,0,0,0-.46,8.09c0,2.16.11,4.3.3,6.42h1.07a50.08,50.08,0,0,0,7-1.54A106.76,106.76,0,0,0,396.61,65.49Z"/><path class="cls-3" d="M396.61,65.49a72,72,0,0,0-.46,8.09c0,2.16.11,4.3.3,6.42h1.07a50.08,50.08,0,0,0,7-1.54A106.76,106.76,0,0,0,396.61,65.49Z"/><path class="cls-4" d="M396.61,65.49a72,72,0,0,0-.46,8.09c0,2.16.11,4.3.3,6.42h1.07a50.08,50.08,0,0,0,7-1.54A106.76,106.76,0,0,0,396.61,65.49Z"/><path class="cls-5" d="M396.61,65.49a72,72,0,0,0-.46,8.09c0,2.16.11,4.3.3,6.42h1.07a50.08,50.08,0,0,0,7-1.54A106.76,106.76,0,0,0,396.61,65.49Z"/><path class="cls-3" d="M930.86,52.4a43.56,43.56,0,0,0,6.7,9.9,128.3,128.3,0,0,1,28.25,12.36,118.86,118.86,0,0,1,20.77-18.79,124.16,124.16,0,0,0-38.9-29.76,22.49,22.49,0,0,1,.35,3.95A23.11,23.11,0,0,1,930.86,52.4Z"/><path class="cls-5" d="M930.86,52.4a43.56,43.56,0,0,0,6.7,9.9,128.3,128.3,0,0,1,28.25,12.36,118.86,118.86,0,0,1,20.77-18.79,124.16,124.16,0,0,0-38.9-29.76,22.49,22.49,0,0,1,.35,3.95A23.11,23.11,0,0,1,930.86,52.4Z"/><path class="cls-2" d="M145.37,34.66a23.17,23.17,0,0,0-1.75-14.47c-.08,1-.13,1.93-.13,2.91A36.51,36.51,0,0,0,145.37,34.66Z"/><path class="cls-5" d="M145.37,34.66a23.17,23.17,0,0,0-1.75-14.47c-.08,1-.13,1.93-.13,2.91A36.51,36.51,0,0,0,145.37,34.66Z"/><path class="cls-3" d="M166.4,57h0a22.78,22.78,0,0,1,7.68,2.14,35.59,35.59,0,0,0,5,.46,61.85,61.85,0,0,1,36.31-27.33,36.92,36.92,0,0,0,1.16-9.17c0-.38,0-.75,0-1.13-2.17-.12-4.36-.19-6.56-.19a115.08,115.08,0,0,0-61.5,17.7A84.2,84.2,0,0,1,166.4,57Z"/><path class="cls-5" d="M166.4,57h0a22.78,22.78,0,0,1,7.68,2.14,35.59,35.59,0,0,0,5,.46,61.85,61.85,0,0,1,36.31-27.33,36.92,36.92,0,0,0,1.16-9.17c0-.38,0-.75,0-1.13-2.17-.12-4.36-.19-6.56-.19a115.08,115.08,0,0,0-61.5,17.7A84.2,84.2,0,0,1,166.4,57Z"/><path class="cls-2" d="M215.38,32.27A61.85,61.85,0,0,0,179.07,59.6l.94,0A36.55,36.55,0,0,0,215.38,32.27Z"/><path class="cls-3" d="M215.38,32.27A61.85,61.85,0,0,0,179.07,59.6l.94,0A36.55,36.55,0,0,0,215.38,32.27Z"/><path class="cls-5" d="M215.38,32.27A61.85,61.85,0,0,0,179.07,59.6l.94,0A36.55,36.55,0,0,0,215.38,32.27Z"/><path class="cls-4" d="M148.45,39.48c-.55-.39-1.09-.79-1.64-1.16.26.56.53,1.12.82,1.67C147.9,39.81,148.18,39.65,148.45,39.48Z"/><path class="cls-5" d="M148.45,39.48c-.55-.39-1.09-.79-1.64-1.16.26.56.53,1.12.82,1.67C147.9,39.81,148.18,39.65,148.45,39.48Z"/><path class="cls-3" d="M166.4,57a84.2,84.2,0,0,0-18-17.51c-.27.17-.55.33-.82.51A36.59,36.59,0,0,0,166.4,57Z"/><path class="cls-4" d="M166.4,57a84.2,84.2,0,0,0-18-17.51c-.27.17-.55.33-.82.51A36.59,36.59,0,0,0,166.4,57Z"/><path class="cls-5" d="M166.4,57a84.2,84.2,0,0,0-18-17.51c-.27.17-.55.33-.82.51A36.59,36.59,0,0,0,166.4,57Z"/><path class="cls-4" d="M1451.61,38.9A16.72,16.72,0,0,1,1468.3,23a16.92,16.92,0,0,1,4.53.64,22.91,22.91,0,0,1,2.32-5.34,43.59,43.59,0,0,0-2.27-9.85,60.68,60.68,0,0,0-33.65,24.84q5.52,3.09,10.75,6.61Z"/><path class="cls-5" d="M1451.61,38.9A16.72,16.72,0,0,1,1468.3,23a16.92,16.92,0,0,1,4.53.64,22.91,22.91,0,0,1,2.32-5.34,43.59,43.59,0,0,0-2.27-9.85,60.68,60.68,0,0,0-33.65,24.84q5.52,3.09,10.75,6.61Z"/><path class="cls-2" d="M1475.42,23.1a45.39,45.39,0,0,0-.27-4.83,22.91,22.91,0,0,0-2.32,5.34,16.51,16.51,0,0,1,2.55.95C1475.4,24.08,1475.42,23.59,1475.42,23.1Z"/><path class="cls-4" d="M1475.42,23.1a45.39,45.39,0,0,0-.27-4.83,22.91,22.91,0,0,0-2.32,5.34,16.51,16.51,0,0,1,2.55.95C1475.4,24.08,1475.42,23.59,1475.42,23.1Z"/><path class="cls-5" d="M1475.42,23.1a45.39,45.39,0,0,0-.27-4.83,22.91,22.91,0,0,0-2.32,5.34,16.51,16.51,0,0,1,2.55.95C1475.4,24.08,1475.42,23.59,1475.42,23.1Z"/><path class="cls-3" d="M1451.57,39.7c0-.27,0-.53,0-.8l-1.63,1,1.66,1.15C1451.6,40.58,1451.57,40.15,1451.57,39.7Z"/><path class="cls-4" d="M1451.57,39.7c0-.27,0-.53,0-.8l-1.63,1,1.66,1.15C1451.6,40.58,1451.57,40.15,1451.57,39.7Z"/><path class="cls-5" d="M1451.57,39.7c0-.27,0-.53,0-.8l-1.63,1,1.66,1.15C1451.6,40.58,1451.57,40.15,1451.57,39.7Z"/><path class="cls-3" d="M1472.83,23.61a16.92,16.92,0,0,0-4.53-.64,16.72,16.72,0,0,0-16.69,15.93,98.06,98.06,0,0,1,20.31-9A23.09,23.09,0,0,1,1472.83,23.61Z"/><path class="cls-4" d="M1472.83,23.61a16.92,16.92,0,0,0-4.53-.64,16.72,16.72,0,0,0-16.69,15.93,98.06,98.06,0,0,1,20.31-9A23.09,23.09,0,0,1,1472.83,23.61Z"/><path class="cls-5" d="M1472.83,23.61a16.92,16.92,0,0,0-4.53-.64,16.72,16.72,0,0,0-16.69,15.93,98.06,98.06,0,0,1,20.31-9A23.09,23.09,0,0,1,1472.83,23.61Z"/><path class="cls-2" d="M1475,29a43.49,43.49,0,0,0,.37-4.46,16.51,16.51,0,0,0-2.55-.95,23.09,23.09,0,0,0-.91,6.32C1472.94,29.61,1474,29.31,1475,29Z"/><path class="cls-3" d="M1475,29a43.49,43.49,0,0,0,.37-4.46,16.51,16.51,0,0,0-2.55-.95,23.09,23.09,0,0,0-.91,6.32C1472.94,29.61,1474,29.31,1475,29Z"/><path class="cls-4" d="M1475,29a43.49,43.49,0,0,0,.37-4.46,16.51,16.51,0,0,0-2.55-.95,23.09,23.09,0,0,0-.91,6.32C1472.94,29.61,1474,29.31,1475,29Z"/><path class="cls-5" d="M1475,29a43.49,43.49,0,0,0,.37-4.46,16.51,16.51,0,0,0-2.55-.95,23.09,23.09,0,0,0-.91,6.32C1472.94,29.61,1474,29.31,1475,29Z"/><path class="cls-3" d="M1451.64,41A153.66,153.66,0,0,1,1465,51.37a43.51,43.51,0,0,0,8.09-14.13,23,23,0,0,1-1.15-7.18s0-.09,0-.13a98.06,98.06,0,0,0-20.31,9c0,.27,0,.53,0,.8C1451.57,40.15,1451.6,40.58,1451.64,41Z"/><path class="cls-3" d="M1451.64,41A153.66,153.66,0,0,1,1465,51.37a43.51,43.51,0,0,0,8.09-14.13,23,23,0,0,1-1.15-7.18s0-.09,0-.13a98.06,98.06,0,0,0-20.31,9c0,.27,0,.53,0,.8C1451.57,40.15,1451.6,40.58,1451.64,41Z"/><path class="cls-4" d="M1451.64,41A153.66,153.66,0,0,1,1465,51.37a43.51,43.51,0,0,0,8.09-14.13,23,23,0,0,1-1.15-7.18s0-.09,0-.13a98.06,98.06,0,0,0-20.31,9c0,.27,0,.53,0,.8C1451.57,40.15,1451.6,40.58,1451.64,41Z"/><path class="cls-5" d="M1451.64,41A153.66,153.66,0,0,1,1465,51.37a43.51,43.51,0,0,0,8.09-14.13,23,23,0,0,1-1.15-7.18s0-.09,0-.13a98.06,98.06,0,0,0-20.31,9c0,.27,0,.53,0,.8C1451.57,40.15,1451.6,40.58,1451.64,41Z"/><path class="cls-2" d="M1471.92,29.93s0,.09,0,.13a23,23,0,0,0,1.15,7.18,43.78,43.78,0,0,0,2-8.22C1474,29.31,1472.94,29.61,1471.92,29.93Z"/><path class="cls-3" d="M1471.92,29.93s0,.09,0,.13a23,23,0,0,0,1.15,7.18,43.78,43.78,0,0,0,2-8.22C1474,29.31,1472.94,29.61,1471.92,29.93Z"/><path class="cls-3" d="M1471.92,29.93s0,.09,0,.13a23,23,0,0,0,1.15,7.18,43.78,43.78,0,0,0,2-8.22C1474,29.31,1472.94,29.61,1471.92,29.93Z"/><path class="cls-4" d="M1471.92,29.93s0,.09,0,.13a23,23,0,0,0,1.15,7.18,43.78,43.78,0,0,0,2-8.22C1474,29.31,1472.94,29.61,1471.92,29.93Z"/><path class="cls-5" d="M1471.92,29.93s0,.09,0,.13a23,23,0,0,0,1.15,7.18,43.78,43.78,0,0,0,2-8.22C1474,29.31,1472.94,29.61,1471.92,29.93Z"/><path class="cls-4" d="M1845.66,28.24a115.37,115.37,0,0,1,38.17-6.46h.55a43,43,0,0,0,1.39-8.07,71.78,71.78,0,0,0-35.51-9.35c-1.76,0-3.51.09-5.25.21a16.69,16.69,0,0,1,.65,23.66Z"/><path class="cls-5" d="M1845.66,28.24a115.37,115.37,0,0,1,38.17-6.46h.55a43,43,0,0,0,1.39-8.07,71.78,71.78,0,0,0-35.51-9.35c-1.76,0-3.51.09-5.25.21a16.69,16.69,0,0,1,.65,23.66Z"/><path class="cls-4" d="M1814.66,40c2.2,0,4.4.06,6.58.16a117.19,117.19,0,0,1,11.94-6.72,16.69,16.69,0,0,1-15.76-21.16,72.27,72.27,0,0,0-16.37,11.5,43.41,43.41,0,0,0,9.63,16.28C1812,40,1813.33,40,1814.66,40Z"/><path class="cls-5" d="M1814.66,40c2.2,0,4.4.06,6.58.16a117.19,117.19,0,0,1,11.94-6.72,16.69,16.69,0,0,1-15.76-21.16,72.27,72.27,0,0,0-16.37,11.5,43.41,43.41,0,0,0,9.63,16.28C1812,40,1813.33,40,1814.66,40Z"/><path class="cls-2" d="M1814.66,40c-1.33,0-2.66,0-4,.06a42.76,42.76,0,0,0,4.58,4.24q2.92-2.16,6-4.14C1819.06,40.06,1816.86,40,1814.66,40Z"/><path class="cls-4" d="M1814.66,40c-1.33,0-2.66,0-4,.06a42.76,42.76,0,0,0,4.58,4.24q2.92-2.16,6-4.14C1819.06,40.06,1816.86,40,1814.66,40Z"/><path class="cls-5" d="M1814.66,40c-1.33,0-2.66,0-4,.06a42.76,42.76,0,0,0,4.58,4.24q2.92-2.16,6-4.14C1819.06,40.06,1816.86,40,1814.66,40Z"/><path class="cls-3" d="M1864.16,48c0-.44-.06-.88-.06-1.32A19.71,19.71,0,0,1,1882.6,27a44.55,44.55,0,0,0,1.78-5.22h-.55a115.37,115.37,0,0,0-38.17,6.46,16.68,16.68,0,0,1-12.13,5.22l-.35,0a117.19,117.19,0,0,0-11.94,6.72,133.38,133.38,0,0,1,41.37,8.7C1863.14,48.58,1863.65,48.29,1864.16,48Z"/><path class="cls-4" d="M1864.16,48c0-.44-.06-.88-.06-1.32A19.71,19.71,0,0,1,1882.6,27a44.55,44.55,0,0,0,1.78-5.22h-.55a115.37,115.37,0,0,0-38.17,6.46,16.68,16.68,0,0,1-12.13,5.22l-.35,0a117.19,117.19,0,0,0-11.94,6.72,133.38,133.38,0,0,1,41.37,8.7C1863.14,48.58,1863.65,48.29,1864.16,48Z"/><path class="cls-5" d="M1864.16,48c0-.44-.06-.88-.06-1.32A19.71,19.71,0,0,1,1882.6,27a44.55,44.55,0,0,0,1.78-5.22h-.55a115.37,115.37,0,0,0-38.17,6.46,16.68,16.68,0,0,1-12.13,5.22l-.35,0a117.19,117.19,0,0,0-11.94,6.72,133.38,133.38,0,0,1,41.37,8.7C1863.14,48.58,1863.65,48.29,1864.16,48Z"/><path class="cls-2" d="M1862.61,48.86a133.38,133.38,0,0,0-41.37-8.7q-3.06,2-6,4.14a43.48,43.48,0,0,0,47.35,4.56Z"/><path class="cls-3" d="M1862.61,48.86a133.38,133.38,0,0,0-41.37-8.7q-3.06,2-6,4.14a43.48,43.48,0,0,0,47.35,4.56Z"/><path class="cls-4" d="M1862.61,48.86a133.38,133.38,0,0,0-41.37-8.7q-3.06,2-6,4.14a43.48,43.48,0,0,0,47.35,4.56Z"/><path class="cls-5" d="M1862.61,48.86a133.38,133.38,0,0,0-41.37-8.7q-3.06,2-6,4.14a43.48,43.48,0,0,0,47.35,4.56Z"/><path class="cls-3" d="M1864.1,46.68c0,.44,0,.88.06,1.32a43.64,43.64,0,0,0,18.44-21A19.71,19.71,0,0,0,1864.1,46.68Z"/><path class="cls-3" d="M1864.1,46.68c0,.44,0,.88.06,1.32a43.64,43.64,0,0,0,18.44-21A19.71,19.71,0,0,0,1864.1,46.68Z"/><path class="cls-4" d="M1864.1,46.68c0,.44,0,.88.06,1.32a43.64,43.64,0,0,0,18.44-21A19.71,19.71,0,0,0,1864.1,46.68Z"/><path class="cls-5" d="M1864.1,46.68c0,.44,0,.88.06,1.32a43.64,43.64,0,0,0,18.44-21A19.71,19.71,0,0,0,1864.1,46.68Z"/><path class="cls-5" d="M1270.34,16.56A23.12,23.12,0,0,0,1228.46,30a50.34,50.34,0,0,1,34.86-14A50.88,50.88,0,0,1,1270.34,16.56Z"/><path class="cls-5" d="M1270.34,16.56A23.12,23.12,0,0,0,1228.46,30a50.34,50.34,0,0,1,34.86-14A50.88,50.88,0,0,1,1270.34,16.56Z"/><path class="cls-5" d="M320.37,21A19.73,19.73,0,0,0,281,23.1c0,.42,0,.82.06,1.23a106.43,106.43,0,0,1,28.46-3.85A107.72,107.72,0,0,1,320.37,21Z"/><path class="cls-3" d="M300.75,42.83A19.73,19.73,0,0,0,320.48,23.1a20.2,20.2,0,0,0-.11-2.07,107.72,107.72,0,0,0-10.83-.55,106.43,106.43,0,0,0-28.46,3.85A19.71,19.71,0,0,0,300.75,42.83Z"/><path class="cls-5" d="M300.75,42.83A19.73,19.73,0,0,0,320.48,23.1a20.2,20.2,0,0,0-.11-2.07,107.72,107.72,0,0,0-10.83-.55,106.43,106.43,0,0,0-28.46,3.85A19.71,19.71,0,0,0,300.75,42.83Z"/><path class="cls-5" d="M934.18,8.89a23.11,23.11,0,0,0-26.32,5.57A122.48,122.48,0,0,1,929,18.82,43.11,43.11,0,0,1,934.18,8.89Z"/><path class="cls-3" d="M924.91,53.18a22.9,22.9,0,0,0,6-.78A43.21,43.21,0,0,1,929,18.82a122.48,122.48,0,0,0-21.17-4.36,23.11,23.11,0,0,0,17,38.72Z"/><path class="cls-5" d="M924.91,53.18a22.9,22.9,0,0,0,6-.78A43.21,43.21,0,0,1,929,18.82a122.48,122.48,0,0,0-21.17-4.36,23.11,23.11,0,0,0,17,38.72Z"/><path class="cls-5" d="M947.68,26.11a23.11,23.11,0,0,0-13.5-17.22A43.11,43.11,0,0,0,929,18.82,123.33,123.33,0,0,1,947.68,26.11Z"/><path class="cls-5" d="M947.68,26.11a23.11,23.11,0,0,0-13.5-17.22A43.11,43.11,0,0,0,929,18.82,123.33,123.33,0,0,1,947.68,26.11Z"/><path class="cls-3" d="M926.48,33.46a42.91,42.91,0,0,0,4.38,18.94A23.11,23.11,0,0,0,948,30.06a22.49,22.49,0,0,0-.35-3.95A123.33,123.33,0,0,0,929,18.82,43,43,0,0,0,926.48,33.46Z"/><path class="cls-5" d="M926.48,33.46a42.91,42.91,0,0,0,4.38,18.94A23.11,23.11,0,0,0,948,30.06a22.49,22.49,0,0,0-.35-3.95A123.33,123.33,0,0,0,929,18.82,43,43,0,0,0,926.48,33.46Z"/><path class="cls-5" d="M926.48,33.46a42.91,42.91,0,0,0,4.38,18.94A23.11,23.11,0,0,0,948,30.06a22.49,22.49,0,0,0-.35-3.95A123.33,123.33,0,0,0,929,18.82,43,43,0,0,0,926.48,33.46Z"/><path class="cls-5" d="M1833.53,0a16.72,16.72,0,0,0-16.11,12.28A71.72,71.72,0,0,1,1845,4.58,16.66,16.66,0,0,0,1833.53,0Z"/><path class="cls-5" d="M1833.53,0a16.72,16.72,0,0,0-16.11,12.28A71.72,71.72,0,0,1,1845,4.58,16.66,16.66,0,0,0,1833.53,0Z"/><path class="cls-4" d="M1833.18,33.44a113.09,113.09,0,0,1,12.48-5.2A16.69,16.69,0,0,0,1845,4.58a71.72,71.72,0,0,0-27.59,7.7,16.69,16.69,0,0,0,15.76,21.16Z"/><path class="cls-5" d="M1833.18,33.44a113.09,113.09,0,0,1,12.48-5.2A16.69,16.69,0,0,0,1845,4.58a71.72,71.72,0,0,0-27.59,7.7,16.69,16.69,0,0,0,15.76,21.16Z"/><path class="cls-5" d="M1833.18,33.44a113.09,113.09,0,0,1,12.48-5.2A16.69,16.69,0,0,0,1845,4.58a71.72,71.72,0,0,0-27.59,7.7,16.69,16.69,0,0,0,15.76,21.16Z"/><path class="cls-3" d="M1845.66,28.24a113.09,113.09,0,0,0-12.48,5.2l.35,0A16.68,16.68,0,0,0,1845.66,28.24Z"/><path class="cls-4" d="M1845.66,28.24a113.09,113.09,0,0,0-12.48,5.2l.35,0A16.68,16.68,0,0,0,1845.66,28.24Z"/><path class="cls-5" d="M1845.66,28.24a113.09,113.09,0,0,0-12.48,5.2l.35,0A16.68,16.68,0,0,0,1845.66,28.24Z"/><path class="cls-5" d="M1845.66,28.24a113.09,113.09,0,0,0-12.48,5.2l.35,0A16.68,16.68,0,0,0,1845.66,28.24Z"/><path class="cls-5" d="M1563.23,3.18a19.91,19.91,0,0,0-13.8,34.27,106.35,106.35,0,0,1,32.85-20.17A19.92,19.92,0,0,0,1563.23,3.18Z"/><path class="cls-3" d="M1554.72,41.1a19.88,19.88,0,0,0,28.43-18,19.61,19.61,0,0,0-.87-5.82,106.35,106.35,0,0,0-32.85,20.17,18.82,18.82,0,0,0,1.66,1.42C1552.32,39.59,1553.53,40.33,1554.72,41.1Z"/><path class="cls-5" d="M1554.72,41.1a19.88,19.88,0,0,0,28.43-18,19.61,19.61,0,0,0-.87-5.82,106.35,106.35,0,0,0-32.85,20.17,18.82,18.82,0,0,0,1.66,1.42C1552.32,39.59,1553.53,40.33,1554.72,41.1Z"/><path class="cls-3" d="M1554.72,41.1c-1.19-.77-2.4-1.51-3.63-2.23A20.09,20.09,0,0,0,1554.72,41.1Z"/><path class="cls-3" d="M1554.72,41.1c-1.19-.77-2.4-1.51-3.63-2.23A20.09,20.09,0,0,0,1554.72,41.1Z"/><path class="cls-5" d="M1554.72,41.1c-1.19-.77-2.4-1.51-3.63-2.23A20.09,20.09,0,0,0,1554.72,41.1Z"/><path class="cls-4" d="M487.44,25.18a20.39,20.39,0,0,0,.11-2.08,19.93,19.93,0,1,0-39.05,5.55,123.88,123.88,0,0,1,30.41-3.77C481.77,24.88,484.62,25,487.44,25.18Z"/><path class="cls-5" d="M487.44,25.18a20.39,20.39,0,0,0,.11-2.08,19.93,19.93,0,1,0-39.05,5.55,123.88,123.88,0,0,1,30.41-3.77C481.77,24.88,484.62,25,487.44,25.18Z"/><path class="cls-3" d="M467.62,43a19.93,19.93,0,0,0,19.82-17.85c-2.82-.19-5.67-.3-8.53-.3a123.88,123.88,0,0,0-30.41,3.77A19.92,19.92,0,0,0,467.62,43Z"/><path class="cls-4" d="M467.62,43a19.93,19.93,0,0,0,19.82-17.85c-2.82-.19-5.67-.3-8.53-.3a123.88,123.88,0,0,0-30.41,3.77A19.92,19.92,0,0,0,467.62,43Z"/><path class="cls-5" d="M467.62,43a19.93,19.93,0,0,0,19.82-17.85c-2.82-.19-5.67-.3-8.53-.3a123.88,123.88,0,0,0-30.41,3.77A19.92,19.92,0,0,0,467.62,43Z"/><path class="cls-5" d="M1228.46,30.06v0c-.92.87-1.81,1.77-2.66,2.72,1.13.82,2.22,1.68,3.27,2.59A23.48,23.48,0,0,1,1228.46,30.06Z"/><path class="cls-3" d="M1228.46,30.06v0c-.92.87-1.81,1.77-2.66,2.72,1.13.82,2.22,1.68,3.27,2.59A23.48,23.48,0,0,1,1228.46,30.06Z"/><path class="cls-5" d="M1251.58,53.18a23,23,0,0,1-10.44-2.49,50.12,50.12,0,0,1,5.19,17.25,154.78,154.78,0,0,1,50.58-39.09,50.39,50.39,0,0,0-26.57-12.29,23.11,23.11,0,0,1-18.76,36.62Z"/><path class="cls-3" d="M1251.58,53.18a23,23,0,0,1-10.44-2.49,50.12,50.12,0,0,1,5.19,17.25,154.78,154.78,0,0,1,50.58-39.09,50.39,50.39,0,0,0-26.57-12.29,23.11,23.11,0,0,1-18.76,36.62Z"/><path class="cls-5" d="M1229.07,35.34a50.72,50.72,0,0,1,12.07,15.35,23.11,23.11,0,0,0,29.2-34.13,50.88,50.88,0,0,0-7-.5,50.34,50.34,0,0,0-34.86,14v0A23.48,23.48,0,0,0,1229.07,35.34Z"/><path class="cls-5" d="M1229.07,35.34a50.72,50.72,0,0,1,12.07,15.35,23.11,23.11,0,0,0,29.2-34.13,50.88,50.88,0,0,0-7-.5,50.34,50.34,0,0,0-34.86,14v0A23.48,23.48,0,0,0,1229.07,35.34Z"/><path class="cls-3" d="M1229.07,35.34a50.72,50.72,0,0,1,12.07,15.35,23.11,23.11,0,0,0,29.2-34.13,50.88,50.88,0,0,0-7-.5,50.34,50.34,0,0,0-34.86,14v0A23.48,23.48,0,0,0,1229.07,35.34Z"/><path class="cls-2" d="M1213.3,59.37a50.3,50.3,0,0,1-15.39-36.22c-.59,0-1.19,0-1.79,0a50.28,50.28,0,0,0-30.48,10.23A83.86,83.86,0,0,1,1199.84,80h14.75a50.51,50.51,0,0,1-1.29-20.63Z"/><path class="cls-2" d="M1165.64,33.33a51.59,51.59,0,0,0-5.29,4.6A89.82,89.82,0,0,1,1189.16,80h10.68A83.86,83.86,0,0,0,1165.64,33.33Z"/><path class="cls-2" d="M1160.35,37.93a51.19,51.19,0,0,0-6.83,8.54,19.89,19.89,0,0,1-6.76,31.31q.9,1.09,1.77,2.22h40.63A89.82,89.82,0,0,0,1160.35,37.93Z"/><path class="cls-2" d="M1145.66,76.45c.37.44.74.88,1.1,1.33a19.89,19.89,0,0,0,6.76-31.31,50.24,50.24,0,0,0-7.94,27.17C1145.58,74.58,1145.61,75.52,1145.66,76.45Z"/><path class="cls-2" d="M1225.8,32.75a50.16,50.16,0,0,0-27.89-9.6,50.3,50.3,0,0,0,15.39,36.22A50.34,50.34,0,0,1,1225.8,32.75Z"/><path class="cls-2" d="M1242.06,73.17a50.31,50.31,0,0,1-28.76-13.8A50.51,50.51,0,0,0,1214.59,80H1237C1238.65,77.68,1240.33,75.4,1242.06,73.17Z"/><path class="cls-2" d="M1242.06,73.17q2.09-2.67,4.27-5.23a50.12,50.12,0,0,0-5.19-17.25,23.18,23.18,0,0,1-12.07-15.35c-1-.91-2.14-1.77-3.27-2.59a50.34,50.34,0,0,0-12.5,26.62A50.31,50.31,0,0,0,1242.06,73.17Z"/><path class="cls-2" d="M1229.07,35.34a23.18,23.18,0,0,0,12.07,15.35A50.72,50.72,0,0,0,1229.07,35.34Z"/><path class="cls-2" d="M174.2,69.46a61.15,61.15,0,0,1,3.77-8,23,23,0,0,0-3.88-2.35A36.52,36.52,0,0,1,166.41,57h0A82.93,82.93,0,0,1,174.2,69.46Z"/><path class="cls-2" d="M178.7,80h8.54A23.08,23.08,0,0,0,178,61.49a61.15,61.15,0,0,0-3.77,8A83.25,83.25,0,0,1,178.7,80Z"/><path class="cls-2" d="M166.4,57a21.48,21.48,0,0,0-2.28-.12,23.07,23.07,0,0,0-18.49,9.24,23,23,0,0,1-2,6.86q6.57,3.24,12.8,7h14.75a61,61,0,0,1,3-10.54A82.93,82.93,0,0,0,166.4,57Z"/><path class="cls-2" d="M171.17,80h7.53a83.25,83.25,0,0,0-4.5-10.54A61,61,0,0,0,171.17,80Z"/><path class="cls-2" d="M142.92,72.63l.7.35a23,23,0,0,0,2-6.86,22.86,22.86,0,0,0-3.17,5.78C142.62,72.14,142.77,72.39,142.92,72.63Z"/><path class="cls-2" d="M142.46,71.9l-.15.43.61.3C142.77,72.39,142.62,72.14,142.46,71.9Z"/><path class="cls-2" d="M166.41,57a36.52,36.52,0,0,0,7.68,2.14A22.78,22.78,0,0,0,166.41,57Z"/><path class="cls-2" d="M293.26,57.22a115.63,115.63,0,0,1,12.87,16,134.77,134.77,0,0,1,19.53-16.11,23.11,23.11,0,0,0-32.4.14Z"/><path class="cls-2" d="M325.66,57.08a134.77,134.77,0,0,0-19.53,16.11q2.24,3.33,4.23,6.81h21.4a23,23,0,0,0-6.1-22.92Z"/><path class="cls-2" d="M287.75,65.92A61.48,61.48,0,0,1,292.29,80h7.48q3.06-3.51,6.36-6.81a115.63,115.63,0,0,0-12.87-16A23.19,23.19,0,0,0,287.75,65.92Z"/><path class="cls-2" d="M310.36,80q-2-3.48-4.23-6.81-3.3,3.3-6.36,6.81Z"/><path class="cls-2" d="M287.75,65.92a22.93,22.93,0,0,0-1.33,7.72,23.37,23.37,0,0,0,.89,6.36h5A61.48,61.48,0,0,0,287.75,65.92Z"/><path class="cls-2" d="M995.73,67.67A124.62,124.62,0,0,1,1003.14,80h15.4a89.79,89.79,0,0,1,33.83-45.87,117.94,117.94,0,0,0-40.63,8.12A43.07,43.07,0,0,1,995.73,67.67Z"/><path class="cls-2" d="M969.56,76.54l-.7,0q2.67,1.68,5.25,3.48h29a124.62,124.62,0,0,0-7.41-12.33A42.9,42.9,0,0,1,969.56,76.54Z"/><path class="cls-2" d="M1018.54,80h20.33a83.89,83.89,0,0,1,31.64-44.89,120.45,120.45,0,0,0-15.53-1q-1.31,0-2.61,0A89.79,89.79,0,0,0,1018.54,80Z"/><path class="cls-2" d="M1138.58,79.55a19.92,19.92,0,0,1-19.92-19.92,19.67,19.67,0,0,1,1-6.27,117.55,117.55,0,0,0-49.17-18.25A83.89,83.89,0,0,0,1038.87,80H1146c-.07-.6-.14-1.21-.2-1.82A19.84,19.84,0,0,1,1138.58,79.55Z"/><path class="cls-2" d="M1138.58,79.55a19.84,19.84,0,0,0,7.21-1.37c0-.58-.1-1.15-.13-1.73a118.65,118.65,0,0,0-26-23.09,19.67,19.67,0,0,0-1,6.27A19.92,19.92,0,0,0,1138.58,79.55Z"/><path class="cls-2" d="M1011.74,42.25a118.38,118.38,0,0,0-25.16,13.62,124.73,124.73,0,0,1,9.15,11.8A43.07,43.07,0,0,0,1011.74,42.25Z"/><path class="cls-2" d="M965.81,74.66c1,.61,2.05,1.23,3.05,1.86l.7,0a42.9,42.9,0,0,0,26.17-8.87,124.73,124.73,0,0,0-9.15-11.8A118.86,118.86,0,0,0,965.81,74.66Z"/><path class="cls-2" d="M1146,80h2.54q-.87-1.12-1.77-2.22l-1,.4C1145.85,78.79,1145.92,79.4,1146,80Z"/><path class="cls-2" d="M1145.79,78.18l1-.4c-.36-.45-.73-.89-1.1-1.33C1145.69,77,1145.74,77.6,1145.79,78.18Z"/><path class="cls-2" d="M1900.77,23A114.81,114.81,0,0,1,1920,27.56V.76A123.49,123.49,0,0,0,1900.77,23Z"/><path class="cls-2" d="M1900,24.24a72.17,72.17,0,0,1,20,33.7V27.56A114.81,114.81,0,0,0,1900.77,23C1900.5,23.42,1900.23,23.83,1900,24.24Z"/><path class="cls-2" d="M1900,24.24q-2.19,3.32-4.16,6.78A19.7,19.7,0,0,1,1892,64.61,134.71,134.71,0,0,1,1910.09,80H1920V57.94A72.17,72.17,0,0,0,1900,24.24Z"/><path class="cls-2" d="M1882.44,66.34A122.85,122.85,0,0,0,1880.37,80h29.72A134.71,134.71,0,0,0,1892,64.61a19.71,19.71,0,0,1-8.2,1.8C1883.36,66.41,1882.9,66.37,1882.44,66.34Z"/><path class="cls-2" d="M1892,64.61A19.7,19.7,0,0,0,1895.81,31a122.41,122.41,0,0,0-11.7,28.38Q1888.16,61.88,1892,64.61Z"/><path class="cls-2" d="M1882.44,66.34c.46,0,.92.07,1.39.07a19.71,19.71,0,0,0,8.2-1.8q-3.87-2.73-7.92-5.21Q1883.18,62.83,1882.44,66.34Z"/><path class="cls-2" d="M792.83,65.22a152.21,152.21,0,0,0-20.11-5.94A106.43,106.43,0,0,1,785.9,76,124.73,124.73,0,0,1,792.83,65.22Z"/><path class="cls-2" d="M771.83,59.09a155.18,155.18,0,0,0-57.56-1.49A83.35,83.35,0,0,1,724.48,80h50.38a23.14,23.14,0,0,1-3-20.91Z"/><path class="cls-2" d="M659.28,77.84c.26.71.5,1.44.74,2.16h64.46a83.35,83.35,0,0,0-10.21-22.4A153.31,153.31,0,0,0,659.28,77.84Z"/><path class="cls-2" d="M785.9,76a106.43,106.43,0,0,0-13.18-16.7l-.89-.19a23.14,23.14,0,0,0,3,20.91h8.84Q784.76,78,785.9,76Z"/><path class="cls-2" d="M822.42,80c-2.42-1.56-4.89-3-7.4-4.46A23.38,23.38,0,0,1,812.53,80Z"/><path class="cls-2" d="M788.34,80h24.19A23.38,23.38,0,0,0,815,75.54a153.39,153.39,0,0,0-22.19-10.32A124.73,124.73,0,0,0,785.9,76Q787.16,78,788.34,80Z"/><path class="cls-2" d="M783.7,80h4.64q-1.19-2-2.44-4Q784.76,78,783.7,80Z"/><path class="cls-2" d="M1739.63,80h17c-5.79-3.85-11.76-7.47-17.9-10.81A71.23,71.23,0,0,1,1739.63,80Z"/><path class="cls-2" d="M1563.7,47.61a99.25,99.25,0,0,1,26,32.39h5.64a71.81,71.81,0,0,1,12.06-39.42A239.79,239.79,0,0,0,1563.7,47.61Z"/><path class="cls-2" d="M1563.7,47.61q-7.64,2-15,4.44a60.46,60.46,0,0,1,.26,28h40.77A99.25,99.25,0,0,0,1563.7,47.61Z"/><path class="cls-2" d="M1520.53,80a106,106,0,0,1,10.83-21.51q-10.74,4.5-20.94,10A19.81,19.81,0,0,1,1505.31,80Z"/><path class="cls-2" d="M1505.31,80a19.81,19.81,0,0,0,5.11-11.53q-9.9,5.32-19.24,11.53Z"/><path class="cls-2" d="M1548.65,52.05q-8.81,2.89-17.29,6.44A106,106,0,0,0,1520.53,80h28.38a60.46,60.46,0,0,0-.26-27.95Z"/><path class="cls-2" d="M1720.43,78.79a134,134,0,0,1,13.85-12A239.46,239.46,0,0,0,1707.7,55,106.8,106.8,0,0,1,1720.43,78.79Z"/><path class="cls-2" d="M1734.28,66.81a134,134,0,0,0-13.85,12c.15.4.31.8.46,1.21h18.74a71.23,71.23,0,0,0-.88-10.81Q1736.53,68,1734.28,66.81Z"/><path class="cls-2" d="M1658.08,42.43A242,242,0,0,0,1623.92,40c-5.56,0-11.07.21-16.54.58A71.81,71.81,0,0,0,1595.32,80h30.42A100.14,100.14,0,0,1,1658.08,42.43Z"/><path class="cls-2" d="M1625.74,80h93.48c.4-.41.8-.81,1.21-1.21A106.8,106.8,0,0,0,1707.7,55a238.64,238.64,0,0,0-49.62-12.6A100.14,100.14,0,0,0,1625.74,80Z"/><path class="cls-2" d="M1720.89,80c-.15-.41-.31-.81-.46-1.21-.41.4-.81.8-1.21,1.21Z"/><path class="cls-2" d="M1388.42,23.1a43.2,43.2,0,0,1,.65-7.42,155.3,155.3,0,0,0-25.22-2.07,153.7,153.7,0,0,0-65.24,14.44c-.07.72-.16,1.44-.26,2.15a50.48,50.48,0,0,1,13.7,49.8h101A99.57,99.57,0,0,1,1422,65.45,43.5,43.5,0,0,1,1388.42,23.1Z"/><path class="cls-2" d="M1429.22,66.6s0-.06,0-.09a42.89,42.89,0,0,1-7.22-1.06A99.57,99.57,0,0,0,1413.07,80h17.66A61,61,0,0,1,1429.22,66.6Z"/><path class="cls-2" d="M1470.67,66.6a19.83,19.83,0,0,1,1.81-8.26c-.7-.69-1.39-1.38-2.1-2.05a18,18,0,0,1-2.08.14,16.53,16.53,0,0,1-6.79-1.45,43.35,43.35,0,0,1-29.59,11.62c-.9,0-1.8,0-2.69-.09,0,0,0,.06,0,.09a61,61,0,0,0,1.51,13.4h45.15A19.85,19.85,0,0,1,1470.67,66.6Z"/><path class="cls-2" d="M1461.51,55a16.53,16.53,0,0,0,6.79,1.45,18,18,0,0,0,2.08-.14q-2.66-2.52-5.41-4.92A43.67,43.67,0,0,1,1461.51,55Z"/><path class="cls-2" d="M1472.48,58.34a19.81,19.81,0,0,0,3.4,21.66h14.78A155.1,155.1,0,0,0,1472.48,58.34Z"/><path class="cls-2" d="M1298.61,28.05l-1.7.8q.73.66,1.44,1.35C1298.45,29.49,1298.54,28.77,1298.61,28.05Z"/><path class="cls-2" d="M1422,65.45a101.17,101.17,0,0,1,8.2-9.69,60.2,60.2,0,0,1,9-22.5,153.29,153.29,0,0,0-50.16-17.58A43.41,43.41,0,0,0,1422,65.45Z"/><path class="cls-2" d="M1422,65.45a42.89,42.89,0,0,0,7.22,1.06,60.45,60.45,0,0,1,1-10.75A101.17,101.17,0,0,0,1422,65.45Z"/><path class="cls-2" d="M1450,39.87q-5.22-3.52-10.75-6.61a60.2,60.2,0,0,0-9,22.5A99.47,99.47,0,0,1,1450,39.87Z"/><path class="cls-2" d="M1461.51,55a16.7,16.7,0,0,1-9.87-14L1450,39.87a99.47,99.47,0,0,0-19.77,15.89,60.45,60.45,0,0,0-1,10.75c.89,0,1.79.09,2.69.09A43.35,43.35,0,0,0,1461.51,55Z"/><path class="cls-2" d="M1465,51.37A153.66,153.66,0,0,0,1451.64,41a16.7,16.7,0,0,0,9.87,14A43.67,43.67,0,0,0,1465,51.37Z"/><path class="cls-2" d="M1298.35,30.2a50.48,50.48,0,0,1-50,43.38c-.58,0-1.15,0-1.73,0,0,0,0,.07,0,.11a49.35,49.35,0,0,1-.42,6.36h65.81a50.48,50.48,0,0,0-13.7-49.8Z"/><path class="cls-2" d="M1246.33,67.94a51.63,51.63,0,0,1,.32,5.59c.58,0,1.15,0,1.73,0a50.48,50.48,0,0,0,50-43.38q-.7-.69-1.44-1.35A154.78,154.78,0,0,0,1246.33,67.94Z"/><path class="cls-2" d="M1237,80h9.2a49.35,49.35,0,0,0,.42-6.36s0-.07,0-.11q-2.33-.07-4.59-.36C1240.33,75.4,1238.65,77.68,1237,80Z"/><path class="cls-2" d="M1242.06,73.17q2.26.28,4.59.36a51.63,51.63,0,0,0-.32-5.59Q1244.14,70.51,1242.06,73.17Z"/><path class="cls-2" d="M0,70.29V80H20.48A83.68,83.68,0,0,1,30.63,60,167.94,167.94,0,0,0,0,70.29Z"/><path class="cls-2" d="M99.59,63.12a23,23,0,0,1,.47-4.65A170.13,170.13,0,0,0,30.63,60,83.68,83.68,0,0,0,20.48,80h86.44A23,23,0,0,1,99.59,63.12Z"/><path class="cls-2" d="M138.5,80H141a23.06,23.06,0,0,1,.2-3A23.4,23.4,0,0,1,138.5,80Z"/><path class="cls-2" d="M120.82,63.73a169.09,169.09,0,0,0-20.76-5.26A23.13,23.13,0,0,0,106.92,80h2.62A115.87,115.87,0,0,1,120.82,63.73Z"/><path class="cls-2" d="M142.31,72.33a168,168,0,0,0-21.49-8.6A115.87,115.87,0,0,0,109.54,80h29a23.4,23.4,0,0,0,2.7-3A22.62,22.62,0,0,1,142.31,72.33Z"/><path class="cls-2" d="M143.4,73.44c1.26,2.14,2.45,4.32,3.56,6.56h9.46q-6.22-3.78-12.8-7C143.55,73.14,143.47,73.29,143.4,73.44Z"/><path class="cls-2" d="M143.4,73.44A23.1,23.1,0,0,1,141.2,77a23.06,23.06,0,0,0-.2,3h6C145.85,77.76,144.66,75.58,143.4,73.44Z"/><path class="cls-2" d="M142.92,72.63l.48.81c.07-.15.15-.3.22-.46Z"/><path class="cls-2" d="M142.31,72.33A22.62,22.62,0,0,0,141.2,77a23.1,23.1,0,0,0,2.2-3.55l-.48-.81Z"/><path class="cls-2" d="M569.76,64.58a84,84,0,0,1,41-38.26,88.34,88.34,0,0,0-83.52,7.82l.47.73A124.11,124.11,0,0,1,569.76,64.58Z"/><path class="cls-2" d="M569.76,64.58A125,125,0,0,1,581.93,80h23.14a106.17,106.17,0,0,1,33.07-35.29,88.22,88.22,0,0,0-27.38-18.39A84,84,0,0,0,569.76,64.58Z"/><path class="cls-2" d="M527.71,34.87A71.15,71.15,0,0,1,539.1,73.58c0,2.16-.11,4.3-.3,6.42h24.81a83.36,83.36,0,0,1,6.15-15.42A124.11,124.11,0,0,0,527.71,34.87Z"/><path class="cls-2" d="M569.76,64.58A83.36,83.36,0,0,0,563.61,80h18.32A125,125,0,0,0,569.76,64.58Z"/><path class="cls-2" d="M659.28,77.84a88.11,88.11,0,0,0-21.14-33.13A106.17,106.17,0,0,0,605.07,80h50.75C657,79.26,658.12,78.54,659.28,77.84Z"/><path class="cls-2" d="M527.71,34.87l-.47-.73-.49.33Z"/><path class="cls-2" d="M527.71,34.87l-1-.4A88.49,88.49,0,0,0,495,73q3.41,3.38,6.55,7H538.8c.19-2.12.3-4.26.3-6.42A71.15,71.15,0,0,0,527.71,34.87Z"/><path class="cls-2" d="M492.41,80h9.17q-3.15-3.61-6.55-7Q493.58,76.43,492.41,80Z"/><path class="cls-2" d="M660,80c-.24-.72-.48-1.45-.74-2.16-1.16.7-2.32,1.42-3.46,2.16Z"/><path class="cls-2" d="M827,80h34.67a23.06,23.06,0,0,1-7.22-14.59A128.4,128.4,0,0,0,827,80Z"/><path class="cls-2" d="M937.56,62.3a128.54,128.54,0,0,0-37-5.42h-.85A23.14,23.14,0,0,1,893.2,80h68.23c1-1.28,2-2.53,3.05-3.77A43,43,0,0,1,937.56,62.3Z"/><path class="cls-2" d="M900.53,63.12a23.25,23.25,0,0,0-.85-6.23,128.32,128.32,0,0,0-45.27,8.52A23.06,23.06,0,0,0,861.63,80H893.2A23,23,0,0,0,900.53,63.12Z"/><path class="cls-2" d="M964.48,76.23c.44-.52.88-1,1.33-1.57A128.3,128.3,0,0,0,937.56,62.3,43,43,0,0,0,964.48,76.23Z"/><path class="cls-2" d="M964.48,76.23c-1,1.24-2.06,2.49-3.05,3.77h12.68q-2.58-1.8-5.25-3.48A42.2,42.2,0,0,1,964.48,76.23Z"/><path class="cls-2" d="M968.86,76.52c-1-.63-2-1.25-3.05-1.86-.45.52-.89,1-1.33,1.57A42.2,42.2,0,0,0,968.86,76.52Z"/></svg>