<svg id="SGfB" data-name="SGfB" xmlns="http://www.w3.org/2000/svg" viewBox="0 0 413.51 56.31">
  <defs>
    <style>
      .cls-1 {
        fill: #fa6450;
      }
    </style>
  </defs>
  <path class="cls-1" d="M131.93,9.56h9.28c2.92,0,5.32,.61,7.19,1.82,1.87,1.21,2.8,3.06,2.8,5.53,0,1.29-.27,2.39-.8,3.3-.53,.91-1.24,1.63-2.12,2.18-.88,.54-1.87,.94-2.96,1.19-1.09,.25-2.21,.37-3.37,.37h-10.03V9.56Zm0,21.08h10.03c1.88,0,3.58,.27,5.1,.82,1.52,.54,2.72,1.38,3.6,2.5s1.33,2.55,1.33,4.27c0,2.38-.9,4.2-2.7,5.46s-4.45,1.89-7.94,1.89h-9.42v-14.93Zm9.32,21.52c6.53,0,11.35-1.09,14.47-3.26,3.12-2.18,4.68-5.51,4.68-10,0-1.27-.15-2.5-.44-3.71-.29-1.2-.8-2.33-1.53-3.38-.73-1.05-1.74-1.99-3.04-2.82-1.3-.83-2.95-1.48-4.95-1.95,3.26-1.27,5.54-2.82,6.83-4.66,1.29-1.84,1.94-4.01,1.94-6.53,0-4.15-1.55-7.33-4.64-9.54-3.09-2.21-7.76-3.32-13.99-3.32h-16.9V52.17h17.58ZM107.62,17.01v-4.08c0-1.47,.25-2.56,.75-3.25,.5-.69,1.42-1.04,2.75-1.04h4.9l-.03-5.64h-7.41c-2.95,0-5.2,.76-6.75,2.28-1.55,1.52-2.33,3.68-2.33,6.49v5.24h-6.94v5.85h6.94v29.31h8.26V22.86h7.92v-5.85h-8.06Zm-33.68,34.71c1.85-.75,3.41-1.7,4.69-2.86,1.28-1.16,2.34-2.36,3.18-3.6v6.9h5.85V26.63l-19.62-.07v5.85h10.98l-.31,3.6c-.09,1.04-.39,2.11-.9,3.21-.51,1.1-1.22,2.12-2.14,3.08-.92,.95-2.03,1.72-3.35,2.31-1.32,.59-2.83,.88-4.56,.88s-3.45-.31-5.03-.94c-1.59-.62-2.99-1.63-4.2-3.03-1.21-1.39-2.17-3.24-2.86-5.54-.69-2.3-1.04-5.13-1.04-8.48,0-4.24,.55-7.69,1.65-10.35,1.1-2.66,2.62-4.62,4.56-5.87,1.94-1.25,4.14-1.87,6.61-1.87,1.93,0,3.64,.43,5.15,1.29,1.51,.86,2.74,2,3.71,3.42,.96,1.42,1.6,2.96,1.92,4.64h8.74c-.11-2.13-.67-4.18-1.67-6.15-1-1.97-2.36-3.73-4.1-5.27-1.73-1.54-3.75-2.76-6.05-3.67-2.3-.91-4.81-1.36-7.53-1.36-4.44,0-8.31,1.02-11.61,3.04-3.3,2.03-5.85,4.95-7.67,8.75-1.81,3.81-2.72,8.34-2.72,13.6s.87,9.7,2.62,13.45c1.74,3.75,4.24,6.64,7.48,8.65,3.24,2.02,7.06,3.03,11.46,3.03,2.65,0,4.9-.37,6.75-1.12m-41.75-.7c2.87-1.21,5.09-2.86,6.66-4.95,1.58-2.08,2.36-4.41,2.36-6.97,0-1.31-.15-2.7-.44-4.15-.3-1.45-.88-2.87-1.77-4.27-.88-1.39-2.17-2.63-3.84-3.72-1.68-1.09-3.89-1.9-6.63-2.45l-8.84-1.97c-2.9-.68-4.88-1.51-5.93-2.5-1.05-.99-1.58-2.27-1.58-3.86,0-1.11,.24-2.1,.73-2.97,.49-.87,1.17-1.62,2.06-2.23,.88-.61,1.92-1.08,3.09-1.39,1.18-.32,2.45-.48,3.81-.48,1.81,0,3.47,.25,4.96,.75,1.5,.5,2.73,1.33,3.69,2.48,.96,1.16,1.55,2.71,1.75,4.66h8.36c-.02-2.65-.75-5.09-2.19-7.31-1.44-2.22-3.56-3.99-6.36-5.32-2.8-1.33-6.24-1.99-10.32-1.99-3.49,0-6.62,.61-9.38,1.82-2.77,1.21-4.95,2.92-6.55,5.13-1.6,2.21-2.39,4.8-2.36,7.77,.05,3.58,1.13,6.45,3.26,8.6,2.13,2.15,5.02,3.6,8.67,4.35l9.04,1.97c1.68,.36,3.15,.85,4.4,1.44,1.26,.6,2.24,1.37,2.94,2.3,.7,.93,1.05,2.06,1.05,3.4,0,1.52-.48,2.8-1.44,3.84-.96,1.04-2.27,1.84-3.91,2.38-1.64,.54-3.48,.82-5.52,.82-1.9,0-3.65-.29-5.25-.88-1.6-.59-2.93-1.45-3.99-2.58-1.07-1.13-1.78-2.53-2.14-4.18H2.02c.27,2.38,1.02,4.46,2.24,6.24,1.22,1.78,2.76,3.26,4.61,4.45,1.85,1.19,3.9,2.09,6.17,2.69,2.27,.6,4.59,.9,6.97,.9,3.92,0,7.32-.61,10.18-1.82"></path>
  <path class="cls-1" d="M364.39,48.95c-.23-.19-.34-.45-.34-.79,0-.36,.12-.63,.35-.83,.24-.2,.55-.3,.93-.3s.69,.1,.92,.29c.23,.2,.35,.47,.35,.83s-.12,.62-.35,.8c-.23,.18-.54,.28-.92,.28-.41,0-.72-.1-.95-.29m-.31,4.1c-.32-.15-.48-.37-.48-.66,0-.16,.05-.3,.15-.43,.1-.13,.22-.23,.37-.31,.15-.07,.3-.11,.45-.1l1.52,.1c.33,.02,.57,.1,.74,.24,.16,.14,.25,.31,.25,.52,0,.28-.13,.5-.38,.65s-.63,.22-1.14,.22c-.66,0-1.15-.08-1.47-.23m3.42,.45c.47-.33,.71-.76,.71-1.28,0-.45-.16-.82-.49-1.1-.33-.27-.8-.43-1.43-.47-.26-.02-.49-.03-.7-.04-.21-.01-.38-.02-.52-.03-.38-.03-.65-.06-.81-.09-.16-.04-.25-.11-.25-.21,0-.08,.06-.15,.19-.22,.13-.07,.36-.11,.7-.12,.05,0,.12,.01,.2,.01,.08,0,.15,0,.2,0,.54,0,.99-.08,1.35-.25,.36-.17,.63-.39,.81-.66,.18-.28,.27-.58,.27-.91,0-.11-.02-.23-.05-.36-.03-.13-.07-.25-.12-.36l.99-.18v-1.02c-.08,.04-.2,.08-.34,.14-.14,.06-.29,.12-.45,.18-.15,.06-.3,.12-.43,.17-.13,.05-.23,.09-.3,.12-.21-.15-.45-.27-.7-.35-.25-.08-.57-.13-.94-.13-.51,0-.96,.07-1.34,.21-.38,.14-.67,.35-.88,.62-.21,.27-.31,.59-.31,.96,0,.32,.09,.63,.28,.91,.19,.29,.46,.51,.8,.68-.35,.07-.61,.19-.78,.34-.17,.16-.26,.33-.26,.51,0,.16,.04,.29,.12,.38,.08,.1,.16,.17,.26,.23,.1,.06,.18,.1,.24,.14-.03,.02-.11,.06-.22,.11-.11,.05-.24,.13-.37,.22-.13,.09-.25,.21-.35,.35-.1,.14-.15,.31-.15,.51,0,.46,.25,.82,.76,1.08,.51,.26,1.22,.39,2.15,.39s1.68-.17,2.16-.5m-9.84-1.38v-3.76c0-.24,.06-.43,.19-.59,.13-.16,.3-.27,.51-.35,.21-.08,.43-.12,.66-.12,.34,0,.63,.1,.84,.3,.22,.2,.33,.5,.33,.91v3.6h1.18v-3.73c0-.47-.09-.86-.27-1.16-.18-.3-.43-.52-.73-.66-.3-.14-.63-.21-.99-.21-.3,0-.57,.04-.79,.13-.23,.09-.42,.2-.58,.33-.16,.13-.28,.28-.37,.43v-.82h-1.15v5.69h1.18Zm-4.09-6.79h1.18v-1.16h-1.18v1.16Zm.03,6.79h1.13v-5.69h-1.13v5.69Zm-1.63,.05c.1-.02,.19-.04,.28-.07v-.75h-.3c-.22-.03-.38-.11-.48-.25-.1-.14-.16-.34-.16-.61v-6.55h-1.16v6.67c0,.2,.02,.4,.05,.59,.04,.19,.11,.36,.21,.51,.11,.15,.26,.27,.46,.35,.2,.09,.47,.13,.81,.13,.08,0,.17,0,.27-.03m-3.19,0c.1-.02,.19-.04,.28-.07v-.75h-.3c-.22-.03-.38-.11-.48-.25-.1-.14-.16-.34-.16-.61v-6.55h-1.16v6.67c0,.2,.02,.4,.05,.59,.04,.19,.11,.36,.21,.51,.11,.15,.26,.27,.46,.35,.2,.09,.47,.13,.81,.13,.08,0,.17,0,.27-.03m-6.97-4.14c.11-.25,.27-.45,.49-.61,.22-.16,.49-.24,.81-.24s.58,.07,.79,.21c.21,.14,.37,.33,.47,.58,.1,.24,.15,.51,.15,.81h-2.88c0-.26,.05-.51,.16-.76m3.84,1.52v-.39c0-.58-.1-1.08-.29-1.5-.19-.42-.48-.75-.86-.99-.38-.23-.84-.35-1.39-.35s-1.03,.13-1.43,.38c-.4,.26-.7,.61-.91,1.06-.21,.45-.31,.97-.31,1.56s.12,1.11,.34,1.55c.23,.43,.55,.77,.96,1,.41,.23,.89,.35,1.42,.35,.38,0,.74-.07,1.08-.21,.34-.14,.64-.34,.88-.61,.24-.27,.4-.6,.46-.99h-1.09c-.08,.3-.24,.53-.49,.69-.25,.15-.54,.23-.88,.23s-.62-.08-.85-.23c-.23-.16-.4-.37-.51-.64-.11-.27-.17-.58-.17-.92h4Zm-7.28,2.47c.34-.14,.59-.33,.78-.59,.18-.25,.27-.56,.27-.92,0-.14-.02-.28-.06-.43-.04-.15-.11-.3-.22-.45-.1-.14-.24-.27-.42-.39s-.41-.22-.69-.29l-1.08-.27c-.32-.07-.55-.16-.71-.27-.16-.11-.24-.26-.24-.44,0-.28,.11-.48,.32-.61s.49-.2,.83-.2,.59,.07,.79,.22c.2,.15,.32,.35,.36,.61h1.02c-.02-.54-.22-.96-.61-1.24-.39-.29-.9-.43-1.55-.43-.49,0-.9,.07-1.23,.22-.33,.15-.58,.35-.75,.61-.17,.26-.25,.56-.25,.89,0,.43,.15,.77,.43,1.01,.28,.24,.66,.41,1.13,.52l1.13,.27c.26,.06,.44,.14,.56,.26,.12,.12,.18,.27,.18,.47,0,.27-.11,.47-.33,.6-.22,.13-.51,.19-.87,.19-.22,0-.42-.03-.61-.1-.19-.07-.35-.17-.48-.31s-.23-.32-.27-.54h-1.05c.06,.42,.2,.76,.44,1.03,.23,.27,.52,.46,.87,.59,.35,.12,.72,.19,1.11,.19,.46,0,.86-.07,1.2-.21m-8.41,.1v-3.76c0-.24,.06-.43,.19-.59,.13-.16,.3-.27,.51-.35,.21-.08,.43-.12,.66-.12,.35,0,.63,.1,.85,.3,.22,.2,.33,.5,.33,.91v3.6h1.18v-3.73c0-.47-.09-.86-.27-1.16-.18-.3-.43-.52-.73-.66-.3-.14-.63-.21-.99-.21-.3,0-.57,.04-.79,.13-.23,.09-.42,.2-.58,.33-.16,.13-.28,.28-.37,.43v-.82h-1.15v5.69h1.18Zm-4.76,0c.23-.08,.43-.21,.6-.38,.17-.18,.29-.42,.36-.71l.13,1.1h.91v-5.69h-1.17v3.7c0,.39-.12,.69-.35,.89-.24,.2-.55,.3-.93,.3-.43,0-.75-.11-.96-.32-.21-.21-.32-.49-.32-.83v-3.75h-1.18v3.88c0,.32,.06,.59,.18,.83,.12,.24,.28,.44,.48,.6,.2,.16,.44,.28,.7,.36,.26,.08,.53,.12,.82,.13,.26,0,.51-.03,.74-.11m-7.49-1.07c-.22-.19-.38-.44-.48-.75-.1-.31-.15-.65-.15-1.02,0-.42,.06-.78,.17-1.09,.11-.31,.28-.54,.5-.71,.22-.17,.49-.25,.83-.25,.35,0,.64,.09,.85,.28,.22,.18,.37,.43,.47,.74,.1,.31,.15,.65,.15,1.03,0,.41-.05,.76-.17,1.07-.11,.31-.27,.55-.49,.72-.22,.17-.49,.26-.81,.26-.36,0-.64-.09-.86-.28m2.3,.82c.39-.25,.69-.59,.89-1.03,.2-.44,.3-.95,.3-1.52,0-.63-.11-1.17-.32-1.61-.22-.44-.52-.78-.91-1.02-.39-.23-.86-.35-1.39-.35s-1.04,.12-1.43,.37c-.4,.25-.7,.59-.9,1.04s-.31,.97-.31,1.57,.11,1.15,.33,1.58c.22,.44,.53,.77,.92,1,.4,.23,.86,.34,1.39,.34,.57,0,1.05-.12,1.44-.37m-10.04-7.32c-.51,.32-.91,.78-1.18,1.38-.27,.6-.41,1.33-.41,2.19s.14,1.59,.41,2.21c.27,.61,.67,1.09,1.18,1.42,.51,.33,1.13,.5,1.85,.5,.5,0,.93-.07,1.3-.22,.37-.14,.67-.34,.92-.6,.25-.25,.44-.54,.58-.86,.14-.32,.23-.66,.27-1h-1.25c-.05,.3-.16,.58-.32,.83-.16,.25-.36,.46-.62,.61-.26,.15-.56,.23-.91,.23-.68,0-1.21-.25-1.57-.75-.36-.5-.54-1.28-.54-2.36,0-.71,.08-1.29,.24-1.74,.16-.45,.4-.78,.72-.99s.7-.32,1.15-.32c.35,0,.66,.07,.91,.21,.26,.14,.46,.33,.62,.58,.16,.24,.26,.52,.32,.82h1.25c-.05-.48-.21-.92-.48-1.31-.27-.4-.63-.71-1.07-.95-.44-.24-.95-.35-1.52-.35-.72,0-1.34,.16-1.85,.48m-6.99,7.58v-3.42c0-.22,.04-.42,.12-.58,.08-.17,.19-.3,.34-.4,.15-.1,.32-.18,.53-.22,.21-.04,.43-.06,.68-.04,.05,0,.12,0,.2,.02,.08,0,.14,.02,.18,.04v-1.13s-.1-.04-.16-.05c-.07,0-.14-.01-.22-.01-.25,0-.49,.05-.72,.14-.23,.1-.43,.24-.6,.43-.17,.19-.3,.42-.4,.7v-1.17h-1.13v5.69h1.18Zm-5.93-1.08c-.22-.19-.38-.44-.48-.75-.1-.31-.15-.65-.15-1.02,0-.42,.06-.78,.17-1.09,.11-.31,.28-.54,.5-.71,.22-.17,.49-.25,.83-.25,.35,0,.64,.09,.85,.28,.22,.18,.37,.43,.47,.74,.1,.31,.14,.65,.14,1.03,0,.41-.05,.76-.17,1.07-.11,.31-.27,.55-.49,.72-.22,.17-.49,.26-.81,.26-.36,0-.64-.09-.86-.28m2.3,.82c.39-.25,.69-.59,.89-1.03,.2-.44,.31-.95,.31-1.52,0-.63-.11-1.17-.33-1.61-.22-.44-.52-.78-.91-1.02-.39-.23-.86-.35-1.39-.35s-1.04,.12-1.44,.37c-.4,.25-.7,.59-.9,1.04-.21,.45-.31,.97-.31,1.57s.11,1.15,.33,1.58c.22,.44,.53,.77,.92,1,.4,.23,.86,.34,1.39,.34,.57,0,1.05-.12,1.44-.37m-6.21-5.43v-.73c0-.25,.04-.43,.12-.55,.08-.12,.24-.18,.46-.18h.82v-.81h-1.14c-.47,0-.83,.12-1.07,.36-.24,.24-.36,.59-.36,1.04v.86h-1.16v.85h1.16v4.84h1.18v-4.84h1.33v-.85h-1.35Zm-9.63,5.69v-3.76c0-.24,.07-.43,.19-.59,.13-.16,.3-.27,.51-.35,.21-.08,.43-.12,.66-.12,.35,0,.63,.1,.84,.3,.22,.2,.33,.5,.33,.91v3.6h1.18v-3.73c0-.47-.09-.86-.27-1.16-.18-.3-.43-.52-.73-.66-.3-.14-.63-.21-.99-.21-.3,0-.57,.04-.79,.13-.23,.09-.42,.2-.58,.33-.16,.13-.28,.28-.37,.43v-.82h-1.15v5.69h1.18Zm-5.93-1.08c-.22-.19-.38-.44-.48-.75-.1-.31-.15-.65-.15-1.02,0-.42,.06-.78,.17-1.09,.11-.31,.28-.54,.5-.71,.22-.17,.49-.25,.83-.25,.35,0,.64,.09,.85,.28,.22,.18,.37,.43,.47,.74,.1,.31,.14,.65,.14,1.03,0,.41-.05,.76-.17,1.07-.11,.31-.27,.55-.49,.72-.22,.17-.49,.26-.81,.26-.36,0-.64-.09-.86-.28m2.3,.82c.39-.25,.69-.59,.89-1.03,.2-.44,.31-.95,.31-1.52,0-.63-.11-1.17-.33-1.61-.22-.44-.52-.78-.91-1.02-.39-.23-.86-.35-1.39-.35s-1.04,.12-1.44,.37c-.4,.25-.7,.59-.9,1.04s-.31,.97-.31,1.57,.11,1.15,.33,1.58c.22,.44,.53,.77,.92,1,.4,.23,.86,.34,1.39,.34,.57,0,1.05-.12,1.44-.37m-6.38-6.52h1.18v-1.16h-1.18v1.16Zm.03,6.79h1.13v-5.69h-1.13v5.69Zm-1.49-5.69h-1.28v-1.67h-.85l-.29,1.67h-.96v.85h.92v3.44c0,.3,.04,.56,.13,.78,.09,.21,.25,.38,.48,.49,.23,.11,.56,.17,.98,.17,.23,0,.41-.01,.56-.03,.14-.02,.25-.05,.33-.08v-.76h-.67c-.16,0-.29-.01-.38-.04-.09-.02-.16-.08-.2-.17-.04-.09-.06-.22-.06-.41v-3.39s1.27,0,1.27,0v-.85Zm-7.86,4.73c-.21-.17-.32-.41-.32-.71,0-.27,.07-.48,.22-.64,.14-.16,.35-.28,.63-.36,.27-.08,.61-.12,1-.12l.77-.02v.94c0,.15-.05,.29-.14,.43-.09,.14-.2,.26-.34,.38s-.3,.2-.48,.26c-.18,.06-.35,.1-.53,.1-.32,0-.59-.09-.8-.26m1.53,.83c.32-.17,.59-.47,.81-.9l.09,1.04h1v-3.98c0-.39-.08-.72-.24-.99-.16-.27-.41-.48-.74-.62-.33-.14-.76-.21-1.28-.21-.47,0-.87,.07-1.22,.2s-.62,.33-.81,.59c-.2,.26-.3,.58-.33,.95h1.02c.07-.32,.23-.55,.46-.69,.24-.14,.51-.21,.81-.21,.4,0,.7,.09,.9,.28,.19,.19,.29,.44,.29,.77v.41l-.93,.03c-.98,.02-1.69,.18-2.14,.5-.45,.31-.67,.78-.67,1.41,0,.35,.08,.65,.24,.9,.16,.25,.38,.44,.67,.57,.29,.13,.61,.2,.98,.2,.41,0,.77-.08,1.1-.25m-5.55-6.65h1.18v-1.16h-1.18v1.16Zm.03,6.79h1.13v-5.69h-1.13v5.69Zm-4.94-5.42c-.4,.25-.7,.6-.91,1.05-.21,.45-.31,.97-.31,1.56,0,.63,.11,1.16,.34,1.6,.23,.44,.54,.77,.94,1,.4,.23,.86,.34,1.38,.34,.42,0,.79-.08,1.12-.24,.33-.16,.6-.39,.81-.68s.33-.62,.37-1.01h-1c-.03,.17-.1,.34-.2,.5-.11,.16-.25,.29-.43,.4-.18,.1-.4,.15-.64,.15-.51,0-.9-.19-1.16-.56-.27-.37-.4-.88-.4-1.51,0-.69,.14-1.2,.43-1.53,.29-.33,.66-.5,1.11-.5,.25,0,.47,.05,.65,.15,.18,.1,.33,.23,.43,.39,.11,.16,.18,.34,.21,.52h1.02c-.04-.4-.17-.74-.37-1.04-.21-.3-.47-.53-.8-.7-.33-.17-.71-.25-1.14-.25-.55,0-1.03,.12-1.43,.37m-5.64,4.35c-.22-.19-.38-.44-.48-.75-.1-.31-.15-.65-.15-1.02,0-.42,.06-.78,.17-1.09,.11-.31,.28-.54,.5-.71,.22-.17,.49-.25,.82-.25,.35,0,.64,.09,.85,.28,.22,.18,.37,.43,.47,.74,.1,.31,.15,.65,.15,1.03,0,.41-.05,.76-.16,1.07-.11,.31-.27,.55-.49,.72-.22,.17-.49,.26-.81,.26-.36,0-.64-.09-.86-.28m2.3,.82c.39-.25,.69-.59,.89-1.03,.2-.44,.3-.95,.3-1.52,0-.63-.11-1.17-.32-1.61-.22-.44-.52-.78-.91-1.02-.39-.23-.86-.35-1.39-.35s-1.04,.12-1.44,.37c-.4,.25-.7,.59-.9,1.04-.21,.45-.31,.97-.31,1.57s.11,1.15,.33,1.58c.22,.44,.53,.77,.92,1,.4,.23,.86,.34,1.39,.34,.57,0,1.05-.12,1.44-.37m-6.13,.16c.34-.14,.59-.33,.78-.59,.18-.25,.27-.56,.27-.92,0-.14-.02-.28-.06-.43-.04-.15-.12-.3-.22-.45-.1-.14-.24-.27-.42-.39-.18-.12-.41-.22-.69-.29l-1.08-.27c-.32-.07-.55-.16-.71-.27-.16-.11-.24-.26-.24-.44,0-.28,.11-.48,.32-.61,.22-.13,.49-.2,.83-.2s.59,.07,.79,.22c.2,.15,.32,.35,.35,.61h1.02c-.01-.54-.22-.96-.61-1.24-.39-.29-.9-.43-1.55-.43-.49,0-.9,.07-1.23,.22-.33,.15-.58,.35-.74,.61-.17,.26-.25,.56-.25,.89,0,.43,.15,.77,.43,1.01,.28,.24,.66,.41,1.13,.52l1.13,.27c.26,.06,.45,.14,.56,.26,.12,.12,.18,.27,.18,.47,0,.27-.11,.47-.33,.6-.22,.13-.51,.19-.87,.19-.22,0-.42-.03-.61-.1-.19-.07-.35-.17-.48-.31-.13-.14-.23-.32-.27-.54h-1.05c.06,.42,.2,.76,.44,1.03,.23,.27,.52,.46,.87,.59,.35,.12,.72,.19,1.11,.19,.46,0,.86-.07,1.2-.21m-5.58,0c.34-.14,.59-.33,.78-.59,.18-.25,.27-.56,.27-.92,0-.14-.02-.28-.06-.43-.04-.15-.12-.3-.22-.45-.1-.14-.24-.27-.42-.39-.18-.12-.41-.22-.69-.29l-1.08-.27c-.32-.07-.55-.16-.71-.27-.16-.11-.24-.26-.24-.44,0-.28,.11-.48,.32-.61,.22-.13,.49-.2,.83-.2s.59,.07,.79,.22c.2,.15,.32,.35,.35,.61h1.02c-.01-.54-.22-.96-.6-1.24-.39-.29-.9-.43-1.55-.43-.49,0-.9,.07-1.23,.22-.33,.15-.58,.35-.74,.61-.17,.26-.25,.56-.25,.89,0,.43,.15,.77,.43,1.01,.28,.24,.66,.41,1.13,.52l1.13,.27c.26,.06,.45,.14,.56,.26,.12,.12,.18,.27,.18,.47,0,.27-.11,.47-.33,.6-.22,.13-.51,.19-.87,.19-.22,0-.42-.03-.61-.1-.19-.07-.35-.17-.48-.31-.13-.14-.23-.32-.27-.54h-1.05c.06,.42,.2,.76,.44,1.03,.23,.27,.52,.46,.87,.59,.35,.12,.72,.19,1.11,.19,.46,0,.86-.07,1.2-.21m-7.95-6.7l1.27,3.65h-2.56l1.29-3.65Zm-2.33,6.8l.76-2.08h3.14l.75,2.08h1.19l-2.87-7.95h-1.3l-2.87,7.95h1.19Zm-5.62-.1c.34-.14,.59-.33,.78-.59,.18-.25,.27-.56,.27-.92,0-.14-.02-.28-.06-.43-.04-.15-.11-.3-.22-.45-.1-.14-.24-.27-.42-.39-.18-.12-.41-.22-.69-.29l-1.08-.27c-.32-.07-.55-.16-.71-.27-.16-.11-.24-.26-.24-.44,0-.28,.11-.48,.32-.61,.22-.13,.49-.2,.83-.2s.59,.07,.79,.22c.2,.15,.32,.35,.35,.61h1.02c-.01-.54-.22-.96-.6-1.24-.39-.29-.9-.43-1.55-.43-.49,0-.9,.07-1.23,.22-.33,.15-.58,.35-.75,.61-.17,.26-.25,.56-.25,.89,0,.43,.15,.77,.43,1.01,.28,.24,.66,.41,1.13,.52l1.13,.27c.26,.06,.45,.14,.56,.26,.12,.12,.18,.27,.18,.47,0,.27-.11,.47-.33,.6-.22,.13-.51,.19-.87,.19-.22,0-.42-.03-.61-.1-.19-.07-.35-.17-.48-.31-.13-.14-.22-.32-.27-.54h-1.05c.06,.42,.2,.76,.44,1.03,.23,.27,.52,.46,.87,.59,.35,.12,.72,.19,1.11,.19,.46,0,.86-.07,1.2-.21m-5.58,0c.33-.14,.59-.33,.77-.59,.18-.25,.27-.56,.27-.92,0-.14-.02-.28-.06-.43-.04-.15-.11-.3-.22-.45-.1-.14-.24-.27-.42-.39-.18-.12-.41-.22-.69-.29l-1.08-.27c-.32-.07-.55-.16-.71-.27-.16-.11-.24-.26-.24-.44,0-.28,.11-.48,.32-.61,.22-.13,.49-.2,.83-.2s.59,.07,.79,.22c.2,.15,.32,.35,.35,.61h1.02c-.02-.54-.22-.96-.61-1.24-.39-.29-.9-.43-1.55-.43-.49,0-.9,.07-1.23,.22-.33,.15-.58,.35-.74,.61-.17,.26-.25,.56-.25,.89,0,.43,.15,.77,.43,1.01,.28,.24,.66,.41,1.13,.52l1.13,.27c.26,.06,.45,.14,.56,.26,.12,.12,.18,.27,.18,.47,0,.27-.11,.47-.33,.6-.22,.13-.51,.19-.87,.19-.22,0-.42-.03-.61-.1-.19-.07-.35-.17-.48-.31s-.22-.32-.27-.54h-1.05c.06,.42,.2,.76,.44,1.03,.23,.27,.52,.46,.87,.59,.35,.12,.72,.19,1.11,.19,.46,0,.86-.07,1.2-.21m-6.14-6.69h1.18v-1.16h-1.18v1.16Zm.03,6.79h1.13v-5.69h-1.13v5.69Zm-2.27-5.69l-1.2,4.13h-.08l-1.25-4.13h-.88l-1.22,4.14h-.08l-1.24-4.14h-1.07l1.78,5.69h1.06l1.18-3.99,1.23,3.99h1.08l1.77-5.69h-1.09Zm-9.18,5.51c.45-.19,.8-.46,1.05-.79,.24-.33,.37-.7,.37-1.11,0-.21-.03-.43-.08-.67-.05-.23-.15-.46-.29-.67-.14-.22-.34-.41-.6-.58-.26-.17-.6-.3-1.02-.39l-1.47-.34c-.49-.12-.83-.27-1.01-.43-.18-.17-.28-.39-.28-.66,0-.2,.04-.38,.13-.54s.21-.29,.37-.39c.15-.11,.33-.19,.53-.24,.2-.06,.41-.08,.63-.08,.3,0,.58,.04,.84,.13,.26,.09,.47,.23,.63,.43,.17,.2,.27,.46,.3,.8h1.2c0-.41-.12-.8-.35-1.15-.23-.35-.56-.64-1-.85-.44-.22-.99-.32-1.64-.32-.56,0-1.05,.1-1.49,.29-.44,.2-.78,.47-1.03,.82-.25,.35-.38,.76-.37,1.23,0,.56,.17,1.01,.51,1.35s.8,.57,1.4,.7l1.51,.34c.29,.06,.53,.15,.73,.26,.2,.11,.36,.24,.47,.4,.11,.16,.17,.36,.17,.59,0,.26-.08,.48-.25,.66-.17,.18-.39,.32-.67,.42-.28,.1-.6,.15-.95,.15-.32,0-.61-.05-.88-.15-.27-.1-.5-.25-.69-.44-.18-.19-.31-.43-.37-.72h-1.23c.05,.38,.17,.71,.36,.99,.19,.28,.44,.52,.73,.71,.29,.19,.62,.33,.98,.43,.36,.1,.73,.14,1.11,.14,.63,0,1.18-.1,1.63-.29"></path>
  <path class="cls-1" d="M378.26,37.46c-.21-.17-.32-.41-.32-.71,0-.27,.07-.48,.22-.64,.14-.16,.35-.28,.63-.36,.27-.08,.61-.12,1-.12l.77-.02v.94c0,.15-.05,.29-.14,.43-.09,.14-.2,.27-.34,.38s-.3,.2-.48,.26c-.18,.06-.35,.1-.53,.1-.32,0-.59-.09-.8-.26m1.53,.82c.32-.17,.59-.47,.81-.9l.09,1.04h.99v-3.98c0-.39-.08-.72-.24-.99-.16-.27-.41-.48-.74-.62-.33-.14-.76-.21-1.28-.21-.47,0-.87,.07-1.21,.2-.35,.13-.62,.33-.81,.59-.2,.26-.3,.58-.33,.95h1.02c.07-.32,.23-.55,.46-.69,.24-.14,.51-.21,.81-.21,.4,0,.7,.09,.9,.27,.19,.19,.29,.44,.29,.77v.41l-.93,.03c-.98,.02-1.69,.18-2.14,.5-.45,.31-.67,.78-.67,1.41,0,.35,.08,.65,.24,.9,.16,.25,.38,.44,.67,.57s.61,.2,.98,.2c.41,0,.77-.08,1.1-.25m-3.92,.14v-.85h-3.12l3.1-4.13v-.7h-4.37v.85h2.96l-3.1,4.13v.7h4.53Zm-9.33,0v-3.76c0-.23,.07-.43,.19-.59,.13-.16,.3-.27,.51-.35,.21-.08,.43-.12,.66-.12,.35,0,.63,.1,.84,.3,.22,.2,.33,.5,.33,.91v3.6h1.18v-3.73c0-.47-.09-.86-.27-1.16-.18-.3-.43-.52-.73-.66-.3-.14-.63-.21-.99-.21-.3,0-.57,.04-.79,.13-.23,.08-.42,.19-.58,.33-.16,.14-.28,.28-.37,.43v-.82h-1.15v5.69h1.18Zm-6.33-4.09c.11-.25,.27-.45,.49-.6,.22-.16,.49-.24,.81-.24s.58,.07,.79,.21,.37,.33,.47,.58c.1,.24,.15,.51,.15,.81h-2.88c0-.26,.05-.51,.16-.76m3.84,1.52v-.39c0-.58-.1-1.08-.29-1.5-.19-.42-.48-.75-.86-.99-.38-.24-.84-.35-1.39-.35s-1.03,.13-1.43,.39-.7,.61-.91,1.06c-.21,.45-.31,.98-.31,1.56s.11,1.11,.34,1.55c.23,.43,.55,.77,.96,1s.89,.35,1.42,.35c.38,0,.74-.07,1.08-.21,.35-.14,.64-.34,.88-.61,.24-.27,.4-.6,.46-.99h-1.09c-.08,.31-.24,.53-.49,.69-.25,.15-.54,.23-.88,.23s-.62-.08-.85-.23c-.23-.16-.4-.37-.51-.64-.11-.27-.17-.58-.17-.92h4Zm-6.35,2.62c.1-.02,.19-.04,.28-.07v-.75h-.3c-.22-.03-.38-.11-.48-.25-.1-.14-.16-.34-.16-.6v-6.55h-1.16v6.67c0,.2,.02,.4,.05,.59,.04,.19,.11,.36,.21,.51,.11,.15,.26,.27,.46,.36,.2,.09,.47,.13,.81,.13,.08,0,.17,0,.27-.03m-5.39-.05c.23-.08,.43-.21,.61-.39,.17-.18,.29-.41,.35-.71l.13,1.1h.91v-5.69h-1.17v3.7c0,.39-.12,.69-.35,.89-.23,.2-.55,.31-.93,.31-.43,0-.75-.11-.96-.32-.21-.21-.32-.49-.32-.83v-3.75h-1.18v3.88c0,.32,.06,.59,.18,.83,.12,.24,.28,.44,.48,.6,.2,.16,.44,.28,.7,.36,.26,.08,.53,.12,.82,.13,.26,0,.51-.03,.74-.11m-5.21-.09c.34-.14,.59-.33,.78-.59,.18-.26,.27-.56,.27-.92,0-.14-.02-.28-.06-.43-.04-.15-.11-.3-.22-.44-.1-.14-.24-.27-.42-.39-.18-.12-.41-.22-.69-.29l-1.08-.27c-.32-.07-.55-.16-.71-.27s-.24-.26-.24-.44c0-.28,.11-.48,.32-.61,.22-.13,.49-.2,.83-.2s.59,.07,.79,.22c.2,.15,.32,.35,.35,.61h1.02c-.01-.54-.22-.96-.6-1.24-.39-.29-.9-.43-1.55-.43-.49,0-.9,.07-1.23,.22-.33,.15-.58,.35-.75,.61s-.25,.56-.25,.89c0,.43,.15,.77,.43,1.01,.28,.24,.66,.42,1.13,.53l1.13,.27c.26,.06,.44,.14,.56,.26,.12,.12,.18,.27,.18,.47,0,.27-.11,.47-.33,.6-.22,.13-.51,.19-.87,.19-.22,0-.42-.03-.61-.1-.19-.07-.35-.17-.48-.31-.13-.14-.23-.32-.27-.54h-1.05c.06,.42,.2,.76,.44,1.03,.23,.27,.52,.46,.87,.59,.35,.12,.72,.19,1.11,.19,.46,0,.86-.07,1.2-.21m-8.41,.1v-3.76c0-.23,.06-.43,.19-.59,.13-.16,.3-.27,.51-.35,.21-.08,.43-.12,.66-.12,.34,0,.63,.1,.84,.3s.33,.5,.33,.91v3.6h1.18v-3.73c0-.47-.09-.86-.27-1.16-.18-.3-.43-.52-.73-.66-.3-.14-.63-.21-.99-.21-.3,0-.57,.04-.8,.13-.23,.08-.42,.19-.58,.33-.16,.14-.28,.28-.37,.43v-.82h-1.15v5.69h1.18Zm-5.93-1.08c-.22-.19-.38-.44-.48-.75s-.15-.65-.15-1.02c0-.42,.06-.78,.17-1.09,.11-.31,.28-.54,.5-.71s.49-.25,.82-.25c.35,0,.64,.09,.85,.27,.22,.18,.37,.43,.47,.74,.1,.31,.15,.65,.15,1.03,0,.41-.06,.77-.17,1.08-.11,.31-.27,.55-.49,.72-.22,.17-.49,.25-.81,.25-.36,0-.64-.09-.86-.28m2.3,.82c.39-.25,.69-.59,.89-1.03,.2-.44,.31-.95,.31-1.52,0-.63-.11-1.17-.32-1.61-.22-.45-.52-.78-.91-1.02-.39-.23-.86-.35-1.39-.35s-1.04,.12-1.44,.37c-.4,.25-.7,.6-.9,1.04-.21,.45-.31,.97-.31,1.57s.11,1.15,.33,1.58c.22,.44,.53,.77,.92,1,.4,.23,.86,.34,1.39,.34,.57,0,1.05-.12,1.44-.37m-10.04-7.32c-.51,.32-.91,.78-1.18,1.38s-.41,1.33-.41,2.19,.14,1.59,.41,2.21c.27,.61,.67,1.09,1.18,1.42,.51,.33,1.13,.5,1.85,.5,.5,0,.93-.07,1.3-.22,.37-.15,.67-.34,.92-.6,.25-.25,.44-.54,.58-.86,.14-.32,.23-.65,.27-1h-1.25c-.05,.3-.16,.58-.32,.83-.16,.26-.36,.46-.62,.61-.26,.15-.56,.23-.91,.23-.68,0-1.2-.25-1.57-.75s-.55-1.28-.55-2.36c0-.71,.08-1.29,.25-1.74,.16-.45,.4-.78,.72-1,.32-.21,.7-.32,1.15-.32,.35,0,.66,.07,.91,.21,.26,.14,.46,.33,.62,.58s.26,.52,.32,.82h1.25c-.05-.48-.21-.92-.48-1.31-.27-.4-.63-.71-1.07-.95s-.95-.35-1.52-.35c-.72,0-1.34,.16-1.85,.48m-6.7,.8h1.18v-1.16h-1.18v1.16Zm.03,6.79h1.13v-5.69h-1.13v5.69Zm-5.53-1.33c-.25-.37-.38-.89-.38-1.58s.14-1.21,.41-1.52c.27-.31,.63-.47,1.07-.47,.35,0,.63,.08,.85,.23,.21,.15,.37,.38,.48,.67,.1,.3,.16,.66,.16,1.09,0,.76-.12,1.31-.35,1.64-.23,.33-.62,.5-1.14,.5-.47,0-.83-.18-1.09-.55m1.67,1.31c.22-.08,.41-.19,.55-.32,.14-.13,.26-.27,.34-.42,.08-.15,.15-.28,.19-.41l.13,1.17h.88v-8.17h-1.18v3.35c-.05-.1-.13-.2-.23-.32-.1-.11-.23-.22-.38-.32-.15-.1-.33-.18-.53-.24-.2-.06-.43-.09-.68-.09-.51,0-.93,.12-1.27,.36-.34,.24-.6,.58-.77,1.02-.17,.44-.26,.95-.26,1.54,0,.96,.21,1.7,.64,2.21,.43,.51,1.02,.77,1.76,.77,.32,0,.59-.04,.81-.13m-10.32-.95c-.21-.17-.32-.41-.32-.71,0-.27,.07-.48,.22-.64,.14-.16,.35-.28,.63-.36,.27-.08,.61-.12,1-.12l.77-.02v.94c0,.15-.05,.29-.14,.43-.09,.14-.2,.27-.34,.38s-.3,.2-.48,.26c-.18,.06-.35,.1-.53,.1-.32,0-.59-.09-.8-.26m1.53,.82c.32-.17,.59-.47,.81-.9l.09,1.04h1v-3.98c0-.39-.08-.72-.24-.99-.16-.27-.41-.48-.74-.62-.33-.14-.76-.21-1.28-.21-.47,0-.87,.07-1.22,.2s-.61,.33-.81,.59c-.2,.26-.31,.58-.33,.95h1.02c.07-.32,.23-.55,.46-.69,.24-.14,.51-.21,.81-.21,.4,0,.7,.09,.9,.27,.19,.19,.29,.44,.29,.77v.41l-.93,.03c-.98,.02-1.69,.18-2.14,.5-.45,.31-.67,.78-.67,1.41,0,.35,.08,.65,.24,.9,.16,.25,.38,.44,.67,.57s.61,.2,.98,.2c.41,0,.77-.08,1.1-.25m-5.72,.14v-3.42c0-.22,.04-.42,.12-.58,.08-.17,.19-.3,.34-.4,.15-.1,.32-.18,.53-.22,.21-.04,.43-.06,.68-.04,.05,0,.12,0,.2,.02,.08,0,.14,.02,.18,.04v-1.13s-.1-.04-.16-.05c-.07,0-.14-.01-.22-.01-.25,0-.49,.05-.72,.15-.23,.1-.43,.24-.6,.43-.17,.19-.3,.42-.4,.7v-1.17h-1.13v5.69h1.18Zm-6.33-4.09c.11-.25,.27-.45,.49-.6,.22-.16,.49-.24,.81-.24s.58,.07,.79,.21c.21,.14,.37,.33,.47,.58,.1,.24,.15,.51,.15,.81h-2.88c0-.26,.05-.51,.16-.76m3.84,1.52v-.39c0-.58-.1-1.08-.29-1.5-.19-.42-.48-.75-.85-.99-.38-.24-.84-.35-1.39-.35s-1.03,.13-1.43,.39c-.4,.26-.7,.61-.91,1.06-.21,.45-.31,.98-.31,1.56s.11,1.11,.34,1.55c.23,.43,.55,.77,.96,1,.41,.23,.89,.35,1.42,.35,.38,0,.74-.07,1.08-.21,.35-.14,.64-.34,.88-.61,.24-.27,.4-.6,.46-.99h-1.09c-.08,.31-.24,.53-.49,.69-.25,.15-.54,.23-.88,.23s-.62-.08-.85-.23c-.23-.16-.4-.37-.51-.64-.11-.27-.17-.58-.17-.92h4Zm-6,2.57v-.85h-3.12l3.1-4.13v-.7h-4.37v.85h2.96l-3.1,4.13v.7h4.53Zm-5.42,0v-.85h-3.12l3.1-4.13v-.7h-4.37v.85h2.96l-3.1,4.13v.7h4.53Zm-6.99-6.79h1.18v-1.16h-1.18v1.16Zm.03,6.79h1.13v-5.69h-1.13v5.69Zm-2.22-5.69l-1.44,4.2h-.08l-1.44-4.2h-1.09l2.07,5.69h1l2.07-5.69h-1.09Zm-6.17,5.51c.45-.19,.8-.46,1.05-.79,.25-.33,.37-.7,.37-1.11,0-.21-.03-.43-.08-.67-.05-.23-.15-.46-.29-.67-.14-.22-.34-.41-.6-.58-.26-.17-.6-.3-1.02-.39l-1.47-.33c-.49-.12-.83-.27-1.01-.44-.18-.17-.27-.39-.27-.66,0-.2,.05-.38,.14-.54s.21-.29,.37-.39c.15-.11,.33-.19,.53-.24,.2-.06,.41-.08,.63-.08,.3,0,.58,.04,.84,.13,.26,.09,.47,.23,.64,.43,.17,.2,.27,.47,.3,.8h1.2c0-.41-.12-.8-.35-1.15-.23-.35-.56-.64-1-.86-.44-.22-.99-.32-1.64-.32-.56,0-1.05,.1-1.49,.29-.44,.2-.78,.47-1.03,.82-.25,.35-.38,.76-.37,1.23,0,.56,.18,1.01,.51,1.35,.34,.34,.8,.57,1.39,.69l1.51,.34c.29,.06,.53,.15,.73,.26,.2,.11,.36,.24,.47,.4,.11,.16,.17,.36,.17,.59,0,.26-.08,.48-.25,.66-.16,.18-.39,.32-.67,.42-.28,.1-.6,.15-.95,.15-.32,0-.61-.05-.89-.15-.27-.1-.5-.25-.68-.44-.18-.19-.31-.43-.37-.72h-1.23c.05,.38,.17,.71,.36,.99,.19,.28,.43,.52,.73,.71,.29,.19,.62,.33,.98,.43,.36,.1,.73,.14,1.1,.14,.63,0,1.18-.1,1.63-.29m-12.2-3.91c.11-.25,.27-.45,.49-.6,.22-.16,.49-.24,.81-.24s.58,.07,.8,.21,.37,.33,.47,.58c.1,.24,.15,.51,.15,.81h-2.88c0-.26,.05-.51,.16-.76m3.84,1.52v-.39c0-.58-.1-1.08-.29-1.5-.2-.42-.48-.75-.86-.99-.38-.24-.84-.35-1.39-.35s-1.03,.13-1.43,.39c-.4,.26-.7,.61-.91,1.06-.21,.45-.31,.98-.31,1.56s.11,1.11,.34,1.55c.23,.43,.55,.77,.96,1,.41,.23,.89,.35,1.43,.35,.38,0,.74-.07,1.08-.21,.35-.14,.64-.34,.88-.61,.24-.27,.4-.6,.46-.99h-1.09c-.08,.31-.24,.53-.49,.69-.25,.15-.54,.23-.88,.23s-.62-.08-.85-.23c-.23-.16-.4-.37-.51-.64-.11-.27-.17-.58-.17-.92h4Zm-10.11,2.57v-3.76c0-.23,.06-.43,.19-.59,.13-.16,.3-.27,.51-.35,.21-.08,.43-.12,.66-.12,.35,0,.63,.1,.84,.3,.22,.2,.33,.5,.33,.91v3.6h1.18v-3.73c0-.47-.09-.86-.27-1.16-.18-.3-.43-.52-.73-.66-.3-.14-.63-.21-.99-.21-.3,0-.57,.04-.79,.13s-.42,.19-.58,.33c-.16,.14-.28,.28-.37,.43v-.82h-1.15v5.69h1.18Zm-5.93-1.08c-.22-.19-.38-.44-.48-.75s-.15-.65-.15-1.02c0-.42,.06-.78,.17-1.09,.11-.31,.28-.54,.5-.71s.49-.25,.82-.25c.35,0,.64,.09,.85,.27,.22,.18,.37,.43,.47,.74,.1,.31,.15,.65,.15,1.03,0,.41-.05,.77-.16,1.08s-.27,.55-.49,.72c-.22,.17-.49,.25-.81,.25-.36,0-.64-.09-.86-.28m2.3,.82c.39-.25,.69-.59,.89-1.03,.2-.44,.3-.95,.3-1.52,0-.63-.11-1.17-.32-1.61-.22-.45-.52-.78-.91-1.02-.39-.23-.86-.35-1.39-.35s-1.04,.12-1.43,.37c-.4,.25-.7,.6-.9,1.04-.21,.45-.31,.97-.31,1.57s.11,1.15,.33,1.58c.22,.44,.53,.77,.92,1,.4,.23,.86,.34,1.39,.34,.57,0,1.05-.12,1.44-.37m-6.6-6.53h1.18v-1.16h-1.18v1.16Zm.03,6.79h1.13v-5.69h-1.13v5.69Zm-1.26,0v-.85h-3.12l3.1-4.13v-.7h-4.37v.85h2.96l-3.1,4.13v.7h4.53Zm-9.19-.96c-.21-.17-.32-.41-.32-.71,0-.27,.07-.48,.22-.64,.14-.16,.35-.28,.63-.36,.27-.08,.61-.12,1-.12l.77-.02v.94c0,.15-.05,.29-.13,.43-.09,.14-.2,.27-.34,.38-.14,.11-.3,.2-.48,.26-.18,.06-.35,.1-.53,.1-.32,0-.59-.09-.8-.26m1.53,.82c.32-.17,.59-.47,.81-.9l.09,1.04h1v-3.98c0-.39-.08-.72-.24-.99-.16-.27-.41-.48-.74-.62-.33-.14-.76-.21-1.28-.21-.47,0-.87,.07-1.22,.2-.34,.13-.62,.33-.81,.59-.2,.26-.3,.58-.33,.95h1.02c.07-.32,.23-.55,.47-.69,.24-.14,.51-.21,.81-.21,.4,0,.7,.09,.9,.27,.19,.19,.29,.44,.29,.77v.41l-.93,.03c-.98,.02-1.69,.18-2.14,.5-.45,.31-.67,.78-.67,1.41,0,.35,.08,.65,.24,.9,.16,.25,.38,.44,.67,.57,.28,.13,.61,.2,.98,.2,.41,0,.77-.08,1.1-.25m-5.55-6.65h1.18v-1.16h-1.18v1.16Zm.03,6.79h1.13v-5.69h-1.13v5.69Zm-5.16-5.42c-.4,.25-.7,.6-.91,1.05s-.31,.97-.31,1.56c0,.63,.11,1.16,.34,1.6,.23,.44,.54,.77,.94,1,.4,.23,.86,.34,1.38,.34,.42,0,.79-.08,1.12-.24,.33-.16,.6-.39,.81-.68,.21-.29,.33-.62,.37-1.01h-1c-.03,.17-.1,.34-.2,.5-.11,.16-.25,.29-.43,.39-.18,.1-.4,.15-.64,.15-.51,0-.9-.19-1.16-.56-.27-.37-.4-.88-.4-1.51,0-.69,.14-1.2,.43-1.53,.29-.33,.66-.5,1.11-.5,.25,0,.46,.05,.65,.15,.18,.1,.33,.23,.43,.39,.11,.16,.18,.33,.21,.52h1.02c-.04-.4-.17-.74-.37-1.04-.21-.3-.47-.53-.81-.7-.33-.17-.71-.25-1.14-.25-.55,0-1.03,.12-1.43,.37m-5.64,4.35c-.22-.19-.38-.44-.48-.75s-.15-.65-.15-1.02c0-.42,.05-.78,.17-1.09,.11-.31,.28-.54,.5-.71s.49-.25,.82-.25c.35,0,.64,.09,.85,.27,.22,.18,.37,.43,.47,.74,.1,.31,.15,.65,.15,1.03,0,.41-.06,.77-.17,1.08s-.27,.55-.49,.72c-.22,.17-.49,.25-.81,.25-.36,0-.64-.09-.86-.28m2.3,.82c.39-.25,.69-.59,.89-1.03,.2-.44,.3-.95,.3-1.52,0-.63-.11-1.17-.32-1.61-.22-.45-.52-.78-.91-1.02-.39-.23-.86-.35-1.39-.35s-1.04,.12-1.43,.37c-.4,.25-.7,.6-.9,1.04-.21,.45-.31,.97-.31,1.57s.11,1.15,.33,1.58c.22,.44,.53,.77,.92,1,.4,.23,.86,.34,1.4,.34,.57,0,1.05-.12,1.44-.37m-6.13,.16c.34-.14,.59-.33,.78-.59,.18-.26,.27-.56,.27-.92,0-.14-.02-.28-.06-.43-.04-.15-.12-.3-.22-.44-.1-.14-.24-.27-.42-.39-.18-.12-.41-.22-.69-.29l-1.08-.27c-.32-.07-.55-.16-.71-.27s-.24-.26-.24-.44c0-.28,.11-.48,.32-.61s.49-.2,.83-.2,.59,.07,.79,.22c.2,.15,.32,.35,.36,.61h1.02c-.01-.54-.22-.96-.61-1.24-.39-.29-.9-.43-1.54-.43-.49,0-.9,.07-1.23,.22-.33,.15-.58,.35-.75,.61-.17,.26-.25,.56-.25,.89,0,.43,.15,.77,.43,1.01s.66,.42,1.13,.53l1.13,.27c.26,.06,.44,.14,.56,.26,.12,.12,.18,.27,.18,.47,0,.27-.11,.47-.33,.6-.22,.13-.51,.19-.87,.19-.22,0-.42-.03-.61-.1-.19-.07-.35-.17-.48-.31-.13-.14-.23-.32-.27-.54h-1.05c.06,.42,.2,.76,.44,1.03,.23,.27,.52,.46,.87,.59,.35,.12,.72,.19,1.11,.19,.46,0,.86-.07,1.2-.21m-5.58,0c.34-.14,.59-.33,.78-.59,.18-.26,.27-.56,.27-.92,0-.14-.02-.28-.06-.43-.04-.15-.12-.3-.22-.44-.1-.14-.24-.27-.42-.39-.18-.12-.41-.22-.69-.29l-1.08-.27c-.32-.07-.55-.16-.71-.27-.16-.11-.24-.26-.24-.44,0-.28,.11-.48,.32-.61,.22-.13,.49-.2,.83-.2s.59,.07,.79,.22c.2,.15,.32,.35,.35,.61h1.02c-.01-.54-.22-.96-.6-1.24-.39-.29-.9-.43-1.54-.43-.49,0-.9,.07-1.23,.22-.33,.15-.58,.35-.75,.61-.17,.26-.25,.56-.25,.89,0,.43,.15,.77,.43,1.01s.66,.42,1.13,.53l1.13,.27c.26,.06,.44,.14,.56,.26,.12,.12,.18,.27,.18,.47,0,.27-.11,.47-.33,.6-.22,.13-.51,.19-.87,.19-.22,0-.42-.03-.61-.1-.19-.07-.35-.17-.48-.31-.13-.14-.23-.32-.27-.54h-1.05c.06,.42,.2,.76,.44,1.03,.23,.27,.52,.46,.87,.59,.35,.12,.72,.19,1.11,.19,.46,0,.86-.07,1.2-.21m-7.73-6.7l1.27,3.65h-2.56l1.29-3.65Zm-2.33,6.8l.76-2.09h3.14l.75,2.09h1.19l-2.87-7.95h-1.3l-2.87,7.95h1.19Z"></path>
  <path class="cls-1" d="M347.47,24.77c.1-.02,.19-.04,.28-.07v-.75h-.3c-.22-.03-.38-.11-.48-.25-.1-.14-.16-.34-.16-.61v-6.55h-1.16v6.67c0,.2,.02,.4,.05,.59,.04,.19,.1,.36,.21,.51,.11,.15,.26,.27,.46,.36,.2,.09,.47,.13,.81,.13,.08,0,.17,0,.27-.03m-4.73-6.84h1.18v-1.16h-1.18v1.16Zm.03,6.79h1.13v-5.69h-1.13v5.69Zm-5.27-4.09c.11-.25,.27-.45,.49-.6,.22-.16,.49-.24,.81-.24s.58,.07,.79,.21c.21,.14,.37,.33,.47,.58,.1,.24,.15,.51,.15,.81h-2.88c0-.26,.05-.51,.16-.76m3.84,1.52v-.39c0-.58-.1-1.08-.29-1.5-.19-.42-.48-.75-.86-.99-.38-.24-.84-.35-1.39-.35s-1.03,.13-1.43,.39c-.4,.26-.7,.61-.91,1.06-.21,.45-.31,.97-.31,1.56s.11,1.11,.34,1.55c.23,.43,.55,.77,.96,1,.41,.23,.89,.35,1.42,.35,.38,0,.74-.07,1.08-.21,.34-.14,.64-.34,.88-.61,.24-.27,.4-.6,.46-.99h-1.09c-.08,.3-.24,.53-.49,.69-.25,.15-.54,.23-.88,.23s-.62-.08-.85-.23c-.23-.16-.4-.37-.51-.64-.11-.27-.17-.57-.17-.91h4Zm-7.28,2.47c.33-.14,.59-.33,.77-.59,.18-.25,.27-.56,.27-.92,0-.14-.02-.28-.06-.43-.04-.15-.12-.3-.22-.45-.1-.14-.24-.27-.42-.39-.18-.12-.41-.22-.69-.29l-1.08-.27c-.32-.07-.55-.16-.71-.27-.16-.11-.24-.26-.24-.44,0-.28,.11-.48,.32-.61,.22-.13,.49-.2,.83-.2s.59,.07,.79,.22c.2,.15,.32,.35,.36,.61h1.02c-.01-.54-.22-.96-.61-1.24-.39-.29-.9-.43-1.54-.43-.49,0-.9,.07-1.23,.22-.33,.15-.58,.35-.74,.61-.17,.26-.25,.56-.25,.89,0,.43,.15,.77,.43,1.01,.28,.24,.66,.42,1.13,.53l1.13,.27c.26,.06,.44,.14,.56,.26,.12,.12,.18,.27,.18,.47,0,.27-.11,.47-.33,.6-.22,.13-.51,.2-.87,.2-.22,0-.42-.03-.61-.1-.19-.07-.35-.17-.48-.31s-.23-.32-.27-.54h-1.05c.06,.42,.21,.76,.44,1.03,.23,.27,.52,.46,.87,.59,.35,.12,.72,.19,1.11,.19,.46,0,.86-.07,1.2-.21m-8.41,.1v-3.76c0-.23,.06-.43,.19-.58,.13-.16,.3-.27,.51-.35,.21-.08,.43-.12,.66-.12,.34,0,.63,.1,.84,.3,.22,.2,.33,.5,.33,.91v3.6h1.18v-3.73c0-.47-.09-.86-.27-1.16-.18-.3-.43-.52-.73-.66-.3-.14-.63-.21-.99-.21-.3,0-.57,.04-.79,.13-.23,.08-.42,.19-.58,.33-.16,.14-.28,.28-.37,.44v-.82h-1.15v5.69h1.18Zm-5.93-1.08c-.22-.19-.38-.44-.48-.75-.1-.31-.15-.65-.15-1.02,0-.42,.06-.78,.17-1.09s.28-.54,.5-.71,.49-.25,.83-.25c.35,0,.64,.09,.85,.28,.22,.18,.37,.43,.47,.74,.1,.31,.14,.65,.14,1.03,0,.41-.05,.76-.16,1.07-.11,.31-.27,.55-.49,.72-.22,.17-.49,.26-.81,.26-.36,0-.64-.09-.86-.28m2.3,.82c.39-.25,.69-.59,.89-1.03,.2-.44,.3-.95,.3-1.52,0-.63-.11-1.17-.33-1.61-.22-.45-.52-.78-.91-1.02-.39-.23-.86-.35-1.39-.35s-1.04,.12-1.44,.37c-.4,.25-.7,.59-.9,1.04-.21,.45-.31,.97-.31,1.57s.11,1.15,.33,1.58c.22,.44,.53,.77,.92,1,.4,.23,.86,.34,1.39,.34,.57,0,1.05-.12,1.44-.37m-10.04-7.32c-.51,.32-.9,.78-1.18,1.38-.27,.6-.41,1.33-.41,2.19s.14,1.59,.41,2.21c.27,.61,.67,1.09,1.18,1.42,.51,.33,1.13,.5,1.85,.5,.5,0,.93-.07,1.3-.22,.37-.15,.67-.34,.92-.6,.25-.25,.44-.54,.58-.86,.14-.32,.23-.66,.28-1h-1.25c-.05,.3-.16,.58-.32,.83-.16,.25-.36,.46-.62,.61-.26,.15-.56,.23-.91,.23-.68,0-1.2-.25-1.57-.75-.36-.5-.55-1.28-.55-2.36,0-.71,.08-1.29,.24-1.74,.16-.45,.4-.78,.72-.99,.32-.21,.7-.32,1.15-.32,.35,0,.66,.07,.91,.21,.26,.14,.46,.33,.62,.58,.16,.24,.26,.52,.32,.82h1.25c-.05-.48-.21-.92-.48-1.31-.27-.4-.63-.71-1.07-.95-.44-.24-.95-.35-1.52-.35-.72,0-1.34,.16-1.85,.48m-8.94,3.49c.11-.25,.27-.45,.49-.6,.22-.16,.49-.24,.81-.24s.58,.07,.8,.21c.21,.14,.37,.33,.47,.58,.1,.24,.15,.51,.15,.81h-2.88c0-.26,.05-.51,.16-.76m3.84,1.52v-.39c0-.58-.1-1.08-.29-1.5-.19-.42-.48-.75-.85-.99-.38-.24-.84-.35-1.39-.35s-1.03,.13-1.43,.39-.7,.61-.91,1.06c-.21,.45-.31,.97-.31,1.56s.11,1.11,.34,1.55c.23,.43,.55,.77,.96,1,.41,.23,.89,.35,1.42,.35,.38,0,.74-.07,1.08-.21,.34-.14,.64-.34,.88-.61,.24-.27,.4-.6,.46-.99h-1.09c-.08,.3-.24,.53-.49,.69-.25,.15-.54,.23-.88,.23s-.62-.08-.85-.23c-.23-.16-.4-.37-.51-.64-.11-.27-.17-.57-.17-.91h4Zm-10.26,1.24c-.25-.37-.38-.9-.38-1.58s.14-1.21,.41-1.52c.28-.31,.63-.47,1.07-.47,.35,0,.63,.08,.84,.23,.21,.15,.37,.38,.48,.67,.1,.3,.16,.66,.16,1.09,0,.76-.12,1.3-.35,1.64-.23,.33-.62,.5-1.14,.5-.47,0-.83-.18-1.09-.55m1.67,1.31c.22-.09,.41-.19,.55-.33,.15-.13,.26-.27,.34-.42,.08-.15,.15-.28,.19-.41l.13,1.17h.88v-8.17h-1.18v3.35c-.06-.1-.13-.2-.23-.32-.1-.11-.23-.22-.38-.32-.15-.1-.33-.18-.53-.24-.2-.06-.43-.09-.68-.09-.51,0-.93,.12-1.27,.36-.34,.24-.6,.58-.77,1.02-.17,.44-.26,.95-.26,1.54,0,.96,.21,1.7,.64,2.21,.43,.51,1.02,.77,1.77,.77,.32,0,.58-.04,.81-.13m-10.34-4.08c.11-.25,.27-.45,.49-.6,.22-.16,.49-.24,.81-.24s.58,.07,.79,.21c.21,.14,.37,.33,.47,.58,.1,.24,.15,.51,.15,.81h-2.88c0-.26,.05-.51,.16-.76m3.84,1.52v-.39c0-.58-.1-1.08-.29-1.5-.19-.42-.48-.75-.86-.99-.38-.24-.84-.35-1.39-.35s-1.03,.13-1.43,.39c-.4,.26-.7,.61-.91,1.06-.21,.45-.31,.97-.31,1.56s.11,1.11,.34,1.55c.23,.43,.55,.77,.96,1,.41,.23,.89,.35,1.42,.35,.38,0,.74-.07,1.08-.21,.34-.14,.64-.34,.88-.61,.24-.27,.4-.6,.46-.99h-1.09c-.08,.3-.24,.53-.49,.69-.25,.15-.54,.23-.88,.23s-.62-.08-.85-.23c-.23-.16-.4-.37-.51-.64-.11-.27-.17-.57-.17-.91h4Zm-7.28,2.47c.33-.14,.59-.33,.77-.59,.18-.25,.27-.56,.27-.92,0-.14-.02-.28-.06-.43s-.11-.3-.22-.45c-.1-.14-.24-.27-.42-.39-.18-.12-.41-.22-.69-.29l-1.08-.27c-.32-.07-.55-.16-.71-.27-.16-.11-.24-.26-.24-.44,0-.28,.11-.48,.32-.61,.22-.13,.49-.2,.83-.2s.59,.07,.79,.22c.2,.15,.32,.35,.36,.61h1.02c-.01-.54-.22-.96-.6-1.24-.39-.29-.9-.43-1.55-.43-.49,0-.9,.07-1.23,.22-.33,.15-.58,.35-.74,.61-.17,.26-.25,.56-.25,.89,0,.43,.15,.77,.43,1.01,.28,.24,.66,.42,1.13,.53l1.13,.27c.26,.06,.44,.14,.56,.26,.12,.12,.18,.27,.18,.47,0,.27-.11,.47-.33,.6-.22,.13-.51,.2-.87,.2-.22,0-.42-.03-.61-.1-.19-.07-.35-.17-.48-.31s-.22-.32-.27-.54h-1.05c.06,.42,.21,.76,.44,1.03,.23,.27,.52,.46,.87,.59,.35,.12,.72,.19,1.11,.19,.46,0,.86-.07,1.2-.21m-5.58,0c.33-.14,.59-.33,.77-.59,.18-.25,.27-.56,.27-.92,0-.14-.02-.28-.06-.43-.04-.15-.12-.3-.22-.45-.1-.14-.24-.27-.42-.39-.18-.12-.41-.22-.69-.29l-1.08-.27c-.32-.07-.55-.16-.71-.27-.16-.11-.24-.26-.24-.44,0-.28,.11-.48,.32-.61,.22-.13,.49-.2,.83-.2s.59,.07,.79,.22c.2,.15,.32,.35,.36,.61h1.02c-.01-.54-.22-.96-.61-1.24-.39-.29-.9-.43-1.54-.43-.49,0-.9,.07-1.23,.22-.33,.15-.58,.35-.74,.61-.17,.26-.25,.56-.25,.89,0,.43,.15,.77,.43,1.01,.28,.24,.66,.42,1.13,.53l1.13,.27c.26,.06,.44,.14,.56,.26,.12,.12,.18,.27,.18,.47,0,.27-.11,.47-.33,.6-.22,.13-.51,.2-.87,.2-.22,0-.42-.03-.61-.1-.19-.07-.35-.17-.48-.31s-.23-.32-.27-.54h-1.05c.06,.42,.21,.76,.44,1.03,.23,.27,.52,.46,.87,.59,.35,.12,.72,.19,1.11,.19,.46,0,.86-.07,1.2-.21m-6.14-6.69h1.18v-1.16h-1.18v1.16Zm.03,6.79h1.13v-5.69h-1.13v5.69Zm-3.69,0c.23-.08,.43-.21,.6-.39,.17-.18,.29-.42,.36-.71l.13,1.1h.91v-5.69h-1.17v3.7c0,.39-.12,.69-.35,.89-.23,.2-.55,.31-.93,.31-.43,0-.75-.11-.96-.32-.21-.21-.32-.49-.32-.83v-3.75h-1.18v3.88c0,.32,.06,.59,.18,.83,.12,.24,.28,.44,.48,.6,.2,.16,.44,.28,.7,.36,.26,.08,.53,.12,.82,.13,.26,0,.51-.03,.74-.11m-5.68-.18c.45-.19,.8-.46,1.05-.79,.25-.33,.37-.7,.37-1.11,0-.21-.03-.44-.08-.67-.05-.23-.15-.46-.29-.67-.14-.22-.34-.41-.6-.58-.26-.17-.6-.3-1.02-.39l-1.47-.33c-.49-.12-.83-.27-1.01-.43-.18-.17-.27-.39-.27-.66,0-.2,.05-.38,.14-.54,.09-.16,.21-.29,.37-.39,.15-.11,.33-.19,.53-.24,.2-.06,.41-.08,.63-.08,.3,0,.58,.04,.84,.13,.26,.09,.47,.23,.64,.43,.17,.2,.27,.47,.3,.8h1.2c0-.41-.12-.8-.35-1.15-.23-.35-.56-.64-1-.85-.44-.22-.99-.33-1.64-.33-.56,0-1.05,.1-1.49,.29s-.78,.47-1.03,.82c-.25,.35-.38,.76-.37,1.23,0,.56,.17,1.01,.51,1.35,.34,.34,.8,.57,1.39,.69l1.51,.34c.29,.06,.53,.15,.73,.26,.2,.11,.36,.24,.47,.41,.11,.16,.17,.36,.17,.59,0,.26-.08,.48-.25,.66-.17,.18-.39,.32-.67,.42-.28,.1-.6,.15-.95,.15-.32,0-.61-.05-.89-.15-.27-.1-.5-.25-.68-.44-.18-.19-.31-.43-.37-.72h-1.23c.05,.38,.17,.71,.36,.99,.19,.28,.43,.52,.73,.71,.29,.19,.62,.33,.98,.43,.36,.09,.73,.14,1.11,.14,.63,0,1.18-.1,1.63-.29m-12.32,.18v-3.76c0-.23,.06-.43,.19-.58,.13-.16,.3-.27,.51-.35,.21-.08,.43-.12,.66-.12,.35,0,.63,.1,.84,.3,.22,.2,.33,.5,.33,.91v3.6h1.18v-3.73c0-.47-.09-.86-.28-1.16-.18-.3-.43-.52-.73-.66-.3-.14-.63-.21-.99-.21-.3,0-.57,.04-.8,.13-.23,.08-.42,.19-.58,.33-.15,.14-.28,.28-.37,.44v-.82h-1.15v5.69h1.18Zm-5.93-1.08c-.22-.19-.38-.44-.48-.75-.1-.31-.15-.65-.15-1.02,0-.42,.06-.78,.17-1.09,.11-.31,.28-.54,.5-.71s.49-.25,.82-.25c.35,0,.64,.09,.85,.28,.22,.18,.37,.43,.47,.74,.1,.31,.15,.65,.15,1.03,0,.41-.06,.76-.17,1.07-.11,.31-.27,.55-.49,.72-.22,.17-.49,.26-.81,.26-.35,0-.64-.09-.86-.28m2.3,.82c.39-.25,.69-.59,.89-1.03,.2-.44,.31-.95,.31-1.52,0-.63-.11-1.17-.32-1.61-.22-.45-.52-.78-.91-1.02-.39-.23-.86-.35-1.39-.35s-1.04,.12-1.43,.37c-.4,.25-.7,.59-.9,1.04-.21,.45-.31,.97-.31,1.57s.11,1.15,.33,1.58c.22,.44,.53,.77,.92,1,.4,.23,.86,.34,1.4,.34,.57,0,1.05-.12,1.44-.37m-6.6-6.53h1.18v-1.16h-1.18v1.16Zm.03,6.79h1.13v-5.69h-1.13v5.69Zm-1.5-5.69h-1.28v-1.67h-.85l-.29,1.67h-.96v.85h.92v3.44c0,.3,.04,.56,.13,.78,.09,.21,.25,.38,.48,.49,.23,.11,.56,.17,.98,.17,.23,0,.41-.01,.56-.03,.14-.02,.25-.05,.33-.08v-.76h-.67c-.16,0-.29-.01-.38-.04-.09-.02-.16-.08-.2-.16-.04-.09-.06-.22-.06-.41v-3.39s1.27,0,1.27,0v-.85Zm-7.86,4.73c-.21-.17-.32-.41-.32-.71,0-.27,.07-.48,.22-.64,.14-.16,.35-.28,.63-.36,.27-.08,.61-.12,1-.12l.77-.02v.94c0,.15-.05,.29-.13,.43-.09,.14-.2,.26-.34,.38-.14,.11-.3,.2-.48,.26-.18,.06-.35,.1-.53,.1-.32,0-.59-.09-.8-.26m1.53,.82c.32-.17,.59-.47,.81-.9l.09,1.04h1v-3.98c0-.39-.08-.72-.24-.99-.16-.27-.41-.48-.74-.62-.33-.14-.76-.21-1.28-.21-.47,0-.87,.07-1.22,.2-.34,.13-.62,.33-.81,.59-.2,.26-.3,.58-.33,.95h1.02c.07-.32,.23-.55,.47-.69,.24-.14,.51-.21,.81-.21,.4,0,.7,.09,.9,.28,.19,.19,.29,.44,.29,.77v.41l-.93,.03c-.98,.02-1.69,.18-2.14,.5-.45,.31-.67,.78-.67,1.41,0,.35,.08,.65,.24,.9,.16,.25,.38,.44,.67,.57,.28,.13,.61,.2,.98,.2,.41,0,.77-.08,1.1-.25m-5.55-6.65h1.18v-1.16h-1.18v1.16Zm.03,6.79h1.13v-5.69h-1.13v5.69Zm-5.16-5.42c-.4,.25-.7,.6-.91,1.05-.21,.45-.31,.97-.31,1.56,0,.63,.11,1.16,.34,1.6,.23,.44,.54,.77,.94,1,.4,.23,.86,.34,1.38,.34,.42,0,.79-.08,1.12-.24,.33-.16,.6-.39,.81-.68,.21-.29,.33-.63,.37-1.01h-1c-.03,.17-.1,.34-.2,.5-.11,.16-.25,.29-.43,.4-.18,.1-.4,.15-.64,.15-.51,0-.9-.19-1.16-.56-.27-.37-.4-.88-.4-1.51,0-.69,.14-1.2,.43-1.53,.29-.33,.66-.5,1.11-.5,.25,0,.46,.05,.65,.15,.18,.1,.33,.23,.43,.39s.18,.34,.21,.52h1.02c-.04-.4-.17-.74-.37-1.04-.21-.3-.47-.53-.81-.7-.33-.17-.71-.25-1.14-.25-.55,0-1.03,.12-1.43,.37m-5.64,4.34c-.22-.19-.38-.44-.48-.75-.1-.31-.15-.65-.15-1.02,0-.42,.05-.78,.17-1.09s.28-.54,.5-.71,.49-.25,.82-.25c.35,0,.64,.09,.85,.28,.22,.18,.37,.43,.47,.74,.1,.31,.15,.65,.15,1.03,0,.41-.06,.76-.17,1.07-.11,.31-.27,.55-.49,.72-.22,.17-.49,.26-.81,.26-.36,0-.64-.09-.86-.28m2.3,.82c.39-.25,.69-.59,.89-1.03,.2-.44,.3-.95,.3-1.52,0-.63-.11-1.17-.32-1.61-.22-.45-.52-.78-.91-1.02-.39-.23-.86-.35-1.39-.35s-1.04,.12-1.43,.37c-.4,.25-.7,.59-.9,1.04-.21,.45-.31,.97-.31,1.57s.11,1.15,.33,1.58c.22,.44,.53,.77,.92,1s.86,.34,1.4,.34c.57,0,1.05-.12,1.44-.37m-6.13,.17c.34-.14,.59-.33,.78-.59,.18-.25,.27-.56,.27-.92,0-.14-.02-.28-.06-.43-.04-.15-.12-.3-.22-.45-.1-.14-.24-.27-.42-.39-.18-.12-.41-.22-.69-.29l-1.08-.27c-.32-.07-.55-.16-.71-.27-.16-.11-.24-.26-.24-.44,0-.28,.11-.48,.32-.61,.22-.13,.49-.2,.83-.2s.59,.07,.79,.22c.2,.15,.32,.35,.36,.61h1.02c-.01-.54-.22-.96-.61-1.24-.39-.29-.9-.43-1.54-.43-.49,0-.9,.07-1.23,.22-.33,.15-.58,.35-.75,.61-.17,.26-.25,.56-.25,.89,0,.43,.15,.77,.43,1.01,.28,.24,.66,.42,1.13,.53l1.13,.27c.26,.06,.44,.14,.56,.26,.12,.12,.18,.27,.18,.47,0,.27-.11,.47-.33,.6-.22,.13-.51,.2-.87,.2-.22,0-.42-.03-.61-.1-.19-.07-.35-.17-.48-.31s-.23-.32-.27-.54h-1.05c.06,.42,.2,.76,.44,1.03,.23,.27,.52,.46,.87,.59,.35,.12,.72,.19,1.11,.19,.46,0,.86-.07,1.2-.21m-5.58,0c.34-.14,.59-.33,.78-.59,.18-.25,.27-.56,.27-.92,0-.14-.02-.28-.06-.43-.04-.15-.12-.3-.22-.45-.1-.14-.24-.27-.42-.39-.18-.12-.41-.22-.69-.29l-1.08-.27c-.32-.07-.55-.16-.71-.27-.16-.11-.24-.26-.24-.44,0-.28,.11-.48,.32-.61,.22-.13,.49-.2,.83-.2s.59,.07,.79,.22c.2,.15,.32,.35,.35,.61h1.02c-.01-.54-.22-.96-.6-1.24-.39-.29-.9-.43-1.54-.43-.49,0-.9,.07-1.23,.22-.33,.15-.58,.35-.75,.61-.17,.26-.25,.56-.25,.89,0,.43,.15,.77,.43,1.01,.28,.24,.66,.42,1.13,.53l1.13,.27c.26,.06,.44,.14,.56,.26,.12,.12,.18,.27,.18,.47,0,.27-.11,.47-.33,.6-.22,.13-.51,.2-.87,.2-.22,0-.42-.03-.61-.1-.19-.07-.35-.17-.48-.31s-.23-.32-.27-.54h-1.05c.06,.42,.2,.76,.44,1.03,.23,.27,.52,.46,.87,.59,.35,.12,.72,.19,1.11,.19,.46,0,.86-.07,1.2-.21m-7.73-6.7l1.27,3.65h-2.56l1.29-3.65Zm-2.33,6.8l.76-2.08h3.14l.75,2.08h1.19l-2.87-7.95h-1.3l-2.87,7.95h1.19Z"></path>
  <path class="cls-1" d="M407.32,7.85c-.23-.19-.34-.45-.34-.79,0-.36,.12-.63,.35-.83,.24-.2,.55-.3,.93-.3s.69,.1,.92,.29c.23,.2,.35,.47,.35,.83s-.12,.62-.35,.8c-.23,.18-.54,.28-.92,.28-.41,0-.72-.1-.95-.29m-.31,4.1c-.32-.15-.48-.37-.48-.66,0-.16,.05-.3,.14-.43,.1-.13,.22-.23,.37-.31,.15-.07,.3-.11,.45-.1l1.52,.1c.33,.02,.57,.1,.74,.24,.16,.14,.25,.31,.25,.52,0,.29-.13,.5-.38,.65-.26,.15-.63,.22-1.14,.22-.66,0-1.15-.08-1.47-.23m3.42,.45c.47-.33,.71-.76,.71-1.28,0-.46-.17-.82-.49-1.09-.33-.27-.8-.43-1.43-.47-.26-.02-.49-.03-.7-.04-.21-.01-.38-.02-.52-.03-.38-.03-.65-.06-.81-.09-.17-.04-.25-.11-.25-.21,0-.08,.06-.15,.19-.22s.36-.11,.7-.12c.05,0,.12,.01,.2,.01,.08,0,.15,0,.2,0,.54,0,.99-.08,1.35-.25,.36-.17,.63-.39,.81-.66,.18-.28,.27-.58,.27-.91,0-.11-.02-.23-.05-.36-.03-.13-.07-.25-.12-.36l.99-.18v-1.02c-.08,.04-.2,.08-.34,.14-.14,.06-.29,.12-.45,.18-.16,.06-.3,.12-.43,.17-.13,.05-.23,.09-.3,.12-.21-.15-.45-.27-.7-.35-.25-.08-.57-.13-.94-.13-.51,0-.96,.07-1.34,.21-.38,.14-.67,.35-.88,.62-.21,.27-.31,.59-.31,.96,0,.32,.09,.63,.28,.91s.46,.51,.8,.68c-.35,.07-.61,.19-.78,.34-.17,.16-.26,.33-.26,.51,0,.16,.04,.28,.11,.38s.16,.17,.26,.23c.1,.06,.18,.1,.24,.14-.03,.02-.11,.06-.22,.11-.11,.05-.24,.13-.37,.22-.13,.09-.25,.21-.35,.35-.1,.14-.15,.31-.15,.51,0,.46,.25,.82,.76,1.08,.51,.26,1.22,.39,2.15,.39s1.68-.17,2.16-.5m-9.84-1.38v-3.76c0-.24,.06-.43,.19-.59,.13-.16,.3-.27,.51-.35,.21-.08,.43-.12,.66-.12,.35,0,.63,.1,.84,.3,.22,.2,.33,.5,.33,.91v3.6h1.18v-3.73c0-.47-.09-.86-.27-1.16-.18-.3-.43-.52-.73-.66-.3-.14-.63-.21-.99-.21-.3,0-.57,.04-.8,.13-.23,.09-.42,.2-.58,.33-.16,.14-.28,.28-.37,.43v-.82h-1.15v5.69h1.18Zm-4.76,0c.23-.08,.43-.21,.61-.38,.17-.18,.29-.42,.35-.71l.13,1.1h.91V5.33h-1.17v3.7c0,.39-.12,.69-.35,.89-.23,.2-.55,.31-.94,.31-.43,0-.75-.11-.96-.32-.21-.21-.32-.49-.32-.83v-3.75h-1.18v3.88c0,.31,.06,.59,.18,.83,.12,.24,.28,.44,.48,.6,.2,.16,.43,.28,.7,.36,.26,.08,.53,.12,.82,.13,.26,0,.51-.03,.74-.11m-4.16-5.69h-1.28v-1.67h-.85l-.29,1.67h-.96v.85h.92v3.44c0,.3,.04,.56,.13,.78,.09,.22,.25,.38,.48,.49,.23,.11,.56,.17,.98,.17,.23,0,.41-.01,.56-.03,.14-.02,.25-.05,.33-.08v-.76h-.67c-.16,0-.29-.01-.38-.04-.09-.02-.16-.08-.2-.17-.04-.09-.06-.22-.06-.41v-3.39s1.27,0,1.27,0v-.85Zm-7.86,4.73c-.21-.17-.32-.41-.32-.71,0-.27,.07-.48,.22-.64,.15-.16,.35-.28,.63-.36s.61-.12,1-.12l.77-.02v.94c0,.15-.05,.29-.13,.43-.09,.14-.2,.26-.34,.38-.14,.11-.3,.2-.48,.26-.18,.06-.35,.1-.53,.1-.32,0-.59-.08-.8-.26m1.53,.82c.32-.17,.59-.47,.81-.9l.09,1.05h.99v-3.98c0-.39-.08-.72-.24-.99-.16-.27-.41-.48-.75-.62-.33-.14-.76-.21-1.28-.21-.46,0-.87,.07-1.21,.2-.35,.13-.62,.33-.81,.59-.2,.26-.31,.58-.33,.95h1.02c.07-.32,.23-.55,.47-.69,.24-.14,.51-.21,.81-.21,.4,0,.7,.09,.9,.28,.19,.19,.29,.44,.29,.77v.41l-.93,.03c-.98,.02-1.69,.18-2.14,.49-.45,.31-.67,.78-.67,1.41,0,.35,.08,.65,.24,.9,.16,.25,.38,.44,.67,.57,.28,.13,.61,.2,.98,.2,.41,0,.77-.08,1.1-.25m-5.72,.14v-3.42c0-.22,.04-.42,.12-.58,.08-.17,.19-.3,.34-.4,.15-.1,.33-.18,.53-.22,.21-.04,.43-.06,.68-.04,.05,0,.12,0,.2,.02,.07,0,.14,.02,.18,.04v-1.13s-.1-.04-.17-.05c-.07,0-.14-.01-.22-.01-.25,0-.49,.05-.72,.15-.23,.1-.43,.24-.6,.43-.17,.19-.3,.42-.4,.7v-1.17h-1.13v5.69h1.18Zm-6.33-4.09c.11-.25,.27-.45,.49-.6,.22-.16,.49-.24,.81-.24s.58,.07,.8,.21c.21,.14,.37,.33,.47,.58,.1,.24,.15,.51,.15,.81h-2.88c0-.26,.05-.51,.16-.76m3.84,1.52v-.39c0-.58-.1-1.08-.29-1.5-.19-.42-.48-.75-.86-.99-.38-.24-.84-.35-1.39-.35s-1.03,.13-1.43,.38c-.4,.26-.7,.61-.91,1.06-.21,.45-.31,.97-.31,1.56s.12,1.11,.34,1.54c.23,.43,.55,.77,.96,1,.41,.23,.88,.35,1.42,.35,.38,0,.74-.07,1.08-.21,.34-.14,.64-.34,.88-.61,.24-.27,.4-.6,.46-.99h-1.09c-.08,.3-.24,.53-.49,.69-.25,.15-.54,.23-.88,.23s-.62-.08-.85-.23c-.23-.16-.4-.37-.51-.64-.11-.27-.17-.58-.17-.92h4Zm-10.97-4.43h1.55c.52,0,.94,.1,1.27,.31,.33,.21,.49,.53,.49,.96,0,.23-.05,.42-.14,.58-.1,.16-.22,.28-.38,.38-.16,.09-.33,.16-.52,.2-.19,.04-.39,.06-.58,.06h-1.68v-2.49Zm0,3.47h1.68c.33,0,.63,.05,.9,.14,.27,.09,.48,.23,.64,.43,.16,.19,.24,.44,.24,.75,0,.42-.16,.74-.48,.95-.32,.21-.79,.32-1.4,.32h-1.57v-2.58Zm1.56,3.54c1.04,0,1.81-.18,2.32-.53s.76-.89,.76-1.61c0-.21-.03-.42-.08-.62-.05-.2-.14-.38-.26-.55-.12-.17-.29-.32-.5-.45-.21-.13-.48-.23-.79-.3,.54-.2,.91-.45,1.12-.75,.21-.3,.32-.66,.32-1.07,0-.67-.25-1.18-.75-1.54-.5-.36-1.24-.53-2.23-.53h-2.65v7.95h2.74Zm-8.57,0v-3.42c0-.22,.04-.42,.12-.58,.08-.17,.19-.3,.34-.4,.15-.1,.33-.18,.53-.22,.2-.04,.43-.06,.68-.04,.06,0,.12,0,.2,.02,.08,0,.14,.02,.18,.04v-1.13s-.1-.04-.16-.05c-.07,0-.14-.01-.22-.01-.25,0-.49,.05-.72,.15s-.43,.24-.6,.43c-.17,.19-.3,.42-.4,.7v-1.17h-1.13v5.69h1.18Zm-5.76-6.64v-1.07s-1.12,0-1.12,0v1.07s1.12,0,1.12,0Zm2.26,0v-1.07s-1.12,0-1.12,0v1.07s1.12,0,1.12,0Zm-1.25,6.64c.23-.08,.43-.21,.61-.38,.17-.18,.29-.42,.35-.71l.13,1.1h.91V5.33h-1.17v3.7c0,.39-.12,.69-.35,.89-.24,.2-.55,.31-.93,.31-.43,0-.75-.11-.96-.32-.21-.21-.32-.49-.32-.83v-3.75h-1.18v3.88c0,.31,.06,.59,.18,.83,.12,.24,.28,.44,.48,.6,.2,.16,.44,.28,.7,.36,.26,.08,.53,.12,.82,.13,.26,0,.51-.03,.74-.11m-5.35-5.68v-.73c0-.25,.04-.43,.12-.55,.08-.12,.24-.18,.46-.18h.82v-.81h-1.14c-.47,0-.83,.12-1.07,.36-.24,.24-.36,.59-.36,1.04v.86h-1.16v.85h1.16v4.84h1.18V6.18h1.33v-.85h-1.35Zm-5.8,0h-1.28v-1.67h-.85l-.29,1.67h-.96v.85h.92v3.44c0,.3,.05,.56,.14,.78,.09,.22,.25,.38,.48,.49,.23,.11,.56,.17,.98,.17,.23,0,.41-.01,.56-.03,.15-.02,.25-.05,.33-.08v-.76h-.67c-.16,0-.29-.01-.38-.04-.09-.02-.16-.08-.2-.17-.04-.09-.06-.22-.06-.41v-3.39s1.27,0,1.27,0v-.85Zm-5.6,0v-.73c0-.25,.04-.43,.12-.55,.08-.12,.24-.18,.46-.18h.82v-.81h-1.14c-.47,0-.82,.12-1.07,.36-.24,.24-.36,.59-.36,1.04v.86h-1.16v.85h1.16v4.84h1.18V6.18h1.33v-.85h-1.35Zm-6.91,4.72c-.21-.17-.32-.41-.32-.71,0-.27,.07-.48,.22-.64,.14-.16,.35-.28,.63-.36s.61-.12,1-.12l.77-.02v.94c0,.15-.05,.29-.14,.43-.09,.14-.2,.26-.34,.38-.14,.11-.3,.2-.48,.26-.18,.06-.35,.1-.53,.1-.32,0-.59-.08-.8-.26m1.53,.82c.32-.17,.59-.47,.81-.9l.09,1.05h.99v-3.98c0-.39-.08-.72-.24-.99-.16-.27-.41-.48-.74-.62-.33-.14-.76-.21-1.28-.21-.47,0-.87,.07-1.21,.2-.35,.13-.62,.33-.81,.59-.2,.26-.3,.58-.33,.95h1.02c.07-.32,.23-.55,.46-.69,.24-.14,.51-.21,.81-.21,.4,0,.7,.09,.9,.28,.19,.19,.29,.44,.29,.77v.41l-.93,.03c-.98,.02-1.69,.18-2.14,.49-.45,.31-.67,.78-.67,1.41,0,.35,.08,.65,.24,.9,.16,.25,.38,.44,.67,.57s.61,.2,.98,.2c.41,0,.77-.08,1.1-.25m-7.88,.14v-3.75c0-.24,.06-.43,.19-.59,.13-.16,.29-.27,.5-.35,.21-.08,.43-.12,.66-.12,.34,0,.63,.09,.85,.26,.22,.17,.33,.42,.33,.74v3.81h1.18V7c0-.36-.09-.66-.27-.92-.18-.26-.42-.46-.71-.59-.3-.14-.63-.21-1-.21-.3,0-.56,.04-.79,.13-.23,.09-.42,.2-.57,.33-.16,.14-.28,.28-.37,.43V2.85h-1.16V11.02h1.18Zm-6.22-5.42c-.4,.25-.7,.6-.91,1.05-.21,.45-.31,.97-.31,1.56,0,.63,.11,1.16,.34,1.6,.23,.44,.54,.77,.94,1,.4,.23,.86,.34,1.38,.34,.42,0,.79-.08,1.12-.24,.33-.16,.6-.39,.81-.68,.21-.29,.33-.62,.37-1.01h-1c-.03,.17-.1,.34-.2,.5-.11,.16-.25,.29-.43,.4-.18,.1-.4,.15-.64,.15-.51,0-.9-.19-1.16-.56-.27-.37-.4-.88-.4-1.51,0-.69,.14-1.2,.43-1.53,.29-.33,.66-.5,1.11-.5,.25,0,.46,.05,.65,.15,.18,.1,.33,.23,.43,.39,.11,.16,.18,.33,.21,.52h1.02c-.04-.4-.17-.74-.37-1.04-.21-.3-.47-.53-.81-.7s-.71-.25-1.14-.25c-.55,0-1.03,.12-1.43,.37m-3.27,5.33c.33-.14,.59-.33,.77-.59,.18-.26,.27-.56,.27-.92,0-.14-.02-.28-.06-.43-.04-.15-.11-.3-.22-.44-.1-.14-.24-.28-.42-.39-.18-.12-.41-.22-.69-.29l-1.08-.27c-.32-.07-.55-.16-.71-.27-.16-.11-.24-.26-.24-.44,0-.28,.11-.48,.32-.61,.22-.13,.49-.2,.83-.2s.59,.07,.79,.22c.2,.15,.32,.35,.36,.61h1.02c-.01-.54-.22-.96-.61-1.24-.39-.29-.9-.43-1.55-.43-.49,0-.9,.07-1.23,.22-.33,.15-.58,.35-.74,.61-.17,.26-.25,.56-.25,.89,0,.43,.15,.77,.43,1.01,.28,.24,.66,.42,1.13,.52l1.13,.27c.26,.06,.44,.14,.56,.26,.12,.12,.18,.27,.18,.47,0,.27-.11,.47-.33,.6-.22,.13-.51,.19-.87,.19-.22,0-.42-.03-.61-.1-.19-.07-.35-.17-.48-.31s-.23-.32-.27-.54h-1.05c.06,.42,.2,.76,.44,1.03,.23,.27,.52,.46,.87,.59,.35,.12,.72,.19,1.11,.19,.46,0,.86-.07,1.2-.21m-4.68,.15c.1-.02,.19-.04,.28-.07v-.75h-.3c-.22-.03-.38-.11-.48-.25-.11-.14-.16-.34-.16-.6V2.85h-1.16v6.67c0,.2,.02,.4,.05,.59,.03,.19,.11,.36,.21,.51,.11,.15,.26,.27,.46,.35,.2,.09,.47,.13,.81,.13,.09,0,.18,0,.27-.03m-3.19,0c.1-.02,.19-.04,.28-.07v-.75h-.3c-.22-.03-.38-.11-.48-.25-.11-.14-.16-.34-.16-.6V2.85h-1.16v6.67c0,.2,.02,.4,.05,.59,.03,.19,.1,.36,.21,.51,.11,.15,.26,.27,.46,.35,.2,.09,.47,.13,.81,.13,.08,0,.17,0,.27-.03m-6.97-4.14c.11-.25,.27-.45,.49-.6,.22-.16,.49-.24,.81-.24s.58,.07,.8,.21c.21,.14,.37,.33,.47,.58s.15,.51,.15,.81h-2.88c0-.26,.05-.51,.16-.76m3.84,1.52v-.39c0-.58-.1-1.08-.29-1.5-.19-.42-.48-.75-.85-.99-.38-.24-.84-.35-1.39-.35s-1.03,.13-1.43,.38c-.4,.26-.7,.61-.91,1.06-.21,.45-.31,.97-.31,1.56s.11,1.11,.34,1.54c.23,.43,.55,.77,.96,1,.41,.23,.88,.35,1.42,.35,.38,0,.74-.07,1.08-.21,.34-.14,.64-.34,.88-.61,.24-.27,.4-.6,.46-.99h-1.09c-.08,.3-.24,.53-.49,.69-.25,.15-.54,.23-.88,.23s-.62-.08-.85-.23c-.23-.16-.4-.37-.51-.64-.11-.27-.17-.58-.17-.92h4Zm-7.28,2.47c.34-.14,.59-.33,.78-.59,.18-.26,.27-.56,.27-.92,0-.14-.02-.28-.06-.43s-.11-.3-.22-.44c-.1-.14-.24-.28-.42-.39-.18-.12-.41-.22-.69-.29l-1.08-.27c-.32-.07-.55-.16-.71-.27-.16-.11-.24-.26-.24-.44,0-.28,.11-.48,.32-.61,.22-.13,.49-.2,.83-.2s.59,.07,.79,.22c.2,.15,.32,.35,.35,.61h1.02c-.01-.54-.22-.96-.6-1.24-.39-.29-.9-.43-1.55-.43-.49,0-.9,.07-1.23,.22-.33,.15-.58,.35-.74,.61-.17,.26-.25,.56-.25,.89,0,.43,.15,.77,.43,1.01,.28,.24,.66,.42,1.13,.52l1.13,.27c.26,.06,.44,.14,.56,.26,.12,.12,.18,.27,.18,.47,0,.27-.11,.47-.33,.6-.22,.13-.51,.19-.87,.19-.22,0-.42-.03-.61-.1s-.35-.17-.48-.31-.22-.32-.27-.54h-1.05c.06,.42,.2,.76,.44,1.03,.23,.27,.52,.46,.87,.59,.35,.12,.72,.19,1.11,.19,.46,0,.86-.07,1.2-.21m-8.4-4c.11-.25,.27-.45,.49-.6,.22-.16,.49-.24,.81-.24s.58,.07,.79,.21c.21,.14,.37,.33,.47,.58,.1,.24,.15,.51,.15,.81h-2.88c0-.26,.05-.51,.16-.76m3.84,1.52v-.39c0-.58-.1-1.08-.29-1.5-.2-.42-.48-.75-.86-.99-.38-.24-.84-.35-1.39-.35s-1.03,.13-1.43,.38c-.4,.26-.7,.61-.91,1.06-.21,.45-.31,.97-.31,1.56s.11,1.11,.34,1.54c.23,.43,.55,.77,.96,1,.41,.23,.89,.35,1.42,.35,.38,0,.74-.07,1.08-.21,.35-.14,.64-.34,.88-.61,.24-.27,.4-.6,.46-.99h-1.09c-.08,.3-.24,.53-.49,.69-.25,.15-.54,.23-.88,.23s-.62-.08-.85-.23c-.23-.16-.4-.37-.51-.64-.11-.27-.17-.58-.17-.92h4Zm-8.73,2.49c.31-.12,.56-.28,.77-.47,.21-.2,.38-.4,.52-.62v1.17h.85V6.91h-3.09s0,.84,0,.84h1.86l-.04,.64c-.01,.18-.07,.37-.15,.57s-.21,.38-.36,.55c-.16,.17-.35,.31-.58,.41-.23,.11-.5,.16-.8,.16s-.6-.05-.87-.16-.51-.28-.71-.52c-.2-.24-.36-.55-.48-.94-.12-.39-.17-.86-.17-1.41,0-.71,.09-1.29,.28-1.74,.18-.45,.44-.78,.77-.99,.33-.21,.71-.32,1.14-.32,.32,0,.61,.07,.87,.22,.26,.15,.47,.34,.64,.58,.17,.24,.28,.5,.33,.78h1.25c-.02-.34-.11-.67-.27-.98-.16-.31-.38-.59-.66-.84-.28-.25-.6-.44-.96-.58-.36-.14-.75-.22-1.18-.22-.71,0-1.32,.16-1.85,.49-.52,.33-.93,.8-1.21,1.41-.29,.61-.43,1.35-.43,2.21s.14,1.58,.42,2.19c.28,.61,.67,1.07,1.18,1.4,.51,.32,1.12,.48,1.83,.48,.42,0,.79-.06,1.09-.19m-11.88-4.02c.11-.25,.27-.45,.49-.6,.22-.16,.49-.24,.81-.24s.58,.07,.8,.21c.21,.14,.37,.33,.47,.58,.1,.24,.15,.51,.15,.81h-2.88c0-.26,.05-.51,.16-.76m3.84,1.52v-.39c0-.58-.1-1.08-.29-1.5-.19-.42-.48-.75-.85-.99-.38-.24-.84-.35-1.39-.35s-1.03,.13-1.43,.38c-.4,.26-.7,.61-.91,1.06-.21,.45-.31,.97-.31,1.56s.11,1.11,.34,1.54c.23,.43,.55,.77,.96,1,.41,.23,.89,.35,1.42,.35,.38,0,.74-.07,1.08-.21,.35-.14,.64-.34,.88-.61,.24-.27,.4-.6,.46-.99h-1.09c-.08,.3-.24,.53-.49,.69-.25,.15-.54,.23-.88,.23s-.62-.08-.85-.23c-.23-.16-.4-.37-.51-.64-.11-.27-.17-.58-.17-.92h4Zm-10.11,2.57v-3.75c0-.24,.06-.43,.19-.59,.13-.16,.29-.27,.5-.35,.21-.08,.43-.12,.66-.12,.35,0,.63,.09,.85,.26,.22,.17,.33,.42,.33,.74v3.81h1.18V7c0-.36-.09-.66-.27-.92-.18-.26-.42-.46-.71-.59-.3-.14-.63-.21-1-.21-.3,0-.56,.04-.79,.13-.23,.09-.42,.2-.57,.33-.16,.14-.28,.28-.37,.43V2.85h-1.16V11.02h1.18Zm-6.22-5.42c-.4,.25-.7,.6-.91,1.05-.21,.45-.31,.97-.31,1.56,0,.63,.11,1.16,.34,1.6,.23,.44,.54,.77,.94,1,.4,.23,.86,.34,1.38,.34,.42,0,.79-.08,1.12-.24,.33-.16,.6-.39,.81-.68s.33-.62,.37-1.01h-1c-.03,.17-.1,.34-.2,.5-.11,.16-.25,.29-.43,.4-.18,.1-.39,.15-.64,.15-.51,0-.9-.19-1.16-.56s-.4-.88-.4-1.51c0-.69,.14-1.2,.43-1.53,.29-.33,.66-.5,1.11-.5,.25,0,.46,.05,.65,.15,.18,.1,.33,.23,.43,.39,.11,.16,.18,.33,.21,.52h1.02c-.04-.4-.17-.74-.37-1.04-.21-.3-.47-.53-.81-.7s-.71-.25-1.14-.25c-.55,0-1.03,.12-1.43,.37m-3.27,5.33c.34-.14,.59-.33,.78-.59,.18-.26,.27-.56,.27-.92,0-.14-.02-.28-.06-.43-.04-.15-.12-.3-.22-.44-.1-.14-.24-.28-.42-.39-.18-.12-.41-.22-.69-.29l-1.08-.27c-.32-.07-.55-.16-.71-.27-.16-.11-.24-.26-.24-.44,0-.28,.11-.48,.32-.61s.49-.2,.83-.2,.59,.07,.79,.22c.2,.15,.32,.35,.36,.61h1.02c-.01-.54-.22-.96-.61-1.24-.39-.29-.9-.43-1.54-.43-.49,0-.9,.07-1.23,.22-.33,.15-.58,.35-.75,.61-.17,.26-.25,.56-.25,.89,0,.43,.15,.77,.43,1.01,.28,.24,.66,.42,1.13,.52l1.13,.27c.26,.06,.44,.14,.56,.26,.12,.12,.18,.27,.18,.47,0,.27-.11,.47-.33,.6-.22,.13-.51,.19-.87,.19-.22,0-.42-.03-.61-.1-.19-.07-.35-.17-.48-.31s-.23-.32-.27-.54h-1.05c.06,.42,.2,.76,.44,1.03,.23,.27,.52,.46,.87,.59,.35,.12,.72,.19,1.11,.19,.46,0,.86-.07,1.2-.21m-6.13-6.69h1.18v-1.16h-1.18v1.16Zm.03,6.79h1.13V5.33h-1.13v5.69Zm-3.26,0v-3.42c0-.22,.04-.42,.12-.58,.08-.17,.19-.3,.34-.4,.15-.1,.33-.18,.53-.22,.21-.04,.43-.06,.68-.04,.05,0,.12,0,.19,.02s.14,.02,.18,.04v-1.13s-.1-.04-.17-.05c-.07,0-.14-.01-.22-.01-.25,0-.49,.05-.72,.15-.23,.1-.43,.24-.6,.43-.17,.19-.3,.42-.4,.7v-1.17h-1.13v5.69h1.18Zm-6.33-4.09c.11-.25,.27-.45,.49-.6,.22-.16,.49-.24,.81-.24s.58,.07,.79,.21c.21,.14,.37,.33,.47,.58,.1,.24,.15,.51,.15,.81h-2.88c0-.26,.05-.51,.16-.76m3.84,1.52v-.39c0-.58-.1-1.08-.29-1.5-.2-.42-.48-.75-.86-.99-.38-.24-.84-.35-1.39-.35s-1.03,.13-1.43,.38c-.4,.26-.7,.61-.91,1.06-.21,.45-.31,.97-.31,1.56s.11,1.11,.34,1.54c.23,.43,.55,.77,.96,1,.41,.23,.89,.35,1.43,.35,.38,0,.74-.07,1.08-.21,.35-.14,.64-.34,.88-.61s.4-.6,.46-.99h-1.09c-.08,.3-.24,.53-.49,.69-.25,.15-.54,.23-.88,.23s-.62-.08-.85-.23c-.23-.16-.4-.37-.51-.64-.11-.27-.17-.58-.17-.92h4Zm-6,2.57v-.85h-3.12l3.1-4.13v-.7h-4.37v.85h2.96l-3.1,4.13v.7h4.53Zm-6.99-6.79h1.18v-1.16h-1.18v1.16Zm.03,6.79h1.13V5.33h-1.13v5.69Zm-5.27-4.09c.11-.25,.27-.45,.49-.6,.22-.16,.49-.24,.81-.24s.58,.07,.79,.21c.21,.14,.37,.33,.47,.58,.1,.24,.15,.51,.15,.81h-2.88c0-.26,.05-.51,.16-.76m3.84,1.52v-.39c0-.58-.1-1.08-.29-1.5-.2-.42-.48-.75-.86-.99-.38-.24-.84-.35-1.39-.35s-1.03,.13-1.43,.38c-.4,.26-.7,.61-.91,1.06-.21,.45-.31,.97-.31,1.56s.11,1.11,.34,1.54c.23,.43,.55,.77,.96,1,.41,.23,.89,.35,1.43,.35,.38,0,.74-.07,1.08-.21,.35-.14,.64-.34,.88-.61s.4-.6,.46-.99h-1.09c-.08,.3-.24,.53-.49,.69-.25,.15-.54,.23-.88,.23s-.62-.08-.85-.23c-.23-.16-.4-.37-.51-.64-.11-.27-.17-.58-.17-.92h4Zm-6.84-3.12l-1.2,4.13h-.08l-1.25-4.13h-.87l-1.22,4.14h-.08l-1.24-4.14h-1.07l1.78,5.69h1.06l1.18-3.99,1.23,3.99h1.08l1.76-5.69h-1.09Zm-11.52,5.69v-3.75c0-.24,.06-.43,.19-.59,.13-.16,.29-.27,.5-.35,.21-.08,.43-.12,.66-.12,.34,0,.63,.09,.85,.26,.22,.17,.33,.42,.33,.74v3.81h1.18V7c0-.36-.09-.66-.27-.92-.18-.26-.42-.46-.72-.59-.3-.14-.63-.21-1-.21-.3,0-.56,.04-.79,.13-.23,.09-.42,.2-.57,.33-.16,.14-.28,.28-.37,.43V2.85h-1.16V11.02h1.18Zm-6.22-5.42c-.4,.25-.7,.6-.91,1.05-.21,.45-.31,.97-.31,1.56,0,.63,.11,1.16,.34,1.6,.23,.44,.54,.77,.94,1,.4,.23,.86,.34,1.38,.34,.42,0,.79-.08,1.13-.24,.33-.16,.6-.39,.81-.68s.33-.62,.37-1.01h-1c-.03,.17-.1,.34-.2,.5-.11,.16-.25,.29-.43,.4-.18,.1-.4,.15-.64,.15-.51,0-.9-.19-1.16-.56s-.4-.88-.4-1.51c0-.69,.14-1.2,.43-1.53,.29-.33,.66-.5,1.11-.5,.25,0,.46,.05,.65,.15,.18,.1,.33,.23,.43,.39,.11,.16,.18,.33,.21,.52h1.02c-.04-.4-.17-.74-.37-1.04-.21-.3-.47-.53-.8-.7-.33-.17-.71-.25-1.14-.25-.55,0-1.03,.12-1.43,.37m-3.72,5.24c.45-.19,.8-.46,1.05-.79,.24-.33,.37-.7,.37-1.11,0-.21-.03-.43-.08-.67-.05-.23-.15-.46-.29-.67-.14-.22-.34-.41-.6-.58-.26-.17-.6-.3-1.02-.39l-1.47-.33c-.49-.12-.83-.27-1.01-.44-.18-.17-.28-.39-.28-.66,0-.2,.04-.38,.13-.54,.09-.16,.21-.29,.37-.39,.15-.11,.33-.19,.53-.24,.2-.06,.41-.08,.63-.08,.3,0,.58,.04,.84,.13,.26,.09,.47,.23,.63,.43,.17,.2,.27,.47,.3,.8h1.2c0-.42-.12-.8-.35-1.15-.23-.35-.56-.64-1-.85s-.99-.32-1.64-.32c-.56,0-1.05,.1-1.49,.29-.44,.2-.78,.47-1.03,.82-.25,.35-.38,.76-.37,1.23,0,.56,.17,1.01,.51,1.35s.8,.57,1.4,.7l1.51,.34c.29,.06,.53,.15,.73,.26,.2,.11,.36,.24,.47,.4s.17,.36,.17,.59c0,.26-.08,.47-.25,.66-.17,.18-.39,.32-.67,.42-.28,.1-.6,.15-.95,.15-.32,0-.61-.05-.88-.15-.27-.1-.5-.25-.69-.44-.18-.19-.31-.43-.37-.72h-1.23c.05,.38,.17,.71,.36,.99,.19,.28,.44,.52,.73,.71,.29,.19,.62,.33,.98,.43,.36,.1,.73,.14,1.11,.14,.63,0,1.18-.1,1.63-.29"></path>
  <rect class="cls-1" x="176.77" y="2.31" width="3" height="50.6"></rect>
</svg>