<svg xmlns="http://www.w3.org/2000/svg" viewBox="0 0 888.92 805.36"><defs><style>.cls-1,.cls-2{fill:none;stroke:#fff1fa;stroke-linecap:round;stroke-width:10px;}.cls-1{stroke-linejoin:round;}.cls-2{stroke-miterlimit:10;}.cls-3{fill:#fff1fa;}</style></defs><g id="left-leaves_andPoint"><path id="_1" data-name="1" class="cls-1" d="M337.56,313.43s196.79,53,186.5,335C421.59,571.86,333.73,502.31,337.56,313.43Z" transform="translate(-113.48 -142.17)"/><path id="_2" data-name="2" class="cls-2" d="M524.06,648.4C376,619.81,281.77,635.13,188.32,444.4c0,0,110.74,0,205.42,82.68" transform="translate(-113.48 -142.17)"/><path id="_3" data-name="3" class="cls-1" d="M524.06,648.4c-106.18,96.89-270.88,132.19-394.41,16.89,0,0,58.44-64.81,218.67-53" transform="translate(-113.48 -142.17)"/><path id="_2.5" data-name="2.5" class="cls-2" d="M210.77,623.31c-34.39-13.43-62.84-35.48-89.36-72.13,0,0,48-17.44,127.47-10.27" transform="translate(-113.48 -142.17)"/><circle id="_2.5_point" data-name="2.5_point" class="cls-3" cx="80.74" cy="429.85" r="9.19"/></g><g id="right-leaves_andPoint"><path id="_1-2" data-name="1" class="cls-1" d="M778.31,313.43s-196.79,53-186.5,335C694.28,571.86,782.14,502.31,778.31,313.43Z" transform="translate(-113.48 -142.17)"/><path id="_2-2" data-name="2" class="cls-2" d="M591.81,648.4c148.08-28.59,242.3-13.27,335.74-204,0,0-110.74,0-205.41,82.68" transform="translate(-113.48 -142.17)"/><path id="_3-2" data-name="3" class="cls-1" d="M591.81,648.4C698,745.29,862.7,780.59,986.23,665.29c0,0-58.45-64.81-218.68-53" transform="translate(-113.48 -142.17)"/><path id="_2.5-2" data-name="2.5" class="cls-2" d="M905.1,623.31c34.39-13.43,62.85-35.48,89.36-72.13,0,0-48-17.44-127.46-10.27" transform="translate(-113.48 -142.17)"/><circle id="_2.5_point-2" data-name="2.5_point" class="cls-3" cx="808.18" cy="429.85" r="9.19"/></g><g id="left-lines"><g id="_1-line" data-name="1-line"><path class="cls-3" d="M519.29,649.89,513,630.77l-6.16-19.15q-6.07-19.15-12.3-38.2c-4.14-12.69-8.53-25.26-13.28-37.6-2.4-6.16-4.91-12.25-7.63-18.21s-5.68-11.76-8.94-17.33c-6.46-11.16-14.25-21.4-24.09-29.1l-1.84-1.44c-.62-.48-1.28-.89-1.92-1.34l-1.92-1.33-2-1.21c-.67-.4-1.33-.82-2-1.21l-2.07-1.09-1-.54a8.37,8.37,0,0,0-1-.5,20,20,0,0,0-1.85-.77,21.6,21.6,0,0,0-15.59.05,14.36,14.36,0,0,0-5.84,4.46c-.33.52-.76,1-1.05,1.54s-.63,1.09-.89,1.71-.53,1.24-.75,1.89-.4,1.31-.58,2a24.9,24.9,0,0,0,1.64,16.32,21.59,21.59,0,0,0,8,8.83l1.8,1a12,12,0,0,0,1.76.72,16.37,16.37,0,0,0,1.95.55c.68.1,1.37.26,2.09.31a23.77,23.77,0,0,0,4.47,0,25.4,25.4,0,0,0,4.6-.77,16.3,16.3,0,0,0,2.26-.78,6.86,6.86,0,0,0,2.07-1.34h0a0,0,0,0,1,.05,0,0,0,0,0,1,0,0,4.35,4.35,0,0,1-.4,1.3,7,7,0,0,1-.7,1.22,13.16,13.16,0,0,1-1.87,2.07,20.06,20.06,0,0,1-4.67,3,20.77,20.77,0,0,1-5.43,1.74,19.08,19.08,0,0,1-6,.23,21.14,21.14,0,0,1-3.08-.59c-.95-.31-1.87-.68-2.81-1a24.37,24.37,0,0,1-5.19-3,27.38,27.38,0,0,1-7.56-9.24,33.59,33.59,0,0,1-3.42-11.2,34.93,34.93,0,0,1,.5-11.66c.22-1,.5-1.91.76-2.87s.68-1.87,1-2.81.9-1.86,1.36-2.79a31.26,31.26,0,0,1,1.7-2.65,24.94,24.94,0,0,1,9.75-7.9,30.24,30.24,0,0,1,11.87-2.67,34.1,34.1,0,0,1,11.8,1.82c1,.28,1.88.74,2.82,1.12.49.2.84.4,1.25.6l1.2.61,2.39,1.22c.79.43,1.55.9,2.33,1.35l2.32,1.36,2.24,1.49c.74.51,1.5,1,2.22,1.52l2.15,1.62A95.82,95.82,0,0,1,462.93,477,130.06,130.06,0,0,1,475,494.21c3.53,6,6.67,12.14,9.57,18.36s5.48,12.53,8,18.85c4.92,12.68,9.2,25.5,13.32,38.32,8.13,25.68,15.58,51.43,23,77.18v0a5,5,0,0,1-9.55,2.95Z" transform="translate(-113.48 -142.17)"/></g><g id="_2-line" data-name="2-line"><path class="cls-3" d="M522.1,653c-23.51-9.39-47.49-18-71-28.68-5.86-2.72-11.71-5.52-17.46-8.7-1.45-.76-2.87-1.6-4.3-2.43s-2.85-1.65-4.25-2.57c-2.88-1.76-5.5-3.65-8.17-5.52l-2-1.4-2-1.47L409,599.29c-1.29-1-2.56-2-3.84-3.08s-2.56-2.06-3.79-3.16a146.34,146.34,0,0,1-14.24-13.84A141.8,141.8,0,0,1,375,563.5c-3.66-5.34-6.92-10.68-10.73-14.41a35.44,35.44,0,0,0-6.51-5.14,36.66,36.66,0,0,0-7.45-3.63c-5.13-1.81-10.69-2.36-15-.71l-.79.32-.4.16-.43.23-.87.47-.83.5a16.59,16.59,0,0,0-2.9,2.28,12.74,12.74,0,0,0-2.2,2.73,13.46,13.46,0,0,0-1.48,3.24,23,23,0,0,0-1,7.79,14.6,14.6,0,0,0,.12,1.8c.05.26.09.54.14.8l.21.8a11.61,11.61,0,0,0,1.47,3,15.71,15.71,0,0,0,5.37,4.76,23.25,23.25,0,0,0,7.29,2.52,27.48,27.48,0,0,0,8.36.07,46.94,46.94,0,0,0,9.1-2.37,22.2,22.2,0,0,1-17.78,10.1,23.26,23.26,0,0,1-20.1-9.65,20.82,20.82,0,0,1-2.83-5.46l-.45-1.5c-.12-.51-.22-1-.32-1.54a22.82,22.82,0,0,1-.3-3,32.77,32.77,0,0,1,1.12-11.09,24.31,24.31,0,0,1,5.95-10.29,27.11,27.11,0,0,1,4.49-3.73l1.19-.78,1.22-.69.61-.35.69-.32,1.4-.63A27.76,27.76,0,0,1,343,527.91a39.65,39.65,0,0,1,10.88,2,48.22,48.22,0,0,1,9.76,4.55,46.87,46.87,0,0,1,8.54,6.54c.68.6,1.29,1.28,1.91,1.94s1.25,1.34,1.77,2,1.12,1.35,1.63,2l1.52,2c2,2.69,3.77,5.35,5.56,7.9A140,140,0,0,0,396,571.26,133.18,133.18,0,0,0,409.16,584c1.15,1,2.35,2,3.56,2.94s2.4,1.94,3.62,2.88l3.73,2.77,1.87,1.38,1.91,1.33c2.56,1.77,5.12,3.59,7.66,5.17,1.26.84,2.58,1.62,3.9,2.39s2.63,1.57,4,2.3c5.38,3,11,5.76,16.67,8.43,11.36,5.32,23,10.26,34.76,15.15l17.61,7.41c5.87,2.5,11.72,5.09,17.58,7.69a5,5,0,0,1-3.89,9.22Z" transform="translate(-113.48 -142.17)"/></g><g id="_3-line" data-name="3-line"><path class="cls-3" d="M524.74,653.36l-11.11,1.58c-3.71.48-7.42.91-11.14,1.35s-7.45.7-11.17,1.06-7.46.55-11.19.83c-14.93.89-29.9,1.25-44.83,1s-29.82-.92-44.63-1.86-29.57-2-44.16-2.49c-7.29-.23-14.56-.34-21.7,0A109,109,0,0,0,304,657.66c-1.67.4-3.26,1-4.9,1.43s-3.13,1.2-4.68,1.82L292.19,662a18.9,18.9,0,0,0-2.18,1.16l-2.09,1.29c-.35.23-.71.42-1,.66l-1,.74-2,1.48c-.66.49-1.21,1.11-1.82,1.65s-1.22,1.12-1.77,1.67A16.54,16.54,0,0,0,279,672.3a22.63,22.63,0,0,0-3.79,8.05,23.34,23.34,0,0,0-.51,8.9A17.24,17.24,0,0,0,278,697c3.37,4.43,9.54,7.07,15.64,7.16a23.27,23.27,0,0,0,16.56-6.35,19.16,19.16,0,0,0,4.62-8.1,25,25,0,0,0,1-5.08,10.25,10.25,0,0,0-.64-5.28,6.63,6.63,0,0,1,2.06,2.15c.24.44.49.88.71,1.34s.4.94.55,1.42a20.89,20.89,0,0,1,1.06,6,23.05,23.05,0,0,1-.68,6.24,26.32,26.32,0,0,1-1.05,3.1l-.76,1.51c-.26.5-.59,1-.9,1.46a25.35,25.35,0,0,1-9.9,8.46,29.11,29.11,0,0,1-12.67,2.86,32.79,32.79,0,0,1-12.77-2.52A26.74,26.74,0,0,1,264.36,691a33.78,33.78,0,0,1,.41-13.15,33.4,33.4,0,0,1,5.34-12,31.53,31.53,0,0,1,2.13-2.67c.74-.78,1.47-1.47,2.21-2.2s1.45-1.49,2.26-2.13l2.42-1.94,1.22-1c.41-.32.86-.57,1.29-.86l2.61-1.66a28.4,28.4,0,0,1,2.7-1.49l2.74-1.39c1.86-.79,3.74-1.57,5.63-2.28s3.82-1.27,5.74-1.76A120.26,120.26,0,0,1,324.14,643c7.65-.47,15.21-.46,22.72-.29,15,.42,29.8,1.52,44.56,2.38s29.43,1.73,44.12,2.06a630,630,0,0,0,87.85-3.68h.08a5,5,0,0,1,1.27,9.92Z" transform="translate(-113.48 -142.17)"/></g></g><g id="right-lines"><g id="_1-line-2" data-name="1-line"><path class="cls-3" d="M588,645.28l12.28-16,12.39-15.84q12.49-15.76,24.75-31.6,6.13-7.9,12.08-15.92c2-2.68,4-5.34,5.86-8.05s3.86-5.38,5.76-8.08c3.75-5.44,7.39-10.93,10.81-16.51s6.53-11.29,9.35-17.09c5.65-11.57,9.73-23.74,10.61-36.16l.16-2.32c0-.78,0-1.55,0-2.33l0-2.33-.11-2.33c0-.77-.07-1.55-.13-2.32l-.24-2.33-.12-1.16a10.26,10.26,0,0,0-.14-1.1,19,19,0,0,0-.38-1.94,21.42,21.42,0,0,0-8.65-12.76,14.17,14.17,0,0,0-6.85-2.3c-.62,0-1.22-.09-1.84,0s-1.24.08-1.89.21-1.31.26-2,.44-1.3.39-1.94.62a25,25,0,0,0-12.53,10.36,21.67,21.67,0,0,0-2.88,7.46,19.49,19.49,0,0,0-.32,4.05l.13,2.08a16,16,0,0,0,1.94,5.82,22.57,22.57,0,0,0,2.53,3.74,23.67,23.67,0,0,0,3.31,3.33,9.61,9.61,0,0,0,4.24,2.21h0a.09.09,0,0,1,.08.11.11.11,0,0,1-.06.07,6.24,6.24,0,0,1-2.69.37,12.48,12.48,0,0,1-2.72-.46,20.61,20.61,0,0,1-5-2.23,22,22,0,0,1-4.41-3.51,23.91,23.91,0,0,1-1.91-2.2,21.74,21.74,0,0,1-1.59-2.54,18.07,18.07,0,0,1-1.24-2.84c-.29-.95-.53-1.9-.78-2.87a25.31,25.31,0,0,1-.49-6,26.77,26.77,0,0,1,3.17-11.54,32.66,32.66,0,0,1,7.39-9.18,35.31,35.31,0,0,1,10-6.15c.93-.35,1.88-.66,2.82-1s2-.49,2.93-.73,2.07-.29,3.1-.43a28,28,0,0,1,3.18-.06,25.15,25.15,0,0,1,12.12,3.69,30.4,30.4,0,0,1,8.91,8.42A34.28,34.28,0,0,1,702.25,459c.31,1,.44,2,.66,3a13.3,13.3,0,0,1,.21,1.38l.17,1.34.34,2.67c.08.89.12,1.79.19,2.69l.16,2.69v2.7c0,.9,0,1.8,0,2.7l-.15,2.69a95.63,95.63,0,0,1-3.73,21.08,134.88,134.88,0,0,1-7.55,19.66c-3,6.29-6.35,12.33-9.89,18.21s-7.34,11.56-11.2,17.16c-7.73,11.19-16,21.87-24.35,32.45-16.76,21.1-34,41.63-51.27,62.11v0a5,5,0,0,1-7.79-6.27Z" transform="translate(-113.48 -142.17)"/></g><g id="_2-line-2" data-name="2-line"><path class="cls-3" d="M589.24,644.11c10.76-6.69,21.57-13.35,32.56-19.8s22.11-12.72,33.62-18.46q8.61-4.32,17.58-8.13c3-1.29,6-2.43,9.1-3.57s6-2.15,9.12-3.15a246.27,246.27,0,0,1,37.61-9.62,192.82,192.82,0,0,1,19.42-2.15c3.23-.21,6.43-.33,9.57-.48,1.58-.06,3.12-.15,4.66-.24a39.87,39.87,0,0,0,4.15-.5,38.82,38.82,0,0,0,15.45-6.29c4.52-3.17,8.22-7.49,9.38-12.12l.21-.87a9,9,0,0,0,.15-1c.12-.68.14-1.33.2-2a19.74,19.74,0,0,0-.19-3.79,15.3,15.3,0,0,0-2.89-6.72c-.35-.53-.82-1-1.22-1.51s-.89-1-1.42-1.41-1-.92-1.56-1.35-1.11-.86-1.68-1.28l-.44-.31-.37-.24a7.15,7.15,0,0,0-.76-.44,11.66,11.66,0,0,0-1.6-.75,12.75,12.75,0,0,0-3.57-.75,17,17,0,0,0-7.64,1.39,21.34,21.34,0,0,0-6.8,4.77,23.91,23.91,0,0,0-4.77,7.34,32.28,32.28,0,0,0-2.23,9,.18.18,0,0,1-.2.16.19.19,0,0,1-.16-.15,26.46,26.46,0,0,1-.19-9.81,25,25,0,0,1,3.77-9.51,24.47,24.47,0,0,1,7.66-7.35,22.31,22.31,0,0,1,10.62-3.2,19.07,19.07,0,0,1,5.79.67,20.43,20.43,0,0,1,2.81,1,14,14,0,0,1,1.34.68l.65.36.55.35a31.36,31.36,0,0,1,8.23,7.05,23.58,23.58,0,0,1,4.83,10.44,28,28,0,0,1,.46,5.67c0,.92-.07,1.85-.19,2.75-.06.46-.08.89-.18,1.38l-.3,1.45A26.74,26.74,0,0,1,795.48,572a38.08,38.08,0,0,1-7.74,7.59,47.91,47.91,0,0,1-24.52,9.2c-1.63.12-3.25.24-4.83.33-3.19.21-6.32.38-9.4.63a180.19,180.19,0,0,0-18.32,2.35c-6.06,1.1-12.07,2.53-18.06,4.11l-4.48,1.25c-1.49.42-3,.9-4.46,1.34-3,.88-5.93,1.9-8.89,2.87s-5.88,2.09-8.82,3.12-5.73,2.21-8.58,3.41q-8.55,3.6-16.94,7.79c-11.17,5.59-22.22,11.61-33.17,17.85s-21.9,12.59-32.89,18.9a5,5,0,0,1-5.14-8.58Z" transform="translate(-113.48 -142.17)"/></g><g id="_3-line-2" data-name="3-line"><path class="cls-3" d="M592.57,643.44a523.44,523.44,0,0,1,87.84,17.71c14.36,4.1,28.55,8.65,42.61,13.41s28,9.59,42,13.9,28.07,8,41.89,8.28c1.73,0,3.42-.08,5.13-.09s3.36-.34,5-.53l2.45-.48a19.47,19.47,0,0,0,2.43-.55l2.38-.71c.4-.12.8-.21,1.19-.36l1.14-.47,2.29-.94c.77-.3,1.46-.76,2.2-1.13s1.48-.77,2.16-1.16a19.2,19.2,0,0,0,1.78-1.26,22.93,22.93,0,0,0,5.83-6.92,23.57,23.57,0,0,0,2.85-8.62A17.58,17.58,0,0,0,842.6,665c-2.14-5.3-7.42-9.59-13.41-11.54a23.87,23.87,0,0,0-9.38-1.17,21.73,21.73,0,0,0-9.12,2.85,15.16,15.16,0,0,0-3.67,3.08,20.79,20.79,0,0,0-2.93,4.17,23.21,23.21,0,0,0-1.94,4.88,9.53,9.53,0,0,0-.21,5.21v0a.2.2,0,0,1-.13.25.2.2,0,0,1-.22-.06,7,7,0,0,1-1.13-2.73c-.08-.48-.17-1-.22-1.46s-.07-1,0-1.47a21.88,21.88,0,0,1,.85-5.84,21.31,21.31,0,0,1,6.43-10.4,25.71,25.71,0,0,1,11.26-5.43,29.47,29.47,0,0,1,12.61.18A31.14,31.14,0,0,1,842.93,651a26.57,26.57,0,0,1,8.32,10.26,27,27,0,0,1,2.18,13.22,33.33,33.33,0,0,1-3.76,12.44A32.72,32.72,0,0,1,841.49,697a28.26,28.26,0,0,1-2.71,2c-.91.56-1.79,1-2.68,1.54s-1.77,1.06-2.71,1.46l-2.83,1.24-1.41.61c-.48.19-1,.33-1.46.49l-2.92.94a25.77,25.77,0,0,1-3,.74l-3,.65c-2,.29-4,.57-6,.77s-4,.26-6,.24a120,120,0,0,1-23.14-2.6c-7.49-1.52-14.78-3.5-22-5.59s-14.31-4.37-21.36-6.72l-21.08-7c-14-4.64-28-9.21-42.12-13.35a629.91,629.91,0,0,0-85.85-19h0a5,5,0,0,1,1.26-9.92Z" transform="translate(-113.48 -142.17)"/></g></g><g id="center-line"><path class="cls-3" d="M575,391.45l.79-4.23c.29-1.4.62-2.81,1-4.2q1.11-4.18,2.56-8.3a85.84,85.84,0,0,1,7.5-15.84c6-10.16,14.07-18.83,20.82-27.48s11.8-17.68,14.06-27.74A71.72,71.72,0,0,0,623,296c.14-1.29.31-2.64.36-3.7a27.39,27.39,0,0,0,0-3.39,35.9,35.9,0,0,0-1-6.8,38.85,38.85,0,0,0-2.2-6.64,31.71,31.71,0,0,0-8-11.29,19,19,0,0,0-11.68-5,16.76,16.76,0,0,0-6.19.92c-1.1.4-2.34.95-3.5,1.42a14.25,14.25,0,0,0-1.72.81l-1.69.87a45.44,45.44,0,0,0-11.9,9.33,57.48,57.48,0,0,0-8.84,12.89,97.9,97.9,0,0,0-6.21,15,210.27,210.27,0,0,0-7.59,32.46h0l-2,20.9-6-20.62-3.65-12.54c-1.27-4.16-2.6-8.28-4-12.34a185.87,185.87,0,0,0-9.77-23.5,83.48,83.48,0,0,0-6.31-10.43,39.68,39.68,0,0,0-7.61-8.31c-5.58-4.51-11.54-5.65-18.18-3.57a28.31,28.31,0,0,0-9.11,4.75,22.12,22.12,0,0,0-6.13,7.84c-3.05,6.25-3.9,14.2-3.46,22.21A114.65,114.65,0,0,0,481,321.6c1.13,4,2.44,8,3.91,11.95.75,2,1.49,3.86,2.37,5.79s1.69,3.88,2.64,5.81c3.66,7.71,7.78,15.34,12.05,22.92s8.7,15.14,13.18,22.69l13.48,22.73c4.44,7.64,9,15.26,13.15,23.12A402.12,402.12,0,0,1,564.5,485a280.93,280.93,0,0,1,14.92,51.58,337.23,337.23,0,0,1,5.42,53.3c.49,17.8,0,35.53-.68,53.17l-.6,13.23-1,13.44c-.46,4.48-1.07,8.93-1.61,13.4s-1.5,8.88-2.25,13.31c-1,4.4-1.9,8.8-2.93,13.18l-1.72,6.51c-.57,2.18-1.13,4.35-1.83,6.48-1.33,4.28-2.6,8.59-4.08,12.79L566,741.72,563.7,748c-1.49,4.2-3.09,8.29-4.63,12.44L554.4,772.7c-3.19,8.14-6,16.26-8.47,24.44-1.09,4.11-2.32,8.2-3.09,12.34l-.66,3.1-.33,1.55-.22,1.56-.91,6.25c-.17,1-.26,2.1-.36,3.17l-.31,3.2c-.19,2.13-.46,4.27-.59,6.4l-.31,6.41c0,1.07-.13,2.14-.14,3.2l0,3.2A159.57,159.57,0,0,0,540.71,873c.35,2.1.62,4.22,1,6.31l1.28,6.28,1.6,6.22c.53,2.08,1.24,4.11,1.85,6.18s1.35,4.1,2,6.15,1.45,4.08,2.23,6.12l1.16,3,1.23,3c.8,2,1.6,4.08,2.45,6.1,3.3,8.14,6.92,16.2,10,24.5a.44.44,0,0,1-.26.56.45.45,0,0,1-.54-.18c-4.49-7.6-8.93-15.17-13.34-22.85-2.2-3.84-4.38-7.71-6.34-11.72-1-2-2-4-2.92-6s-1.93-4.05-2.74-6.15a149.71,149.71,0,0,1-11.49-52.85l-.15-3.4c0-1.13,0-2.26,0-3.39l.06-6.78c0-2.26.23-4.5.34-6.76l.2-3.38a32.72,32.72,0,0,1,.28-3.39l.87-6.83.22-1.71.32-1.69.65-3.36c.77-4.53,2-8.89,3.1-13.31,2.47-8.69,5.27-17.26,8.36-25.56,1.47-4.21,3.09-8.28,4.67-12.41s3.17-8.18,4.66-12.26l2.27-6.13,2.14-6.14c1.48-4.08,2.72-8.21,4-12.32.68-2,1.23-4.13,1.82-6.2l1.76-6.22c1.06-4.16,2-8.35,3-12.54.78-4.22,1.65-8.43,2.37-12.66s1.24-8.51,1.75-12.78l1.11-12.86.74-13.14c.91-17.49,1.57-35,1.23-52.35A319,319,0,0,0,569,538.51a270.2,270.2,0,0,0-14.3-49.67c-3.05-8.09-6.79-15.93-10.53-23.75l-5.92-11.6c-2.07-3.82-4.23-7.61-6.33-11.41-8.48-15.19-18-29.91-27.4-44.83s-18.79-29.95-26.92-46.12c-1-2-2-4.09-3-6.15s-1.9-4.24-2.76-6.36q-2.56-6.44-4.57-13a127,127,0,0,1-3.3-13.49,109.31,109.31,0,0,1-1.78-14,75.36,75.36,0,0,1,.49-14.58A49.68,49.68,0,0,1,467,268.74,36.65,36.65,0,0,1,477,256a37.2,37.2,0,0,1,6.81-4.41,45.37,45.37,0,0,1,7.36-2.9,35.53,35.53,0,0,1,3.95-.93c.68-.11,1.35-.23,2-.33l2.09-.16,1.05-.07h1.06l2.13.06c.71.07,1.42.17,2.13.27l1.07.14,1,.24,2.09.5,2,.7a14.63,14.63,0,0,1,2,.8c.63.3,1.27.59,1.89.91a38.44,38.44,0,0,1,3.49,2.16l1.64,1.18,1.52,1.27a53.54,53.54,0,0,1,9.81,11.4,92.74,92.74,0,0,1,6.71,12.49,127,127,0,0,1,5,12.86c1.4,4.32,2.71,8.65,3.79,13,2.12,8.75,3.94,17.49,5.19,26.3l-8,.27h0c.27-2.87.51-5.74.81-8.61s.75-5.75,1.17-8.62a152.94,152.94,0,0,1,3.54-17.22,109,109,0,0,1,5.93-17,65.24,65.24,0,0,1,9.82-16,58.34,58.34,0,0,1,14.71-12.63l2.12-1.21a23.15,23.15,0,0,1,2.14-1.14l2.19-1,1.1-.51c.37-.16.7-.34,1.17-.5a30.74,30.74,0,0,1,22.41-.13,37.37,37.37,0,0,1,9.48,5.39,41,41,0,0,1,7.36,7.47,43.6,43.6,0,0,1,5.3,8.76,49.62,49.62,0,0,1,3.25,9.63,46.55,46.55,0,0,1,1.05,10.14,43.87,43.87,0,0,1-.34,5.12c-.2,1.78-.54,3.22-.85,4.73a83.56,83.56,0,0,1-2.42,9,71.77,71.77,0,0,1-8,16.78,93,93,0,0,1-11.37,14c-4.06,4.23-8.3,8.05-12.29,12a128.66,128.66,0,0,0-11.26,12.26,94.23,94.23,0,0,0-9.23,13.85,112.53,112.53,0,0,0-6.81,15.46.39.39,0,0,1-.5.25A.42.42,0,0,1,575,391.45Z" transform="translate(-113.48 -142.17)"/><circle class="cls-2" cx="443.59" cy="507.09" r="20"/></g><g id="bibe"><path class="cls-3" d="M599.06,222.54c2.62-.79,5.25-1.38,7.87-2s5.24-1.09,7.87-1.5c1.31-.2,2.62-.63,3.93-.95a8.42,8.42,0,0,1,3.93-.05,15.65,15.65,0,0,1,3.94,1.47,14.64,14.64,0,0,1,3.93,3,.74.74,0,0,1,0,1,14.49,14.49,0,0,1-3.93,3,15.61,15.61,0,0,1-3.94,1.46,8.42,8.42,0,0,1-3.93,0c-1.31-.32-2.62-.75-3.93-1q-3.94-.6-7.87-1.5c-2.62-.61-5.25-1.21-7.87-2a.52.52,0,0,1-.35-.65A.53.53,0,0,1,599.06,222.54Z" transform="translate(-113.48 -142.17)"/><path class="cls-3" d="M501.06,223.54c-2.65.79-5.31,1.39-8,2s-5.32,1.1-8,1.5c-1.33.2-2.66.63-4,1a8.68,8.68,0,0,1-4,0,16,16,0,0,1-4-1.46,14.69,14.69,0,0,1-4-3,.74.74,0,0,1,0-1,14.84,14.84,0,0,1,4-3,16.05,16.05,0,0,1,4-1.47,8.68,8.68,0,0,1,4,.05c1.33.32,2.66.75,4,.95q4,.61,8,1.5c2.66.62,5.32,1.21,8,2a.52.52,0,0,1,0,1Z" transform="translate(-113.48 -142.17)"/><path class="cls-3" d="M549.35,174c-.79-2.64-1.39-5.28-2-7.92s-1.1-5.28-1.5-7.92c-.2-1.32-.63-2.64-1-4a8.55,8.55,0,0,1,0-4,15.54,15.54,0,0,1,1.47-4,14.54,14.54,0,0,1,3-4,.75.75,0,0,1,1,0,14.54,14.54,0,0,1,3,4,15.54,15.54,0,0,1,1.47,4,8.55,8.55,0,0,1-.05,4c-.32,1.32-.75,2.64-.95,4q-.6,4-1.5,7.92c-.61,2.64-1.21,5.28-2,7.92a.51.51,0,0,1-.65.35A.53.53,0,0,1,549.35,174Z" transform="translate(-113.48 -142.17)"/><path class="cls-3" d="M584.25,187.94c1.3-2.42,2.74-4.7,4.16-7s2.94-4.49,4.51-6.64c.79-1.07,1.42-2.3,2.12-3.46a8.52,8.52,0,0,1,2.75-2.82,15.81,15.81,0,0,1,3.83-1.75,14.43,14.43,0,0,1,4.93-.64.74.74,0,0,1,.7.71,14.5,14.5,0,0,1-.64,4.93,15.37,15.37,0,0,1-1.75,3.82,8.43,8.43,0,0,1-2.82,2.75c-1.16.71-2.39,1.33-3.46,2.12-2.14,1.57-4.35,3.08-6.63,4.51s-4.58,2.86-7,4.16a.52.52,0,0,1-.71-.21A.5.5,0,0,1,584.25,187.94Z" transform="translate(-113.48 -142.17)"/><path class="cls-3" d="M515,188.85c-2.44-1.31-4.74-2.77-7.05-4.21s-4.52-3-6.68-4.57c-1.08-.79-2.32-1.43-3.49-2.14a8.7,8.7,0,0,1-2.85-2.78,15.62,15.62,0,0,1-1.77-3.85,14.54,14.54,0,0,1-.67-5,.73.73,0,0,1,.7-.71,14.57,14.57,0,0,1,5,.67,15.62,15.62,0,0,1,3.85,1.77,8.7,8.7,0,0,1,2.78,2.85c.71,1.17,1.35,2.41,2.14,3.49,1.59,2.16,3.12,4.39,4.57,6.69s2.9,4.6,4.21,7a.51.51,0,0,1-.21.7A.5.5,0,0,1,515,188.85Z" transform="translate(-113.48 -142.17)"/><circle class="cls-2" cx="436.59" cy="81.09" r="20"/></g></svg>