<?xml version="1.0" encoding="utf-8"?>
<!-- Generator: Adobe Illustrator 24.1.2, SVG Export Plug-In . SVG Version: 6.00 Build 0)  -->
<svg version="1.1" id="Layer_1" xmlns="http://www.w3.org/2000/svg" xmlns:xlink="http://www.w3.org/1999/xlink" x="0px" y="0px"
	 viewBox="0 0 96 96" style="enable-background:new 0 0 96 96;" xml:space="preserve">
<style type="text/css">
	.st0{fill:none;stroke:#131200;stroke-width:4;stroke-linecap:round;stroke-linejoin:round;stroke-miterlimit:16;}
</style>
<g>
	<path class="st0" d="M32,52V18c0-3.3,2.7-6,6-6s6,2.7,6,6v30 M44,46v-8c0-3.3,2.7-6,6-6s6,2.7,6,6v10 M56,42c0-3.3,2.7-6,6-6
		c3.3,0,6,2.7,6,6v6"/>
	<path class="st0" d="M68,46c0-3.3,2.7-6,6-6s6,2.7,6,6v18c0,13.3-10.7,24-24,24h-8h0.8c-8.1,0-15.6-4.1-20-10.8L28,76
		c-1.2-1.9-5.6-9.6-13.1-22.9c-1.6-2.8-0.6-6.4,2.1-8.1c2.9-1.8,6.7-1.3,9.1,1.1L32,52 M20,12l-4-4 M16,28h-4 M56,12l4-4 M60,24h4"
		/>
</g>
</svg>
